<svg xmlns="http://www.w3.org/2000/svg" version="1.1" xmlns:xlink="http://www.w3.org/1999/xlink" width="512" height="512" x="0" y="0" viewBox="0 0 512 512" style="enable-background:new 0 0 512 512" xml:space="preserve"><g><path fill="#B6B1B7" fill-rule="evenodd" d="M100.27 348.425v90.819h22.936c3.383 0 6.176 2.073 6.176 4.614v29.085h81.475v-29.085c0-2.541 2.793-4.614 6.216-4.614h22.936v-90.819h-22.936c-3.423 0-6.216-2.073-6.216-4.585v-29.115h-81.475v29.115c0 2.511-2.793 4.585-6.176 4.585zM268.725 348.425v90.819h24c3.582 0 6.504 2.073 6.504 4.614v29.085h85.257v-29.085c0-2.541 2.923-4.614 6.504-4.614h24v-90.819h-24c-3.582 0-6.504-2.073-6.504-4.585v-29.115h-85.257v29.115c0 2.511-2.923 4.585-6.504 4.585z" clip-rule="evenodd" opacity="1" data-original="#b6b1b7"></path><path fill="#ECEAEC" fill-rule="evenodd" d="M34.732 151.631v131.546H477.28V151.631L255.991 23.872z" clip-rule="evenodd" opacity="1" data-original="#eceaec"></path><path fill="#9FD4FE" fill-rule="evenodd" d="M2.698 167.313c5.577 9.666 18.017 12.995 27.683 7.417l4.351-2.511 221.259-127.76 221.288 127.76 4.351 2.511c9.636 5.578 22.105 2.249 27.654-7.417 5.577-9.637 2.249-22.106-7.417-27.684L267.117 4.102c-3.212-1.869-7.154-2.774-11.126-2.774-3.942 0-7.914.905-11.126 2.774L10.115 139.629c-9.636 5.578-12.994 18.047-7.417 27.684z" clip-rule="evenodd" opacity="1" data-original="#9fd4fe"></path><path fill="#FFE07D" fill-rule="evenodd" d="M393.734 332.802h67.981v122.065h-67.981zM222.001 332.802h67.981v122.065h-67.981zM50.267 332.802h68.01v122.065h-68.01z" clip-rule="evenodd" opacity="1" data-original="#ffe07d"></path><path fill="#ECEAEC" fill-rule="evenodd" d="m28.658 472.943 49.807 18.865 61.421-18.865v-29.085c0-2.541-2.073-4.614-4.585-4.614H33.243c-2.511 0-4.585 2.073-4.585 4.614zM372.096 472.943l60.065 18.865 51.192-18.865v-29.085a4.623 4.623 0 0 0-4.614-4.614H376.71a4.624 4.624 0 0 0-4.614 4.614zM200.362 472.943l55.643 13.474 55.614-13.474v-29.085a4.623 4.623 0 0 0-4.614-4.614H204.976a4.623 4.623 0 0 0-4.614 4.614z" clip-rule="evenodd" opacity="1" data-original="#eceaec"></path><path fill="#9FD4FE" fill-rule="evenodd" d="M4.742 510.672h502.527c2.599 0 4.731-2.132 4.731-4.731v-28.268c0-2.599-2.132-4.731-4.731-4.731H4.742c-2.599 0-4.731 2.132-4.731 4.731v28.268c0 2.6 2.132 4.731 4.731 4.731z" clip-rule="evenodd" opacity="1" data-original="#9fd4fe"></path><path fill="#FFE07D" fill-rule="evenodd" d="M232.396 114.866c0 13.667 11.067 24.734 24.734 24.734 13.637 0 24.734-11.068 24.734-24.734s-11.097-24.734-24.734-24.734c-13.666-.001-24.734 11.067-24.734 24.734z" clip-rule="evenodd" opacity="1" data-original="#ffe07d"></path><path fill="#DAD8DB" fill-rule="evenodd" d="M255.991 44.459 34.732 172.219v28.735l221.259-127.76 221.289 127.76v-28.735z" clip-rule="evenodd" opacity="1" data-original="#dad8db"></path><path fill="#FFC269" fill-rule="evenodd" d="M257.13 90.131c-13.666 0-24.734 11.068-24.734 24.734 0 2.833.467 5.519 1.343 8.06 3.65-9.082 12.557-15.477 22.923-15.477 10.834 0 20.061 6.979 23.39 16.674a24.439 24.439 0 0 0 1.811-9.257c.001-13.666-11.096-24.734-24.733-24.734zM50.267 348.425h68.01v24.705h-68.01zM222.001 348.425h67.981v24.705h-67.981zM393.734 348.425h67.981v24.705h-67.981z" clip-rule="evenodd" opacity="1" data-original="#ffc269"></path><path fill="#ECEAEC" fill-rule="evenodd" d="M50.267 348.425h85.034c2.511 0 4.585-2.073 4.585-4.585v-35.296H28.658v35.296c0 2.511 2.073 4.585 4.585 4.585zM222.001 348.425h85.005c2.541 0 4.614-2.073 4.614-4.585v-35.296H200.362v35.296c0 2.511 2.073 4.585 4.614 4.585zM376.71 348.425h102.029c2.54 0 4.614-2.073 4.614-4.585v-35.296H372.096v35.296c0 2.512 2.073 4.585 4.614 4.585z" clip-rule="evenodd" opacity="1" data-original="#eceaec"></path><path fill="#DAD8DB" fill-rule="evenodd" d="M28.658 314.726h111.228v18.076H28.658zM200.362 314.726h111.257v18.076H200.362zM372.096 314.726h111.257v18.076H372.096z" clip-rule="evenodd" opacity="1" data-original="#dad8db"></path><path fill="#9FD4FE" fill-rule="evenodd" d="M28.658 314.726h478.611c2.599 0 4.731-2.132 4.731-4.731v-28.268c0-2.599-2.132-4.731-4.731-4.731H4.742c-2.599 0-4.731 2.132-4.731 4.731v28.268c0 2.599 2.132 4.731 4.731 4.731z" clip-rule="evenodd" opacity="1" data-original="#9fd4fe"></path><g fill="#6F6571"><path d="M162.798 203.723a21.381 21.381 0 0 0 3.366-11.511c0-11.873-9.66-21.533-21.533-21.533h-17.429a7.725 7.725 0 0 0-7.726 7.726V238.407c0 2.055.819 4.026 2.276 5.475a7.723 7.723 0 0 0 5.451 2.251h.034s16.022-.071 20.439-.071c13.165 0 23.876-10.711 23.876-23.877-.001-7.431-3.414-14.079-8.754-18.462zm-18.167-17.591c3.353 0 6.08 2.727 6.08 6.08s-2.727 6.08-6.08 6.08c-1.275 0-9.702.016-9.702.016v-12.176zm3.044 44.477c-2.351 0-7.98.02-12.746.039v-16.875c1.139-.004 12.746-.013 12.746-.013 4.645 0 8.424 3.779 8.424 8.425 0 4.645-3.779 8.424-8.424 8.424zM225.167 176.52a9.054 9.054 0 0 0-8.484-5.841h-.005a9.056 9.056 0 0 0-8.474 5.822l-22.53 59.156a7.727 7.727 0 0 0 14.441 5.5l3.716-9.757h25.534l3.674 9.735a7.73 7.73 0 0 0 7.229 5.001 7.727 7.727 0 0 0 7.227-10.456zm-15.453 39.427 6.94-18.221 6.877 18.221zM313.279 170.679l-.076.001a7.726 7.726 0 0 0-7.652 7.8l.347 35.827-27.747-40.18a7.728 7.728 0 0 0-14.085 4.39v59.889a7.726 7.726 0 1 0 15.452 0v-35.105l26.411 38.245c2.26 3.267 6.037 4.657 9.619 3.538 3.654-1.141 6.015-4.556 6.015-8.775l-.56-57.979a7.726 7.726 0 0 0-7.724-7.651zM391.934 232.847l-26.988-26.037 24.695-22.699a7.727 7.727 0 1 0-10.457-11.377l-19.725 18.131v-13.21a7.726 7.726 0 1 0-15.452 0v60.752a7.726 7.726 0 1 0 15.452 0v-15.42l21.746 20.981a7.698 7.698 0 0 0 5.363 2.166c2.024 0 4.045-.79 5.561-2.362a7.725 7.725 0 0 0-.195-10.925z" fill="#6F6571" opacity="1" data-original="#6f6571"></path></g></g></svg>