<svg xmlns="http://www.w3.org/2000/svg" version="1.1" xmlns:xlink="http://www.w3.org/1999/xlink" width="40" height="40" x="0" y="0" viewBox="0 0 24 24" style="enable-background:new 0 0 512 512" xml:space="preserve"><g><circle cx="7" cy="22" r="2" fill="#158192" opacity="1" data-original="#000000"></circle><circle cx="17" cy="22" r="2" fill="#158192" opacity="1" data-original="#000000"></circle><path d="M23 3h-2V1a1 1 0 0 0-2 0v2h-2a1 1 0 0 0 0 2h2v2a1 1 0 0 0 2 0V5h2a1 1 0 0 0 0-2Z" fill="#158192" opacity="1" data-original="#000000"></path><path d="M21.771 9.726a.994.994 0 0 0-1.162.806A3 3 0 0 1 17.657 13H5.418l-.94-8H13a1 1 0 0 0 0-2H4.242L4.2 2.648A3 3 0 0 0 1.222 0H1a1 1 0 0 0 0 2h.222a1 1 0 0 1 .993.883l1.376 11.7A5 5 0 0 0 8.557 19H19a1 1 0 0 0 0-2H8.557a3 3 0 0 1-2.829-2h11.929a5 5 0 0 0 4.921-4.112 1 1 0 0 0-.807-1.162Z" fill="#158192" opacity="1" data-original="#000000"></path></g></svg>