<svg xmlns="http://www.w3.org/2000/svg" version="1.1" xmlns:xlink="http://www.w3.org/1999/xlink" width="24" height="24" x="0" y="0" viewBox="0 0 512 512" style="enable-background:new 0 0 512 512" xml:space="preserve"><g><path d="M234.667 416h121.6a84.861 84.861 0 0 1-78.934 53.333H128A85.309 85.309 0 0 1 42.667 384V213.333a85.483 85.483 0 0 1 74.666-84.692v170.026c0 64.64 52.693 117.333 117.334 117.333zM416 133.333h45.227a34.9 34.9 0 0 0-4.481-5.333L384 55.25a24.606 24.606 0 0 0-5.333-4.26V96A37.512 37.512 0 0 0 416 133.333zm0 32A69.467 69.467 0 0 1 346.667 96V42.667h-112A85.31 85.31 0 0 0 149.333 128v170.667A85.311 85.311 0 0 0 234.667 384H384a85.31 85.31 0 0 0 85.333-85.333V165.333z" data-name="copy-Filled" fill="#777777" opacity="1" data-original="#000000"></path></g></svg>