<svg xmlns="http://www.w3.org/2000/svg" version="1.1" xmlns:xlink="http://www.w3.org/1999/xlink" width="40" height="40" x="0" y="0" viewBox="0 0 512 512" style="enable-background:new 0 0 512 512" xml:space="preserve" class=""><g><path d="M195 241c8.27 0 15 6.73 15 15s-6.73 15-15 15-15-6.73-15-15 6.73-15 15-15z" fill="#158192" opacity="1" data-original="#000000" class=""></path><path d="M210 182.5v31.08a44.635 44.635 0 0 0-15-2.58c-24.81 0-45 20.19-45 45s20.19 45 45 45c5.26 0 10.31-.91 15-2.58v31.08c-4.91 1-9.93 1.5-15 1.5-41.35 0-75-33.65-75-75s33.65-75 75-75c5.07 0 10.09.5 15 1.5z" fill="#158192" opacity="1" data-original="#000000" class=""></path><path d="M90 256c0 57.9 47.1 105 105 105 5.05 0 10.06-.35 15-1.07V451h-45c-8.28 0-15-6.72-15-15v-21.24c-12.27-3.49-24.1-8.43-35.37-14.76l-15.09 15.1c-5.86 5.86-15.35 5.86-21.21 0L35.9 372.67c-5.862-5.862-5.839-15.371 0-21.21l15.1-15.1A162.663 162.663 0 0 1 36.24 301H15c-8.28 0-15-6.72-15-15v-60c0-8.28 6.72-15 15-15h21.24c3.49-12.27 8.42-24.1 14.76-35.37l-15.1-15.09c-5.839-5.839-5.862-15.348 0-21.21L78.33 96.9c5.86-5.86 15.35-5.86 21.21 0l15.1 15.1A162.663 162.663 0 0 1 150 97.24V76c0-8.28 6.72-15 15-15h45v91.07c-4.94-.72-9.95-1.07-15-1.07-57.9 0-105 47.1-105 105zM422 69.78V151h81.22zM285 151h62c8.28 0 15 6.72 15 15s-6.72 15-15 15h-62c-8.28 0-15-6.72-15-15s6.72-15 15-15zm152 210H285c-8.28 0-15-6.72-15-15s6.72-15 15-15h152c8.28 0 15 6.72 15 15s-6.72 15-15 15zm0-60H285c-8.28 0-15-6.72-15-15s6.72-15 15-15h152c8.28 0 15 6.72 15 15s-6.72 15-15 15zm0-60H285c-8.28 0-15-6.72-15-15s6.72-15 15-15h152c8.28 0 15 6.72 15 15s-6.72 15-15 15zm-30-60c-8.28 0-15-6.72-15-15V61H240v390h257c8.28 0 15-6.72 15-15V181z" fill="#158192" opacity="1" data-original="#000000" class=""></path></g></svg>