<svg xmlns="http://www.w3.org/2000/svg" version="1.1" xmlns:xlink="http://www.w3.org/1999/xlink" width="40" height="40" x="0" y="0" viewBox="0 0 512 512" style="enable-background:new 0 0 512 512" xml:space="preserve" class=""><g><path d="M506.2 341.6c-9.7-16.4-27-22.2-41.9-14l-111.7 60.8c-7 3.8-13.5 5.5-21 5.5h-2.8l1.1-.7c12.2-7.9 17.6-22.5 13.5-36.4s-16.6-23.3-31.1-23.3h-74.7c-4.9 0-9-1-13.2-3.3L176.8 305c-11.8-6.3-24.6-6.9-36.9-2l-45.6 18.3c-3.5-5.9-9.9-9.8-17.3-9.8H20.1C9 311.4 0 320.5 0 331.6v135.1c0 11.1 9 20.1 20.1 20.1H77c7.5 0 14.1-4.1 17.5-10.3l38.7 13.1c6.6 2.3 12.7 3.3 19.8 3.3h165.5c9.9 0 18.9-2.6 27.4-8.1l153.2-98c16-10 15.6-30.8 7.1-45.2zm-15.7 31.9-153.2 98c-6 3.8-11.8 5.5-18.8 5.5H153c-5.3 0-9.7-.7-14.6-2.4l-41.3-14V337.4l48.7-19.6c7.9-3.2 15.8-2.8 23.4 1.3l47.5 25.3c6.6 3.5 13.2 5.2 20.8 5.2h74.7c7.4 0 13.6 4.6 15.7 11.8s-.6 14.4-6.9 18.4l-15.8 10.1c-4.3 2.8-8.5 4-13.7 4h-70.2c-4.4 0-8 3.6-8 8s3.6 8 8 8h110.1c10.2 0 19.3-2.4 28.7-7.4l111.7-60.8c11.3-6.2 19.1 5.7 20.5 8.1 4 6.5 6.7 18.2-1.8 23.7zM98.1 198.8v-58.2c0-14.6 11.9-26.5 26.5-26.5H186c1.9.8 3.9 1.6 5.9 2.3 16.2 5.7 34.3 9.2 51.3 11.2-8.9 7.6-16.1 17.3-22.8 26.4-7.2 9.7-13.9 18.9-22 25.3-3.5 2.8-4 7.8-1.3 11.3 1.6 2 3.9 3 6.3 3 1.8 0 3.5-.6 5-1.7 9.8-7.8 17.5-18.2 24.9-28.3 11.4-15.4 21.4-29 36.8-32.5v94.3H124.6c-14.6-.1-26.5-12-26.5-26.6zm266.1-82.5c2-.7 4-1.5 5.9-2.3h73.2c14.6 0 26.5 11.9 26.5 26.5v58.2c0 14.6-11.9 26.5-26.5 26.5H286V131c15.4 3.5 25.4 17.1 36.8 32.5 7.5 10.1 15.2 20.6 25 28.4 1.5 1.2 3.2 1.7 5 1.7 2.4 0 4.7-1 6.3-3 2.8-3.5 2.2-8.5-1.3-11.3-8.1-6.5-14.9-15.6-22.1-25.3-6.7-9.1-13.9-18.9-22.8-26.4 17-2.1 35.1-5.5 51.3-11.3zM411 63.8c.8-17.8-9-33.8-24.7-41-9.9-4.5-36.7-11.3-70.8 21.4-15.7 15-28.7 33.9-37.5 53.9-8.8-20-21.8-38.8-37.4-53.9-34.1-32.8-60.9-25.9-70.8-21.4-15.8 7.2-25.5 23.2-24.7 41 .9 21.3 16.1 39.7 40.9 50.2h184.1c24.9-10.5 40-28.9 40.9-50.2zm-213.8 37.4c-22-7.8-35.5-22-36.2-38.1-.5-11.2 5.5-21.3 15.3-25.7 3.7-1.7 7.7-2.5 12-2.5 12.5 0 26.9 7.2 41.2 20.9 16.2 15.6 29.8 36.6 37.4 57.7-27.4-1.6-51.3-5.8-69.7-12.3zm91.9 12.3c7.7-21.1 21.2-42.1 37.5-57.7 14.2-13.7 28.6-20.9 41.2-20.9 4.2 0 8.2.8 12 2.5 9.8 4.4 15.8 14.5 15.3 25.7-.7 16.1-14.2 30.4-36.2 38.1-18.4 6.5-42.3 10.7-69.8 12.3zM124.6 241.3H270v76.3h-32.5c-2.2 0-3.7-.4-5.7-1.4l-47.5-25.3c-8.9-4.7-18.3-7.1-27.9-7.1-7.6 0-15.1 1.5-22.4 4.4l-17.3 6.9v-54.5c2.5.4 5.2.7 7.9.7zM286 317.6v-76.3h157.3c2.7 0 5.4-.3 8-.8v75.9l-90.7 49.3c0-4.5-.7-9-2-13.5-6.1-20.8-24.8-34.7-46.4-34.7H286zm-16-92.3h16v16h-16z" fill="#158192" opacity="1" data-original="#000000" class=""></path></g></svg>