<svg xmlns="http://www.w3.org/2000/svg" version="1.1" xmlns:xlink="http://www.w3.org/1999/xlink" xmlns:svgjs="http://svgjs.com/svgjs" width="20" height="20" x="0" y="0" viewBox="0 0 510 510" style="enable-background:new 0 0 512 512" xml:space="preserve"><g><path d="M300 152.865v180.001h-60v90h86.459L435 477.135v-54.27h75v-270zm165 216.247h-75c-24.814 0-45-20.188-45-45 0-20.724 14.085-38.21 33.181-43.414A44.736 44.736 0 0 1 375 264.112c0-24.813 20.186-45 45-45h30v30h-30c-8.272 0-15 6.729-15 15s6.728 15 15 15h30v30h-60c-8.272 0-15 6.728-15 15 0 8.271 6.728 15 15 15h75zM135 122.865c-16.542 0-30 13.458-30 30v15h60v-15c0-16.542-13.458-30-30-30z" fill="#000000" data-original="#000000"></path><path d="M270 32.865H0v270.001h75v54.27l108.541-54.27H270zm-75 210.001h-30v-45.001h-60v45.001H75v-90.001c0-33.083 26.916-60 60-60s60 26.917 60 60z" fill="#000000" data-original="#000000"></path></g></svg>