<svg width="102" height="14" viewBox="0 0 102 14" fill="none" xmlns="http://www.w3.org/2000/svg">
<path d="M97.344 6.7726C97.344 8.2826 97.444 9.79259 97.294 11.2926C97.224 11.9626 97.294 13.1026 96.074 13.0426C95.054 12.9926 95.144 12.0126 95.064 11.3226C94.964 10.3926 94.894 9.4626 94.894 8.5226C94.894 7.5326 94.444 7.22258 93.304 7.19258C81.954 6.89258 70.594 6.8626 59.244 6.8626C44.714 6.8626 30.184 6.8626 15.644 6.8626C13.024 6.8626 10.404 6.77258 7.79396 6.50258C5.57396 6.27258 5.56396 6.3126 5.43396 8.2426C5.37396 9.1726 5.37397 10.1126 5.31397 11.0426C5.28397 11.5626 5.14397 12.0826 4.39397 12.0626C3.66397 12.0426 3.55398 11.5526 3.49398 11.0126C3.13398 7.86259 3.06397 4.70259 3.27397 1.54259C3.29397 1.25259 3.34397 0.972583 3.41397 0.692583C3.50397 0.332583 3.68397 -0.00740937 4.17397 0.0125906C4.61397 0.0225906 4.87397 0.282576 5.06397 0.622576C5.42397 1.29258 5.34397 2.0226 5.39397 2.7426C5.54397 4.7726 5.19397 4.80259 7.63398 4.82259C13.504 4.88259 19.384 4.8926 25.254 4.8626C43.994 4.7626 62.734 4.52259 81.474 4.76259C85.444 4.81259 89.414 4.96258 93.354 5.41258C94.504 5.54258 94.974 5.2626 94.964 4.2126C94.954 3.2126 95.004 2.20258 95.044 1.19258C95.064 0.692583 95.044 0.102591 95.774 0.0125906C96.514 -0.0774094 96.924 0.322582 97.104 0.972582C97.504 2.38258 97.414 3.82258 97.504 5.25258C97.534 5.75258 97.504 6.26259 97.504 6.76259C97.444 6.76259 97.384 6.76259 97.334 6.76259L97.344 6.7726Z" fill="#ED1B24"/>
<path d="M101.224 6.15257C101.184 7.42257 101.244 8.27254 100.904 9.09254C100.764 9.43254 100.684 9.79254 100.184 9.81254C99.6639 9.83254 99.1839 9.61256 99.0539 9.20256C98.5239 7.46256 98.6239 5.69256 99.0239 3.95256C99.1039 3.58256 99.5639 3.45255 99.9739 3.51255C100.464 3.58255 100.914 3.82255 101.004 4.26255C101.154 5.02255 101.174 5.80255 101.214 6.16255L101.224 6.15257Z" fill="#ED1B24"/>
<path d="M1.73393 5.87268C1.46393 6.56268 2.08394 7.8227 1.06394 7.8927C-0.396064 7.9927 0.333943 6.62268 0.133943 5.91268C-0.0460571 5.31268 0.00393256 4.64268 0.0139326 4.00268C0.0139326 3.64268 0.21393 3.2927 0.71393 3.3027C1.15393 3.3127 1.46394 3.56268 1.53394 3.94268C1.63394 4.57268 1.67394 5.21268 1.74394 5.87268H1.73393Z" fill="#ED1B24"/>
</svg>
