<svg xmlns="http://www.w3.org/2000/svg" version="1.1" xmlns:xlink="http://www.w3.org/1999/xlink" width="40" height="40" x="0" y="0" viewBox="0 0 24 24" style="enable-background:new 0 0 512 512" xml:space="preserve" class=""><g><path fill="#158192" fill-rule="evenodd" d="m2.629 5.672 9-3.6a1 1 0 0 1 .742 0l9 3.6A1 1 0 0 1 22 6.6V10L12 6 2 10V6.6a1 1 0 0 1 .629-.928zM12 8 2 12v9a1 1 0 0 0 1 1h2v-5.22a1 1 0 0 1 .757-.97l2-.5A1 1 0 0 1 9 16.28V22h12a1 1 0 0 0 1-1v-9z" clip-rule="evenodd" opacity="1" data-original="#000000"></path></g></svg>