<svg width="142" height="136" viewBox="0 0 142 136" fill="none" xmlns="http://www.w3.org/2000/svg">
<path d="M55.8444 110.802C39.4344 115.162 21.0344 95.6319 26.3944 79.5119C26.5211 79.1185 26.3811 78.8952 25.9744 78.8419C20.7344 78.1352 14.8844 77.3985 8.42439 76.6319C4.52439 76.1719 2.0944 72.8719 3.9744 69.0519C9.5744 57.6819 15.9244 45.7819 23.5744 35.6019C24.2411 34.7085 25.0377 33.9285 25.9644 33.2619C28.4044 31.4919 34.0344 31.8319 37.0244 32.0019C43.4311 32.3419 49.7677 32.8852 56.0344 33.6319C56.2032 33.6537 56.3754 33.6332 56.5358 33.5722C56.6962 33.5112 56.8399 33.4115 56.9544 33.2819C63.3244 26.0819 69.6644 18.8119 77.7944 13.8519C84.8077 9.57187 92.6277 6.37187 101.254 4.25187C113.748 1.17187 125.541 -0.234794 136.634 0.0318726C140.674 0.131873 142.154 3.59187 141.864 7.27187C140.024 30.2019 134.024 55.6919 117.964 71.2819C113.738 75.3885 109.038 79.2952 103.864 83.0019C103.73 83.0966 103.622 83.2252 103.55 83.3756C103.478 83.5261 103.446 83.6933 103.454 83.8619C103.944 92.7119 104.454 102.112 103.224 111.362C102.744 114.922 97.0544 117.972 93.3644 119.892C82.6244 125.479 73.0244 130.065 64.5644 133.652C62.0711 134.712 60.1211 134.115 58.7144 131.862C58.0077 130.735 57.6077 129.235 57.5144 127.362C57.2477 121.942 56.9077 116.579 56.4944 111.272C56.4611 110.852 56.2444 110.695 55.8444 110.802ZM136.224 4.91187C121.474 4.97187 107.314 6.80187 94.3744 11.2819C84.4244 14.7319 76.2744 19.7119 68.8344 27.3219C64.8344 31.4152 61.6277 35.0652 59.2144 38.2719C53.1144 46.3785 46.9044 55.1219 40.5844 64.5019C37.3311 69.3285 34.5411 73.8552 32.2144 78.0819C26.7944 87.9319 33.4544 98.9319 42.2044 104.132C47.6311 107.359 53.0744 107.582 58.5344 104.802C68.2611 99.8619 80.4511 92.6819 95.1044 83.2619C102.114 78.7619 108.724 73.6219 114.554 67.9119C129.964 52.8019 136.024 26.9619 136.914 5.63187C136.918 5.53877 136.904 5.4458 136.871 5.35859C136.838 5.27139 136.788 5.19174 136.723 5.12446C136.659 5.05717 136.581 5.00364 136.496 4.96711C136.41 4.93057 136.318 4.91178 136.224 4.91187ZM26.8144 39.0919C19.7244 49.1119 13.8844 60.0619 8.2344 71.1419C8.20199 71.2073 8.18562 71.2795 8.18662 71.3524C8.18763 71.4254 8.20599 71.4971 8.24019 71.5616C8.27439 71.6261 8.32343 71.6815 8.38329 71.7233C8.44314 71.7651 8.51207 71.792 8.5844 71.8019L28.0844 74.2619C28.4511 74.3085 28.7311 74.1752 28.9244 73.8619C36.1977 62.0885 44.2111 50.3485 52.9644 38.6419C53.2644 38.2419 53.1677 38.0219 52.6744 37.9819C46.2611 37.4085 39.8777 36.9819 33.5244 36.7019C30.8744 36.5819 28.5344 36.6719 26.8144 39.0919ZM67.3844 127.252C76.3511 123.239 84.9211 119.019 93.0944 114.592C94.3877 113.892 95.6277 113.155 96.8144 112.382C98.6444 111.192 98.9144 109.702 98.9744 107.662C99.2011 100.869 99.1911 93.9519 98.9444 86.9119C98.9311 86.5385 98.7677 86.4552 98.4544 86.6619C86.3277 94.6485 73.9744 102.029 61.3944 108.802C61.2959 108.856 61.215 108.936 61.1618 109.032C61.1085 109.127 61.0851 109.235 61.0944 109.342L62.4744 128.972C62.4806 129.041 62.5034 129.107 62.5405 129.165C62.5777 129.223 62.6282 129.271 62.6875 129.304C62.7468 129.338 62.8131 129.356 62.8806 129.357C62.9481 129.359 63.0147 129.343 63.0744 129.312C64.4611 128.605 65.8977 127.919 67.3844 127.252Z" fill="#3A3B3D"/>
<path d="M113.385 40.6494C113.385 42.526 113.015 44.3842 112.297 46.1179C111.579 47.8517 110.526 49.427 109.199 50.7539C107.872 52.0809 106.297 53.1335 104.563 53.8516C102.829 54.5698 100.971 54.9394 99.0947 54.9394C95.3047 54.9394 91.67 53.4338 88.9901 50.7539C86.3102 48.074 84.8047 44.4393 84.8047 40.6494C84.8047 36.8594 86.3102 33.2247 88.9901 30.5448C91.67 27.8649 95.3047 26.3594 99.0947 26.3594C100.971 26.3594 102.829 26.729 104.563 27.4471C106.297 28.1653 107.872 29.2179 109.199 30.5448C110.526 31.8718 111.579 33.4471 112.297 35.1808C113.015 36.9146 113.385 38.7728 113.385 40.6494ZM108.625 40.6494C108.625 38.1219 107.621 35.6979 105.833 33.9107C104.046 32.1234 101.622 31.1194 99.0947 31.1194C96.5672 31.1194 94.1432 32.1234 92.356 33.9107C90.5687 35.6979 89.5647 38.1219 89.5647 40.6494C89.5647 41.9009 89.8112 43.1401 90.2901 44.2963C90.769 45.4526 91.471 46.5032 92.356 47.3881C93.2409 48.273 94.2915 48.975 95.4477 49.4539C96.6039 49.9329 97.8432 50.1794 99.0947 50.1794C100.346 50.1794 101.585 49.9329 102.742 49.4539C103.898 48.975 104.948 48.273 105.833 47.3881C106.718 46.5032 107.42 45.4526 107.899 44.2963C108.378 43.1401 108.625 41.9009 108.625 40.6494Z" fill="#3A3B3D"/>
<path d="M99.0945 50.185C104.358 50.185 108.624 45.9183 108.624 40.655C108.624 35.3917 104.358 31.125 99.0945 31.125C93.8312 31.125 89.5645 35.3917 89.5645 40.655C89.5645 45.9183 93.8312 50.185 99.0945 50.185Z" fill="#FFBA4A"/>
<path d="M21.6835 125.01L9.64352 129.04C9.02853 129.247 8.36718 129.273 7.73797 129.114C7.10876 128.956 6.53812 128.621 6.09381 128.148C5.6495 127.676 5.35017 127.085 5.23135 126.448C5.11254 125.81 5.17924 125.151 5.42352 124.55L10.3435 112.47C10.3651 112.42 10.3734 112.365 10.3676 112.31C10.3618 112.256 10.3422 112.203 10.3104 112.157C10.2787 112.112 10.2358 112.074 10.1857 112.049C10.1357 112.023 10.0799 112.01 10.0235 112.01C8.56353 112.03 7.00686 112.147 5.35352 112.36C1.59352 112.84 -1.31647 110.53 0.613526 106.6C4.16686 99.3669 9.27686 93.0102 15.9435 87.5302C17.2635 86.4602 19.1435 86.1002 20.5535 87.2002C22.2035 88.4902 21.7235 91.0702 22.1335 92.9802C23.3735 98.6602 27.8035 104.12 33.0235 108.89C36.9102 112.444 41.0235 114.434 45.3635 114.86C46.2169 114.94 46.9269 115.274 47.4935 115.86C49.1935 117.58 48.2835 119.69 46.8635 121.21C41.1569 127.297 34.4335 131.934 26.6935 135.12C23.8435 136.3 21.3735 134.12 21.7435 131.18C21.9902 129.167 22.1835 127.277 22.3235 125.51C22.3635 125.024 22.1502 124.857 21.6835 125.01ZM15.7335 111.11C14.7835 115.16 12.6135 119.19 11.1135 123.07C11.0902 123.129 11.0847 123.193 11.0977 123.255C11.1107 123.317 11.1417 123.373 11.1869 123.419C11.2321 123.464 11.2897 123.496 11.3529 123.51C11.4161 123.524 11.4823 123.521 11.5435 123.5C15.2369 122.18 18.9102 120.924 22.5635 119.73C25.5335 118.77 27.6235 120.92 27.2735 123.84C27.0402 125.814 26.8335 127.677 26.6535 129.43C26.6469 129.502 26.6593 129.574 26.6894 129.639C26.7195 129.705 26.7663 129.761 26.8251 129.803C26.8839 129.844 26.9526 129.87 27.0243 129.876C27.096 129.883 27.1682 129.87 27.2335 129.84C32.7135 127.114 37.4935 123.78 41.5735 119.84C41.9869 119.44 41.9169 119.167 41.3635 119.02C31.1735 116.34 19.2635 103.75 17.3135 93.1302C17.3046 93.0815 17.2829 93.0361 17.2507 92.9985C17.2185 92.9609 17.1769 92.9325 17.1301 92.9163C17.0834 92.9 17.0331 92.8965 16.9845 92.9059C16.936 92.9154 16.8907 92.9376 16.8535 92.9702C12.2335 97.2302 8.53686 101.897 5.76353 106.97C5.73378 107.029 5.71953 107.095 5.72218 107.161C5.72484 107.227 5.74431 107.291 5.77867 107.347C5.81303 107.402 5.86109 107.448 5.91807 107.478C5.97505 107.508 6.03898 107.523 6.10352 107.52C8.04352 107.447 10.1335 107.394 12.3735 107.36C14.4535 107.34 16.2235 108.99 15.7335 111.11Z" fill="#3A3B3D"/>
<path d="M11.1143 123.076C12.6143 119.196 14.7843 115.166 15.7343 111.116C16.2243 108.996 14.4543 107.346 12.3743 107.366C10.1343 107.399 8.04431 107.452 6.10431 107.526C6.03976 107.528 5.97584 107.514 5.91885 107.483C5.86187 107.453 5.81382 107.408 5.77946 107.352C5.7451 107.297 5.72563 107.233 5.72297 107.167C5.72031 107.101 5.73457 107.035 5.76431 106.976C8.53765 101.902 12.2343 97.2357 16.8543 92.9757C16.8915 92.9431 16.9367 92.9209 16.9853 92.9114C17.0339 92.902 17.0841 92.9055 17.1309 92.9218C17.1777 92.938 17.2193 92.9664 17.2515 93.004C17.2837 93.0416 17.3054 93.087 17.3143 93.1357C19.2643 103.756 31.1743 116.346 41.3643 119.026C41.9176 119.172 41.9876 119.446 41.5743 119.846C37.4943 123.786 32.7143 127.119 27.2343 129.846C27.1689 129.876 27.0968 129.888 27.0251 129.882C26.9534 129.875 26.8847 129.85 26.8259 129.808C26.7671 129.767 26.7203 129.71 26.6902 129.645C26.6601 129.58 26.6477 129.507 26.6543 129.436C26.8343 127.682 27.041 125.819 27.2743 123.846C27.6243 120.926 25.5343 118.776 22.5643 119.736C18.911 120.929 15.2376 122.186 11.5443 123.506C11.4831 123.527 11.4169 123.53 11.3537 123.516C11.2905 123.501 11.2329 123.469 11.1877 123.424C11.1425 123.379 11.1115 123.322 11.0985 123.26C11.0855 123.199 11.091 123.135 11.1143 123.076Z" fill="#FFBA4A"/>
</svg>
