<svg width="134" height="155" viewBox="0 0 134 155" fill="none" xmlns="http://www.w3.org/2000/svg">
<path d="M93.5005 25.12C93.5643 25.272 93.6791 25.3971 93.8251 25.4737C93.971 25.5504 94.1391 25.5738 94.3005 25.54C101.907 23.88 108.897 23.6 115.27 24.7C126.31 26.61 133.51 34.34 133.11 45.76C132.73 56.76 126.3 68.36 119.43 77.06C119.305 77.2156 119.237 77.4088 119.237 77.6073C119.237 77.8057 119.305 77.9974 119.43 78.15C127.53 88.42 135.86 103.77 132.24 116.73C128.66 129.58 113.64 132.24 102.33 130.95C99.4105 130.617 96.7338 130.207 94.3005 129.72C93.8938 129.64 93.6138 129.79 93.4605 130.17C90.1105 138.18 84.7904 146.92 77.2904 151.45C59.7004 162.07 45.9905 143.96 40.1505 130.06C40.0105 129.72 39.7638 129.593 39.4104 129.68C33.4571 131.04 27.7638 131.513 22.3305 131.1C8.04048 130.03 -1.33955 121.02 0.860452 105.91C2.32045 95.89 7.92047 86.21 14.1905 78.05C14.4171 77.7567 14.4171 77.4634 14.1905 77.17C8.70047 70.04 4.03046 61.88 1.68046 53.23C-1.12954 42.9 1.01049 32.37 11.0205 27.18C19.3205 22.87 30.2005 23.47 39.3305 25.46C39.7438 25.5467 40.0372 25.3967 40.2105 25.01C42.8005 19.13 45.9605 13.61 50.3005 8.84004C56.8505 1.66004 66.0905 -1.86996 75.2605 2.67004C83.8405 6.92004 89.8405 16.37 93.5005 25.12ZM67.4104 35.26C73.9604 31.7 81.3305 28.97 88.4605 26.92C88.5235 26.9015 88.5819 26.8697 88.6316 26.8268C88.6814 26.7838 88.7213 26.7307 88.7488 26.671C88.7762 26.6113 88.7906 26.5464 88.7909 26.4807C88.7912 26.415 88.7774 26.35 88.7505 26.29C84.0205 16 74.2504 0.380039 60.4104 7.02004C53.4204 10.38 48.1705 18.91 44.9905 26.28C44.8371 26.6267 44.9471 26.8534 45.3205 26.96C52.0138 28.78 59.0538 31.5534 66.4405 35.28C66.7671 35.4467 67.0904 35.44 67.4104 35.26ZM5.48045 42.66C4.52045 53.35 10.9205 64.75 17.4505 73.34C17.6171 73.56 17.7872 73.5667 17.9605 73.36C22.0938 68.48 26.4838 64.0067 31.1305 59.94C31.4455 59.6638 31.6453 59.2783 31.6905 58.86C32.7705 49.04 34.8671 39.6267 37.9804 30.62C38.0029 30.556 38.011 30.4877 38.004 30.42C37.997 30.3523 37.9752 30.2868 37.94 30.2278C37.9049 30.1689 37.8572 30.118 37.8003 30.0787C37.7434 30.0394 37.6786 30.0126 37.6105 30C30.6005 28.78 23.7305 28.04 16.8005 29.96C10.6905 31.65 6.07045 36.15 5.48045 42.66ZM122.26 64.21C128.78 52.75 133.69 34.26 116.28 29.83C109.69 28.16 103.05 28.61 96.0905 29.98C96.0215 29.993 95.9561 30.0209 95.8988 30.0618C95.8416 30.1028 95.7939 30.1559 95.7588 30.2176C95.7237 30.2792 95.7021 30.3479 95.6955 30.4191C95.6889 30.4903 95.6974 30.5622 95.7204 30.63C98.8538 39.8167 100.937 49.2234 101.97 58.85C102.009 59.2102 102.18 59.5448 102.45 59.79C107.137 63.9767 111.537 68.5 115.65 73.36C115.924 73.68 116.184 73.67 116.43 73.33C118.497 70.4434 120.44 67.4034 122.26 64.21ZM72.5404 37.91C72.1471 38.0834 72.1371 38.2734 72.5105 38.48C80.8238 43.06 88.6271 48.3367 95.9204 54.31C96.4004 54.7034 96.5938 54.5934 96.5005 53.98C95.2605 46.1867 93.4038 38.7767 90.9305 31.75C90.8759 31.5992 90.7658 31.4749 90.6227 31.4025C90.4796 31.33 90.3143 31.3148 90.1604 31.36C84.6871 32.98 78.8138 35.1634 72.5404 37.91ZM61.0805 37.95C55.3105 35.46 49.6905 33.24 43.4905 31.45C43.0771 31.33 42.8038 31.4734 42.6704 31.88C40.1838 39.3134 38.3571 46.7034 37.1905 54.05C37.1105 54.57 37.2738 54.6667 37.6805 54.34C45.0205 48.4334 52.8305 43.1534 61.1105 38.5C61.1595 38.4712 61.1997 38.4295 61.2265 38.3794C61.2534 38.3292 61.266 38.2727 61.2629 38.2159C61.2598 38.1591 61.2411 38.1043 61.209 38.0574C61.1768 38.0105 61.1324 37.9734 61.0805 37.95ZM96.9005 61.24C87.6405 53.31 77.8004 46.69 67.2204 41.01C66.9138 40.85 66.6105 40.85 66.3105 41.01C56.2105 46.4434 46.8371 52.7934 38.1905 60.06C37.0105 61.06 36.1405 61.52 36.0005 63.26C35.2205 73.5 35.2338 83.0534 36.0404 91.92C36.1204 92.72 36.3005 93.53 36.9505 94.08C46.0371 101.847 55.8638 108.563 66.4305 114.23C66.5353 114.288 66.6536 114.319 66.7742 114.319C66.8949 114.319 67.014 114.288 67.1205 114.23C77.8405 108.537 87.8005 101.753 97.0005 93.8801C97.2671 93.6467 97.4205 93.3534 97.4605 93C98.5272 82.9934 98.5405 72.79 97.5005 62.39C97.4553 61.941 97.2403 61.5288 96.9005 61.24ZM30.5305 88.3501C30.5755 88.3977 30.6336 88.4309 30.6975 88.4454C30.7614 88.4599 30.8282 88.4551 30.8894 88.4315C30.9505 88.4079 31.0032 88.3666 31.0408 88.3129C31.0784 88.2592 31.0992 88.1956 31.1004 88.1301L31.0605 67.0201C31.0612 66.9537 31.0418 66.8886 31.005 66.8334C30.9681 66.7782 30.9155 66.7353 30.854 66.7105C30.7924 66.6857 30.7248 66.68 30.66 66.6942C30.5951 66.7083 30.536 66.7418 30.4905 66.79L20.8005 77.39C20.7463 77.4505 20.7164 77.5289 20.7164 77.61C20.7164 77.6912 20.7463 77.7695 20.8005 77.83L30.5305 88.3501ZM103.51 67.09C103.463 67.0377 103.402 67.0009 103.333 66.9842C103.265 66.9676 103.193 66.972 103.127 66.9968C103.061 67.0217 103.004 67.0658 102.964 67.1235C102.923 67.1811 102.901 67.2496 102.9 67.3201V87.86C102.901 87.9305 102.923 87.999 102.964 88.0566C103.004 88.1143 103.061 88.1584 103.127 88.1833C103.193 88.2081 103.265 88.2125 103.333 88.1959C103.402 88.1792 103.463 88.1424 103.51 88.09L112.99 77.83C113.052 77.7651 113.086 77.6793 113.086 77.59C113.086 77.5008 113.052 77.415 112.99 77.3501L103.51 67.09ZM96.0105 125.25C108.59 127.65 130.04 127.74 128.17 108.2C127.26 98.72 122.01 89.2801 116.26 81.8201C116.08 81.5801 115.894 81.5767 115.7 81.81C111.74 86.53 107.42 90.9634 102.74 95.11C102.232 95.5675 101.911 96.1982 101.84 96.8801C100.927 106.14 98.8671 115.393 95.6604 124.64C95.6375 124.703 95.6286 124.77 95.6344 124.837C95.6401 124.904 95.6604 124.968 95.6937 125.026C95.727 125.084 95.7727 125.135 95.8274 125.173C95.8821 125.212 95.9446 125.238 96.0105 125.25ZM17.2505 82.0201C11.8505 89.26 6.56047 98.62 5.57047 107.3C3.31047 127.1 23.4504 128.09 37.7204 125.16C37.9804 125.107 38.0705 124.953 37.9905 124.7C34.7771 115.167 32.6904 105.717 31.7304 96.3501C31.6854 95.9512 31.4932 95.581 31.1905 95.31C26.2838 91.01 21.9271 86.5701 18.1205 81.9901C17.8205 81.6367 17.5305 81.6467 17.2505 82.0201ZM72.4104 117.23C78.2004 119.83 84.0605 122.18 90.2105 123.79C90.3574 123.828 90.5136 123.81 90.6486 123.737C90.7836 123.665 90.8877 123.545 90.9405 123.4C93.2871 116.787 95.1405 109.387 96.5005 101.2C96.6071 100.56 96.4138 100.447 95.9204 100.86C88.9938 106.64 81.1505 111.943 72.3905 116.77C72.3495 116.794 72.3158 116.828 72.2931 116.87C72.2703 116.912 72.2594 116.959 72.2615 117.006C72.2635 117.053 72.2785 117.099 72.3047 117.139C72.331 117.178 72.3675 117.21 72.4104 117.23ZM60.7705 117.42C61.4372 117.133 61.4505 116.817 60.8105 116.47C53.0771 112.297 45.3471 107.07 37.6205 100.79C37.2471 100.49 37.0971 100.577 37.1704 101.05C38.3304 108.477 40.1671 115.91 42.6805 123.35C42.7325 123.499 42.8395 123.623 42.9803 123.697C43.121 123.771 43.2852 123.79 43.4405 123.75C48.6538 122.283 54.4305 120.173 60.7705 117.42ZM88.4405 128.23C81.2405 126.21 74.2205 123.38 67.3205 119.99C66.9805 119.823 66.6405 119.827 66.3005 120C59.0471 123.64 52.0705 126.397 45.3705 128.27C44.9705 128.377 44.8538 128.623 45.0205 129.01C48.6605 137.43 55.6105 148.39 65.0605 149.67C76.5005 151.23 84.7805 137.83 88.7405 128.85C88.7669 128.791 88.7799 128.727 88.7788 128.662C88.7777 128.597 88.7623 128.533 88.7339 128.475C88.7054 128.416 88.6645 128.363 88.6139 128.321C88.5632 128.279 88.5041 128.248 88.4405 128.23Z" fill="#3A3B3D"/>
<path d="M67.2195 64.2603C70.3662 59.8403 74.4863 58.2336 79.5796 59.4403C83.0396 60.2603 85.3696 62.3936 86.5696 65.8403C91.3196 79.4703 79.4396 89.8703 68.2596 95.7703C66.5696 96.6603 65.6496 95.8203 64.1996 95.0503C57.0096 91.2403 48.8096 84.6203 46.6796 76.6103C45.3696 71.7203 45.9396 64.8503 50.1896 61.3303C55.2896 57.1103 62.8295 58.8703 66.3495 64.2503C66.6295 64.6703 66.9195 64.6736 67.2195 64.2603ZM66.5596 72.6403C65.7462 72.5269 65.1696 72.0769 64.8296 71.2903C63.1396 67.3803 60.8896 63.1303 55.8896 63.8003C53.8229 64.0736 52.4262 65.1003 51.6996 66.8803C47.3596 77.5803 58.2496 86.3503 66.3996 90.9203C66.6796 91.0736 66.9562 91.0736 67.2295 90.9203C75.3295 86.4403 84.9695 78.7903 82.4695 68.2503C81.8629 65.6769 80.3262 64.2003 77.8596 63.8203C72.7196 63.0503 70.5696 67.4203 68.8096 71.3803C68.6225 71.8064 68.3017 72.1599 67.8957 72.3872C67.4897 72.6146 67.0206 72.7034 66.5596 72.6403Z" fill="#3A3B3D"/>
<path d="M66.5603 72.6407C67.0214 72.7038 67.4905 72.615 67.8965 72.3876C68.3025 72.1603 68.6233 71.8068 68.8103 71.3807C70.5703 67.4207 72.7203 63.0507 77.8603 63.8207C80.327 64.2007 81.8637 65.6773 82.4703 68.2507C84.9703 78.7907 75.3303 86.4407 67.2303 90.9207C66.957 91.074 66.6804 91.074 66.4004 90.9207C58.2504 86.3507 47.3604 77.5807 51.7004 66.8807C52.427 65.1007 53.8237 64.074 55.8904 63.8007C60.8904 63.1307 63.1404 67.3806 64.8304 71.2906C65.1704 72.0773 65.747 72.5273 66.5603 72.6407Z" fill="#FFBA4A"/>
</svg>
