<svg xmlns="http://www.w3.org/2000/svg" version="1.1" xmlns:xlink="http://www.w3.org/1999/xlink" width="24" height="24" x="0" y="0" viewBox="0 0 21 21" style="enable-background:new 0 0 512 512" xml:space="preserve" fill-rule="evenodd"><g><path fill="#00BA00" d="M10.5 1.312a9.189 9.189 0 0 1 0 18.376 9.189 9.189 0 0 1 0-18.376zm-.984 13.126v-2.954H6.562a.987.987 0 0 1-.984-.984c0-.542.442-.984.984-.984h2.954V6.562c0-.542.442-.984.984-.984s.984.443.984.984v2.954h2.954c.542 0 .984.442.984.984a.987.987 0 0 1-.984.984h-2.954v2.954c0 .54-.442.984-.984.984a.986.986 0 0 1-.984-.984z" opacity="1" data-original="#00ba00"></path></g></svg>