<svg xmlns="http://www.w3.org/2000/svg" version="1.1" xmlns:xlink="http://www.w3.org/1999/xlink" width="24" height="24" x="0" y="0" viewBox="0 0 512 512" style="enable-background:new 0 0 512 512" xml:space="preserve"><g><circle cx="256" cy="256" r="256" fill="#F44336" opacity="1" data-original="#f44336"></circle><path fill="#FFFFFF" fill-rule="evenodd" d="M275.631 229.351V105.624a19.628 19.628 0 0 0-39.255 0v123.727a19.628 19.628 0 0 0 39.255 0zM426 256a170 170 0 1 1-256.023-146.644 19.86 19.86 0 0 1 29.91 17.121c0 7.71-3.014 13.922-9.753 17.907A129.854 129.854 0 0 0 126.418 256c0 71.455 58.136 129.586 129.582 129.586S385.592 327.455 385.592 256a129.864 129.864 0 0 0-63.716-111.616 19.411 19.411 0 0 1-9.756-17.084c0-7.807 3.114-14.111 9.994-18.055a19.422 19.422 0 0 1 19.915.113A170.3 170.3 0 0 1 426 256z" opacity="1" data-original="#ffffff"></path></g></svg>