<svg xmlns="http://www.w3.org/2000/svg" version="1.1" xmlns:xlink="http://www.w3.org/1999/xlink" xmlns:svgjs="http://svgjs.com/svgjs" width="20" height="20" x="0" y="0" viewBox="0 0 681.335 681" style="enable-background:new 0 0 512 512" xml:space="preserve"><g><path d="M323.402 598.387h-8.07c-37.844 0-62.125-17.16-85.613-33.774-16.219-11.457-31.528-22.277-49.559-25.281-8.8-1.457-17.558-2.187-26.008-2.187-15.257 0-27.28 2.351-36.062 4.07-5.336 1.047-9.938 1.937-13.442 1.937-3.66 0-7.605-.789-9.335-6.672-1.493-5.105-2.57-10.027-3.622-14.808-2.683-12.281-4.59-19.84-9.73-20.629-60.02-9.27-77.203-21.922-81.031-30.887-.54-1.277-.852-2.57-.918-3.836-.192-3.449 2.234-6.496 5.652-7.047 92.254-15.191 133.629-109.492 135.356-113.492a1.81 1.81 0 0 1 .14-.324c5.653-11.445 6.75-21.383 3.3-29.527-6.331-14.91-26.987-21.47-40.66-25.809-3.335-1.062-6.51-2.059-9.01-3.059-27.278-10.78-29.54-21.843-28.47-27.48 1.828-9.621 14.668-16.32 25.063-16.32 2.844 0 5.347.515 7.457 1.496 12.281 5.738 23.328 8.66 32.879 8.66 13.183 0 18.937-5.543 19.64-6.27-.34-6.242-.75-12.761-1.18-19.5-2.741-43.613-6.16-97.824 7.653-128.753C199.192 6.168 286.891-1.051 312.793-1.051c.66 0 11.36-.113 11.36-.113h1.53c25.95 0 113.852 7.215 155.239 100.004 13.8 30.953 10.379 85.2 7.629 128.781l-.11 1.906c-.386 6.063-.757 11.961-1.07 17.614.668.675 5.961 5.77 17.906 6.226h.008c9.094-.344 19.527-3.25 30.992-8.605 3.348-1.57 7.078-1.899 9.614-1.899 3.89 0 7.816.75 11.078 2.11l.203.082c9.258 3.289 15.336 9.777 15.469 16.562.12 6.395-4.758 15.996-28.688 25.445-2.48.989-5.656 1.989-9.012 3.06-13.691 4.339-34.328 10.898-40.66 25.808-3.449 8.144-2.351 18.07 3.301 29.515.047.117.102.22.152.336 1.715 4 43.043 98.274 135.348 113.485a6.775 6.775 0 0 1 5.66 7.046c-.078 1.29-.402 2.59-.949 3.86-3.813 8.898-20.973 21.535-81 30.8-4.914.758-6.82 7.153-9.742 20.56-1.067 4.87-2.14 9.663-3.621 14.702-1.282 4.375-4.004 6.418-8.598 6.418h-.738c-3.184 0-7.7-.578-13.434-1.703-10.164-1.984-21.558-3.808-36.062-3.808-8.47 0-17.227.73-26.035 2.187-18.004 3-33.301 13.797-49.493 25.242-23.523 16.653-47.808 33.817-85.668 33.817" fill="#000000" data-original="#000000"></path></g></svg>