<svg xmlns="http://www.w3.org/2000/svg" version="1.1" xmlns:xlink="http://www.w3.org/1999/xlink" xmlns:svgjs="http://svgjs.com/svgjs" width="20" height="20" x="0" y="0" viewBox="0 0 100 100" style="enable-background:new 0 0 512 512" xml:space="preserve"><g><path d="M50 93.4C26.1 93.4 6.6 73.9 6.6 50S26.1 6.6 50 6.6 93.4 26.1 93.4 50 73.9 93.4 50 93.4zm0-82.8c-21.7 0-39.4 17.7-39.4 39.4S28.3 89.4 50 89.4 89.4 71.7 89.4 50 71.7 10.6 50 10.6zm0 76c-1.1 0-2-.9-2-2v-5.9c0-1.1.9-2 2-2s2 .9 2 2v5.9c0 1.1-.9 2-2 2zm24.5-10.1c-.5 0-1-.2-1.4-.6l-4.2-4.2c-.8-.8-.8-2 0-2.8s2-.8 2.8 0l4.2 4.2c.8.8.8 2 0 2.8-.4.4-.9.6-1.4.6zm-49 0c-.5 0-1-.2-1.4-.6-.8-.8-.8-2 0-2.8l4.2-4.2c.8-.8 2-.8 2.8 0s.8 2 0 2.8l-4.2 4.2c-.4.4-.9.6-1.4.6zm34.2-12.4c-.5 0-1-.2-1.4-.6l-9.7-9.7c-.4-.4-.6-.9-.6-1.4V29.1c0-1.1.9-2 2-2s2 .9 2 2v22.4l9.1 9.1c.8.8.8 2 0 2.8-.4.5-.9.7-1.4.7zM84.6 52h-5.9c-1.1 0-2-.9-2-2s.9-2 2-2h5.9c1.1 0 2 .9 2 2s-.9 2-2 2zm-63.3 0h-5.9c-1.1 0-2-.9-2-2s.9-2 2-2h5.9c1.1 0 2 .9 2 2s-.9 2-2 2zm49-20.3c-.5 0-1-.2-1.4-.6-.8-.8-.8-2 0-2.8l4.2-4.2c.8-.8 2-.8 2.8 0s.8 2 0 2.8l-4.2 4.2c-.3.4-.9.6-1.4.6zm-40.6 0c-.5 0-1-.2-1.4-.6l-4.2-4.2c-.8-.8-.8-2 0-2.8s2-.8 2.8 0l4.2 4.2c.8.8.8 2 0 2.8-.4.4-.9.6-1.4.6zM50 23.3c-1.1 0-2-.9-2-2v-5.9c0-1.1.9-2 2-2s2 .9 2 2v5.9c0 1.1-.9 2-2 2z" fill="#000000" data-original="#000000"></path></g></svg>