<svg width="20" height="20" viewBox="0 0 20 20" fill="none" xmlns="http://www.w3.org/2000/svg">
<path d="M3.95617 9.78041C2.67673 9.78041 1.63589 8.74904 1.63589 7.4817C1.63589 6.21424 2.67673 5.18283 3.95617 5.18283C5.23548 5.18283 6.27613 6.21408 6.27613 7.4817C6.27613 8.7492 5.23548 9.78041 3.95617 9.78041ZM3.95617 5.82799C3.03238 5.82799 2.28105 6.56989 2.28105 7.4817C2.28105 8.3934 3.03238 9.13525 3.95617 9.13525C4.87968 9.13525 5.63097 8.3934 5.63097 7.4817C5.63097 6.56989 4.87968 5.82799 3.95617 5.82799ZM4.8896 16.1451H0.843145C0.378226 16.1451 0 15.7693 0 15.3072V14.2521C0 12.092 1.77468 10.3345 3.95617 10.3345C4.81415 10.3345 5.63085 10.6022 6.31726 11.1087C6.38609 11.1595 6.43193 11.2356 6.44468 11.3202C6.45744 11.4048 6.43607 11.491 6.38528 11.5599C6.33445 11.6287 6.2584 11.6745 6.17382 11.6872C6.08924 11.7 6.00306 11.6787 5.93419 11.628C5.35944 11.204 4.67552 10.9796 3.95617 10.9796C2.13048 10.9796 0.645161 12.4478 0.645161 14.2521V15.3072C0.645161 15.4134 0.733992 15.4999 0.843145 15.4999H4.88976C5.06774 15.4999 5.21234 15.6443 5.21234 15.8225C5.21234 16.0005 5.06774 16.145 4.8896 16.145V16.1451ZM19.1569 15.9009H15.1104C14.9324 15.9009 14.7878 15.7565 14.7878 15.5784C14.7878 15.4004 14.9324 15.2558 15.1104 15.2558H19.157C19.2662 15.2558 19.355 15.1695 19.355 15.0633V14.0082C19.355 12.2036 17.8697 10.7357 16.044 10.7357C15.2815 10.7357 14.5371 10.9983 13.9478 11.4752C13.8095 11.5872 13.6065 11.5659 13.4942 11.4275C13.3822 11.289 13.4033 11.0859 13.5421 10.9737C14.2457 10.4043 15.1342 10.0905 16.044 10.0905C18.2253 10.0905 20 11.8479 20 14.0082V15.0633C20 15.5251 19.6218 15.9009 19.1569 15.9009ZM16.0438 9.62102C14.7645 9.62102 13.7239 8.58981 13.7239 7.32231C13.7239 6.05481 14.7645 5.02344 16.0438 5.02344C17.3233 5.02344 18.3641 6.05469 18.3641 7.32231C18.3641 8.58993 17.3231 9.62102 16.0438 9.62102ZM16.0438 5.6686C15.1203 5.6686 14.369 6.41049 14.369 7.32231C14.369 8.23412 15.1203 8.97586 16.0438 8.97586C16.9676 8.97586 17.719 8.23412 17.719 7.32231C17.719 6.41049 16.9675 5.6686 16.0438 5.6686Z" fill="black"/>
<path d="M14.3775 17.1935H5.62124C5.03955 17.1935 4.56641 16.7239 4.56641 16.1464V14.6624C4.56641 11.6965 7.00338 9.28355 9.99939 9.28355C12.9954 9.28355 15.4324 11.6965 15.4324 14.6624V16.1464C15.4324 16.7238 14.9592 17.1935 14.3775 17.1935ZM9.99939 9.92887C7.35935 9.92887 5.21157 12.0524 5.21157 14.6625V16.1466C5.21157 16.3682 5.39536 16.5485 5.62124 16.5485H14.3774C14.6033 16.5485 14.7871 16.3682 14.7871 16.1466V14.6625C14.7872 12.0524 12.6394 9.92887 9.99939 9.92887ZM9.88725 8.90661C8.24346 8.90661 6.90588 7.58181 6.90588 5.95315C6.90588 4.32468 8.24334 3 9.88729 3C11.5314 3 12.8688 4.3248 12.8688 5.95331C12.8688 7.58194 11.5312 8.90661 9.88729 8.90661H9.88725ZM9.88725 3.64516C8.59911 3.64516 7.55104 4.68064 7.55104 5.95331C7.55104 7.22617 8.59911 8.26161 9.88725 8.26161C11.1755 8.26161 12.2236 7.22613 12.2236 5.95331C12.2236 4.68064 11.1755 3.64516 9.88729 3.64516H9.88725Z" fill="black"/>
</svg>
