<svg width="24" height="24" viewBox="0 0 24 24" fill="none" xmlns="http://www.w3.org/2000/svg">
<g clip-path="url(#clip0_1601_1027)">
<path d="M11.8603 11.5609C13.4485 11.5609 14.8238 10.9913 15.9475 9.86733C17.0713 8.74364 17.6409 7.3687 17.6409 5.7803C17.6409 4.19236 17.0713 2.81728 15.9473 1.69317C14.8234 0.569625 13.4483 0 11.8603 0C10.2718 0 8.89682 0.569625 7.77313 1.69336C6.64944 2.81709 6.07958 4.19222 6.07958 5.7803C6.07958 7.3687 6.6494 8.74383 7.77332 9.86756C8.89724 10.9911 10.2724 11.5609 11.8603 11.5609ZM21.9748 18.4548C21.9424 17.9872 21.8768 17.477 21.7803 16.9384C21.6829 16.3956 21.5575 15.8826 21.4073 15.4136C21.2523 14.9289 21.0413 14.4503 20.7806 13.9916C20.51 13.5156 20.1921 13.101 19.8354 12.7599C19.4624 12.403 19.0057 12.1161 18.4776 11.9068C17.9514 11.6986 17.3682 11.5932 16.7444 11.5932C16.4994 11.5932 16.2625 11.6937 15.8049 11.9916C15.4796 12.2034 15.1534 12.4137 14.8262 12.6225C14.5118 12.8229 14.0859 13.0106 13.5598 13.1805C13.0466 13.3466 12.5255 13.4308 12.0111 13.4308C11.4968 13.4308 10.9758 13.3466 10.462 13.1805C9.93655 13.0107 9.51064 12.8231 9.19658 12.6227C8.83236 12.39 8.50283 12.1776 8.21699 11.9914C7.75996 11.6935 7.52282 11.5929 7.27785 11.5929C6.6538 11.5929 6.07082 11.6986 5.54474 11.907C5.01702 12.1159 4.56018 12.4028 4.18682 12.7601C3.83033 13.1014 3.51229 13.5157 3.242 13.9916C2.98147 14.4503 2.77054 14.9288 2.61524 15.4138C2.46524 15.8828 2.33985 16.3956 2.24244 16.9384C2.14593 17.4763 2.0804 17.9866 2.04796 18.4554C2.01569 18.9271 1.9997 19.3998 2 19.8726C2 21.1254 2.39825 22.1396 3.1836 22.8876C3.95924 23.6258 4.98552 24.0002 6.23357 24.0002H17.7898C19.0378 24.0002 20.0637 23.6259 20.8395 22.8877C21.6251 22.1402 22.0233 21.1258 22.0233 19.8724C22.0231 19.3889 22.0069 18.9119 21.9748 18.4548Z" fill="#777777"/>
</g>
<defs>
<clipPath id="clip0_1601_1027">
<rect width="24" height="24.0001" fill="white"/>
</clipPath>
</defs>
</svg>
