<svg width="89" height="127" viewBox="0 0 89 127" fill="none" xmlns="http://www.w3.org/2000/svg">
<path d="M31.0895 117.361C28.2195 115.401 28.8195 111.291 29.0595 108.371C29.075 108.188 29.0425 108.005 28.9652 107.84C28.888 107.675 28.7687 107.534 28.6195 107.431C25.7395 105.384 24.2928 102.681 24.2795 99.3205C24.2395 91.8705 21.5495 84.8805 16.7295 79.0105C14.0395 75.7305 10.6995 72.8305 8.37946 69.2805C1.25946 58.3805 -0.923887 46.7372 1.82945 34.3505C8.21945 5.63052 41.6795 -8.88947 66.9695 6.55053C83.1695 16.4505 90.9195 34.4105 87.4695 53.0205C86.3628 59.0205 83.6895 64.9672 79.4495 70.8605C77.2095 73.9905 74.1795 76.4405 71.8095 79.4905C67.0195 85.6405 64.7495 92.2805 64.6795 99.7405C64.6595 102.981 62.8695 105.721 60.2295 107.491C59.9361 107.691 59.8095 107.967 59.8495 108.321C60.2195 111.571 60.7795 115.301 57.7595 117.441C57.4461 117.661 57.2861 117.964 57.2795 118.351C57.2595 119.457 57.2661 120.601 57.2994 121.781C57.3794 124.591 55.2895 126.851 52.4995 126.881C47.6328 126.941 42.4495 126.974 36.9495 126.981C33.9495 126.991 31.5095 124.821 31.6995 121.751C31.7728 120.591 31.7628 119.461 31.6695 118.361C31.6295 117.934 31.4361 117.601 31.0895 117.361ZM59.9894 99.2105C59.9394 89.1405 64.2394 80.1105 71.2094 73.0105C77.2894 66.8005 81.7194 59.4505 82.9594 51.0305C85.0794 36.6505 80.7995 24.5639 70.1195 14.7705C53.4895 -0.479479 26.1395 2.67052 13.0695 21.0205C1.56947 37.1605 3.24945 57.4205 16.5494 71.5405C24.0394 79.4905 28.9895 87.7005 28.9795 98.9205C28.9795 102.381 31.6094 104.541 34.9594 104.541C40.6261 104.547 46.7261 104.571 53.2595 104.611C56.6695 104.631 60.0094 103.141 59.9894 99.2105ZM55.3207 109.796C55.321 109.755 55.3133 109.715 55.298 109.677C55.2827 109.639 55.2601 109.605 55.2315 109.576C55.2029 109.547 55.1689 109.524 55.1314 109.508C55.0938 109.492 55.0536 109.484 55.0129 109.484L34.0734 109.338C33.9912 109.337 33.9121 109.369 33.8536 109.427C33.7951 109.485 33.7619 109.563 33.7613 109.645L33.7382 112.945C33.7379 112.986 33.7456 113.026 33.7609 113.064C33.7763 113.102 33.7988 113.136 33.8274 113.165C33.856 113.194 33.89 113.217 33.9276 113.233C33.9651 113.249 34.0053 113.257 34.0461 113.257L54.9856 113.404C55.0678 113.404 55.1468 113.372 55.2053 113.314C55.2639 113.257 55.2971 113.178 55.2976 113.096L55.3207 109.796ZM52.5339 118.623C52.5337 118.559 52.5211 118.497 52.4968 118.439C52.4724 118.381 52.4369 118.328 52.3922 118.284C52.3474 118.239 52.2944 118.204 52.2361 118.18C52.1777 118.156 52.1153 118.144 52.0523 118.144L36.9923 118.197C36.9293 118.197 36.8669 118.21 36.8088 118.234C36.7506 118.258 36.6979 118.294 36.6535 118.339C36.609 118.383 36.5739 118.436 36.5499 118.495C36.526 118.553 36.5138 118.615 36.514 118.679L36.525 121.799C36.5252 121.862 36.5378 121.924 36.5621 121.982C36.5865 122.04 36.622 122.093 36.6668 122.137C36.7115 122.182 36.7645 122.217 36.8229 122.241C36.8812 122.265 36.9436 122.277 37.0067 122.277L52.0666 122.224C52.1296 122.224 52.192 122.211 52.2501 122.187C52.3083 122.163 52.361 122.127 52.4055 122.082C52.4499 122.038 52.4851 121.985 52.509 121.926C52.5329 121.868 52.5451 121.806 52.5449 121.743L52.5339 118.623Z" fill="#3A3B3D"/>
<path d="M71.2106 73.0093C64.2406 80.1093 59.9406 89.1393 59.9906 99.2093C60.0106 103.139 56.6706 104.629 53.2606 104.609C46.7273 104.569 40.6272 104.546 34.9606 104.539C31.6106 104.539 28.9806 102.379 28.9806 98.9193C28.9906 87.6993 24.0406 79.4893 16.5506 71.5393C3.25058 57.4193 1.5706 37.1593 13.0706 21.0193C26.1406 2.66928 53.4906 -0.480716 70.1206 14.7693C80.8006 24.5626 85.0806 36.6493 82.9606 51.0293C81.7206 59.4493 77.2906 66.7993 71.2106 73.0093ZM17.3606 32.9293C15.3739 37.0893 14.4206 41.616 14.5006 46.5093C14.5093 46.9792 14.6927 47.4288 15.0148 47.7693C15.3369 48.1099 15.7742 48.3168 16.2406 48.3493L16.7006 48.3893C18.1406 48.4893 18.8906 47.8193 18.9506 46.3793C19.6506 30.6393 30.6206 19.1693 46.4506 18.6493C47.0289 18.6329 47.5827 18.4107 48.0131 18.0224C48.4436 17.6341 48.7226 17.1049 48.8006 16.5293C48.9206 15.676 48.2173 14.9026 46.6906 14.2093C46.3363 14.0519 45.9477 13.9866 45.5606 14.0193C32.2406 15.1726 22.8406 21.476 17.3606 32.9293Z" fill="#FFBA4A"/>
</svg>
