<?xml version="1.0" encoding="utf-8"?>
<!-- Generator: Adobe Illustrator 26.0.2, SVG Export Plug-In . SVG Version: 6.00 Build 0)  -->
<svg version="1.1" id="Layer_1" xmlns="http://www.w3.org/2000/svg" xmlns:xlink="http://www.w3.org/1999/xlink" x="0px" y="0px"
	 viewBox="0 0 1000 1000" style="enable-background:new 0 0 1000 1000;" xml:space="preserve">
<style type="text/css">
	.st0{fill:#231BFF;}
</style>
<g id="Layer_2_00000029743276617406992190000000306159932511602877_">
	<g id="Layer_1-2">
		<path class="st0" d="M833.4,501L793,477.5v-46.7c0-13.3-7.1-25.6-18.6-32.2l-32.1-18.5c-11.5-6.6-25.6-6.6-37.1,0L673,398.7
			c-11.5,6.6-18.5,18.9-18.6,32.1v46.8L613.8,501c-11.5,6.6-18.5,18.9-18.6,32.1v37.1c0,13.3,7.1,25.5,18.6,32.1l32.1,18.6
			c11.5,6.6,25.6,6.6,37.1,0l40.5-23.4l0,0l0,0l40.5,23.4c11.5,6.6,25.6,6.6,37.1,0l32.3-18.5c11.5-6.6,18.5-18.9,18.6-32.1v-37.1
			C852,519.9,844.9,507.6,833.4,501 M674.7,430.9c0-6,3.2-11.6,8.4-14.6l32.2-18.6c5.2-3,11.7-3,16.9,0l32.2,18.6
			c5.2,3,8.4,8.6,8.4,14.6V466L745,450c-13.2-7.6-29.4-7.6-42.6,0l-27.7,16L674.7,430.9z M673,603.4c-5.2,3-11.7,3-16.9,0L624,584.8
			c-5.2-3-8.5-8.6-8.5-14.6v-37.1c0-6,3.2-11.6,8.4-14.6l30.5-17.6v32.2c0,15.2,8.1,29.3,21.2,37l27.6,15.9L673,603.4z M723.7,574.3
			l-37.8-21.8c-6.9-4-11.2-11.4-11.2-19.4v-43.8l37.8-21.8c6.9-4,15.5-4,22.4,0l37.8,21.8v43.7c0,8-4.3,15.4-11.2,19.4L723.7,574.3z
			 M831.9,570.2c0,6-3.2,11.6-8.5,14.6l-32.2,18.6c-5.2,3-11.7,3-16.9,0L744,585.9l27.7-15.8c13.2-7.6,21.3-21.7,21.3-36.9v-32.3
			l30.5,17.6c5.2,3,8.5,8.6,8.5,14.6L831.9,570.2z"/>
		<path class="st0" d="M260.9,509.5c0,2.7,2.2,4.9,4.9,4.9c2.7,0,4.9-2.2,4.9-4.9s-2.2-4.9-4.9-4.9c0,0,0,0,0,0
			C263.1,504.6,261,506.8,260.9,509.5"/>
		<rect x="353.5" y="452.3" class="st0" width="8.5" height="45"/>
		<path class="st0" d="M199.9,497.3v-25.5h-4.1c-5.1,0-8,4.2-8,9.1v16.3h-22.3c-4.5,0.2-8.9-1.6-12.1-4.7c-2.9-3.2-4.5-7.3-4.4-11.6
			c-0.1-4.3,1.5-8.4,4.4-11.5l6.2,5.2c-1.4,1.8-2.1,4.1-2.1,6.3c-0.1,2.3,0.7,4.6,2.1,6.4c1.4,1.8,3.6,2.8,5.9,2.7h13.8v-9.2
			c-0.3-8.7,6.6-16,15.3-16.3c0.4,0,0.8,0,1.2,0h12.6v25.5h29.8c-0.4-1.2-0.7-2.5-0.7-3.8v-5.4c0.1-2.3-0.7-4.5-2.1-6.3
			c-2.8-3.3-7.7-3.6-11-0.8c-0.3,0.3-0.6,0.5-0.8,0.8l-6.2-5.1c6.8-6.5,17.5-6.5,24.3,0c2.9,3.1,4.5,7.2,4.4,11.5v6.2
			c0,1.6,1.3,2.9,2.9,2.9c0,0,0,0,0,0h23.6c-0.4-1.2-0.7-2.5-0.7-3.8v-5.4c0-2.3-0.7-4.5-2.1-6.3c-2.8-3.3-7.7-3.6-11-0.8
			c-0.3,0.3-0.6,0.5-0.8,0.8l-6.2-5.1c6.8-6.5,17.5-6.5,24.3,0c2.9,3.1,4.5,7.2,4.4,11.5v6.2c0,1.6,1.3,2.9,2.9,2.9h2.1v7.3
			L199.9,497.3z"/>
		<path class="st0" d="M170.2,509.5c0-2.7-2.2-4.9-4.9-4.9c-2.7,0-4.9,2.2-4.9,4.9c0,2.7,2.2,4.9,4.9,4.9l0,0
			C168,514.4,170.2,512.2,170.2,509.5"/>
		<path class="st0" d="M395.9,463.1c2.7,0,4.9-2.2,5-4.9c0-2.7-2.2-4.9-4.9-5c-2.7,0-4.9,2.2-5,4.9c0,0,0,0,0,0
			C391,460.9,393.2,463.1,395.9,463.1"/>
		<path class="st0" d="M179.4,504.6c-2.7,0-4.9,2.2-4.9,4.9s2.2,4.9,4.9,4.9s4.9-2.2,4.9-4.9S182.2,504.6,179.4,504.6"/>
		<path class="st0" d="M414.6,464.5c-8.7-0.4-16.1,6.4-16.5,15.1c0,0.4,0,0.8,0,1.2c0,3.2,0.8,6.4,2.5,9.1h-11.2
			c-2.3,0.1-4.5-0.9-5.9-2.7c-1.4-1.8-2.1-4.1-2.1-6.4c0-2.3,0.7-4.5,2.1-6.3l-6.1-5.1c-5.9,6.6-5.9,16.5,0,23.1
			c3.2,3.2,7.6,5,12.1,4.9h25.2c9.1,0,16.4-7.3,16.4-16.4S423.6,464.5,414.6,464.5 M414.6,490c-5.1,0-8-4.2-8-9.1
			c0-4.9,2.7-9.1,8-9.1c4.5,0,8.2,3.6,8.2,8.1c0,0.3,0,0.6,0,0.9c0,4.9-2.9,9.1-8,9.1"/>
		<path class="st0" d="M529.7,464.5c-8.7-0.4-16.1,6.4-16.5,15.1c0,0.4,0,0.8,0,1.2c0,3.2,0.8,6.4,2.5,9.1h-10.9
			c-0.7,0-1.3-0.3-1.6-1c1.1-2.1,1.7-4.4,1.8-6.8c0.3-8.8-6.6-16.1-15.4-16.3c-0.4,0-0.8,0-1.2,0c-8.1,0.1-15.6,4-20.4,10.5v-7.9
			h-7.9V490h-9.3c-1.4,0-1.8-1.1-1.8-2.5v-20h-8.5V495c0,4.9-2.9,9.1-8,9.1v7.3c8.7,0.4,16.1-6.4,16.5-15.1c0-0.2,0-0.4,0-0.7
			c0.8,1.1,2.1,1.7,3.4,1.7H491c3.3-0.1,6.5-1.4,8.9-3.8c1.3,2.4,3.8,3.8,6.5,3.8h23.3c9.1,0,16.4-7.3,16.4-16.4
			C546.1,471.8,538.7,464.5,529.7,464.5 M488.4,490h-19.2c3.8-9.2,10.9-16.8,19.3-16.8c5.1,0,8,4.2,8,9.1c0.3,4-2.6,7.5-6.6,7.8
			C489.4,490.1,488.9,490.1,488.4,490 M529.6,490c-5.1,0-8-4.2-8-9.1c0-4.9,2.9-9.1,8-9.1c4.5,0,8.2,3.6,8.2,8.1c0,0.3,0,0.6,0,0.9
			C537.8,485.8,534.8,490,529.6,490"/>
		<rect x="296" y="452.3" class="st0" width="8.5" height="45"/>
		<path class="st0" d="M337.5,485c0,3.5-1.7,5-4.2,5h-7.2c-1.4,0-1.8-1.1-1.8-2.5v-20h-8.5V495c0,4.9-2.9,9.1-8.2,9.1v7.3
			c8.7,0.4,16.1-6.3,16.5-15.1c0-0.3,0-0.5,0-0.8c0.8,1.1,2.1,1.7,3.4,1.7h6.9c7.5,0,11.1-4.7,11.1-11.9v-33.2h-8.2L337.5,485z"/>
		<path class="st0" d="M381.9,574.4v-50h8.5v19c1.3-1.1,2.8-1.9,4.4-2.5c1.5-0.5,3-0.8,4.6-0.7c5-0.1,9.7,2.1,13,5.8
			c2.9,3.2,4.5,7.5,4.5,11.9c0.1,5-2,9.9-5.8,13.2c-3.2,3-7.4,4.6-11.7,4.6c-1.6,0-3.1-0.2-4.6-0.7c-1.6-0.6-3-1.5-4.4-2.5v2.1
			L381.9,574.4z M399.2,547.8c-2.6-0.1-5.1,1.1-6.7,3.2c-3.1,4.4-2.9,10.3,0.6,14.4c3.6,3.4,9.2,3.2,12.6-0.4
			c0.1-0.1,0.2-0.2,0.3-0.3c1.5-1.9,2.3-4.4,2.2-6.8c0.2-2.8-0.8-5.5-2.7-7.5c-1.6-1.7-3.8-2.6-6.1-2.5"/>
		<path class="st0" d="M456.2,574.4h-8.5v-2.1c-1.3,1-2.8,1.9-4.4,2.5c-1.5,0.5-3,0.8-4.6,0.7c-5,0.1-9.8-2-13-5.8
			c-6.4-7.3-5.9-18.5,1.2-25.1c3.2-2.9,7.4-4.5,11.8-4.4c1.6,0,3.1,0.2,4.6,0.7c1.6,0.6,3,1.4,4.4,2.5v-2.1h8.5L456.2,574.4z
			 M439,547.8c-2.6-0.1-5.2,1.1-6.8,3.2c-1.5,2-2.3,4.4-2.2,6.8c-0.1,2.8,0.9,5.6,2.9,7.6c1.6,1.6,3.9,2.5,6.1,2.4
			c2.6,0.1,5.1-1.1,6.7-3.2c1.5-1.9,2.3-4.4,2.2-6.8c0.2-2.8-0.8-5.5-2.7-7.5C443.6,548.6,441.4,547.7,439,547.8"/>
		<path class="st0" d="M473.5,542.8c1.1-0.9,2.3-1.7,3.7-2.2c1.3-0.5,2.7-0.7,4.1-0.7c1.9,0,3.9,0.4,5.7,1.2
			c1.8,0.7,3.4,1.9,4.7,3.3c2.7,3.4,4,7.7,3.6,12.1v17.9h-8.6V557c0.3-2.6-0.3-5.2-1.6-7.5c-1.1-1.2-2.8-1.9-4.4-1.8
			c-2.1-0.1-4.1,0.7-5.4,2.3c-1.3,2.3-1.9,5-1.6,7.6v16.7H465v-33.2h8.6L473.5,542.8z"/>
		<polygon class="st0" points="521.4,555.1 536.7,574.4 526.2,574.4 515.6,560.8 512.4,563.9 512.4,574.4 503.9,574.4 503.9,524.4 
			512.4,524.4 512.4,553 524.5,541.2 535.8,541.2 		"/>
		<path class="st0" d="M193.6,574.4H185v-2.1c-1.3,1-2.8,1.9-4.4,2.5c-1.5,0.5-3,0.8-4.6,0.7c-5,0.1-9.7-2.1-13-5.8
			c-6.4-7.3-5.9-18.4,1.2-25.1c3.2-2.9,7.4-4.5,11.8-4.4c1.6,0,3.1,0.2,4.6,0.7c1.6,0.6,3,1.4,4.4,2.5v-2.1h8.6V574.4z M176.2,547.8
			c-2.7-0.1-5.2,1.1-6.8,3.2c-1.5,1.9-2.3,4.4-2.2,6.8c-0.2,2.8,0.8,5.5,2.7,7.6c1.6,1.6,3.9,2.5,6.1,2.4c2.7,0.1,5.3-1.1,6.9-3.2
			c1.5-2,2.3-4.4,2.2-6.8c0.2-2.8-0.8-5.5-2.7-7.5C180.8,548.6,178.6,547.7,176.2,547.8"/>
		<rect x="202.3" y="524.4" class="st0" width="8.5" height="50"/>
		<path class="st0" d="M276.3,574.4h-8.6v-2.1c-1.3,1-2.8,1.9-4.4,2.5c-1.5,0.5-3,0.8-4.6,0.7c-4.9,0.1-9.6-2.1-12.8-5.8
			c-6.4-7.3-5.9-18.4,1.2-25.1c3.2-2.9,7.4-4.5,11.7-4.4c1.6,0,3.1,0.2,4.6,0.7c1.6,0.6,3,1.4,4.4,2.5v-2.1h8.5V574.4z M259,547.8
			c-2.7-0.1-5.2,1.1-6.8,3.2c-1.5,2-2.3,4.4-2.2,6.8c-0.1,2.8,0.9,5.6,2.9,7.6c1.6,1.6,3.9,2.5,6.1,2.4c2.6,0.1,5.1-1.1,6.7-3.2
			c1.5-1.9,2.3-4.4,2.2-6.8c0.2-2.8-0.8-5.5-2.7-7.5C263.6,548.6,261.3,547.7,259,547.8"/>
		<path class="st0" d="M290,524.6c1.4,0,2.8,0.5,3.8,1.6c1,1,1.6,2.3,1.6,3.7c0,1.4-0.5,2.8-1.6,3.8c-1,1-2.4,1.5-3.8,1.5
			c-1.4,0-2.8-0.5-3.8-1.5c-1-1-1.6-2.4-1.6-3.8c0-1.4,0.6-2.7,1.6-3.7C287.2,525.1,288.5,524.6,290,524.6"/>
		<path class="st0" d="M311.6,542.8c1.1-0.9,2.3-1.7,3.7-2.2c1.3-0.4,2.7-0.6,4.1-0.5c1.9,0,3.9,0.4,5.7,1.2
			c1.8,0.7,3.4,1.9,4.7,3.3c2.7,3.4,4,7.7,3.6,12.1v17.9h-8.5v-17.3c0.3-2.6-0.3-5.2-1.6-7.5c-1.1-1.2-2.8-1.9-4.4-1.8
			c-2.1-0.1-4.1,0.7-5.4,2.3c-1.3,2.3-1.9,5-1.6,7.6v16.7H303v-50.1h8.6L311.6,542.8z"/>
		<path class="st0" d="M346.2,524.6c1.4,0,2.8,0.5,3.8,1.6c1,1,1.6,2.3,1.6,3.7c0,1.4-0.6,2.8-1.6,3.8c-1,1-2.4,1.5-3.8,1.5
			c-1.4,0-2.8-0.5-3.8-1.5c-1-1-1.6-2.4-1.6-3.8c0-1.4,0.5-2.7,1.6-3.7C343.5,525.1,344.8,524.6,346.2,524.6 M350.5,574.4H342v-33.2
			h8.5V574.4z"/>
		<path class="st0" d="M219,554.4v20.1h8.5V554c0-4.5,2.4-5.9,6.1-5.9h4.8v-7.5h-5.1C223.7,540.6,219,545.8,219,554.4"/>
		<path class="st0" d="M294.2,541.2h-8.5v34.3c0,5-2.9,9.3-8.2,9.3v7.4c9,0.2,16.5-7,16.7-16c0-0.1,0-0.2,0-0.4L294.2,541.2z"/>
	</g>
</g>
</svg>
