<?xml version="1.0" encoding="utf-8"?>
<!-- Generator: Adobe Illustrator 27.2.0, SVG Export Plug-In . SVG Version: 6.00 Build 0)  -->
<svg version="1.1" id="Layer_1" xmlns="http://www.w3.org/2000/svg" xmlns:xlink="http://www.w3.org/1999/xlink" x="0px" y="0px"
	 viewBox="0 0 1000 1000" style="enable-background:new 0 0 1000 1000;" xml:space="preserve">
<style type="text/css">
	.st0{fill:#004433;}
</style>
<g id="surface1">
	<path class="st0" d="M142.3,560.5c0.9-6.3,0.9-12.6,0-18.5c10.8,10,35.7,14.9,56.9,14.9c17.2,0,24.4-3.6,24.4-11.3
		c0-9.9-10.8-10.8-36.6-13.1c-28.5-2.3-45.6-6.8-45.6-23.9c0-17.2,15.3-24.8,47-24.8c17.6,0,34.8,2.3,51.5,6.8
		c-0.9,5.9-0.9,11.7,0,17.6c-16.7-6.8-34.3-10.8-52.4-10.8s-25.3,3.6-25.3,10.8c0,9,9.5,11.3,33,13.1c29.8,2.3,49.2,6.3,49.2,24.4
		c0,16.7-15.8,24.4-47,24.4C178.4,570,159.9,566.8,142.3,560.5"/>
	<path class="st0" d="M280.1,500.9c-0.5,22.6,0,45.6,0.9,68.2h-20.3c0.9-28,0.9-56,0-83.6c9.5,0.9,19,0.9,28.5,0
		c18.1,23,36.6,46.1,56,68.7c0.5-23,0-46.1-0.9-68.7c6.8,0.9,14,0.9,20.8,0c-0.9,28-0.9,56,0.4,83.6h-28
		C318.9,545.6,299.9,523,280.1,500.9"/>
	<path class="st0" d="M405.6,556c9.5,0.5,16.2,0.5,30.7,0.5c20.8,0,26.2-5.9,26.2-12.6c0-6.8-5.4-10.8-25.3-10.8h-32.1
		C405.1,540.7,405.1,548.8,405.6,556 M437.2,522.1c14,0,21.2-4.1,21.2-12.2s-7.7-11.7-21.2-11.7h-32.1c0,7.2-0.5,15.4,0,23.9
		C415.1,521.7,425.9,522.1,437.2,522.1 M384.8,485.1c15.8,0,30.3-0.5,52.4-0.5c27.1,0,42,6.3,42,20.8c0,13.1-12.2,18.5-27.1,19v1.4
		c18.5,0.4,32.5,6.3,32.5,20.8c0,20.3-28.5,22.6-49.2,22.6c-24.4,0-34.8-0.4-50.6-0.4C386.2,547.9,386.2,505.9,384.8,485.1"/>
	<path class="st0" d="M566.4,582.7c-1.8,0-3.6,0.4-5,1.8c-1.3,0.9-1.8,2.7-1.8,4.5c0,1.8,0.5,3.6,1.8,4.5c1.4,1.3,3.2,1.8,5,1.8
		c1.8,0,3.6-0.5,4.5-1.8c1.4-1.4,2.3-2.7,1.8-4.5c0-1.8-0.9-3.2-1.8-4.5C570,583.1,568.2,582.7,566.4,582.7"/>
	<path class="st0" d="M548.3,582.7c-1.8,0-3.6,0.4-5,1.8c-1.3,0.9-1.8,2.7-1.8,4.5c0,1.8,0.5,3.6,1.8,4.5c1.4,1.3,3.2,1.8,5,1.8
		c1.8,0,3.6-0.5,4.5-1.8c1.4-1.4,1.8-2.7,1.8-4.5c0-1.8-0.4-3.2-1.8-4.5C551.5,583.1,549.7,582.7,548.3,582.7"/>
	<path class="st0" d="M710.9,532.1v27.6h-4.1c-13.5,0-16.7-9.5-16.7-13.1C689.7,538.4,696.9,529.8,710.9,532.1 M737.5,506.3
		c-7.7-5.9-17.1-8.6-26.6-8.1c-22.6,0-29.8,12.6-31.2,15.3l9.5,4.1c5-6.8,12.6-10.4,20.8-9.5c21.7,0,24.4,14,24.4,21.2v23.9
		c0,4.1-3.6,7.2-7.7,6.8h-4.5v-33.4c-5-2.3-10.4-3.6-15.3-3.6c-15.4,0-27.6,6.3-27.6,24.4c0,4.5,1.8,9,4.5,12.6h-26.6v-81.7
		l-12.2,4.5v66.4c0,5.9-2.3,10.4-14,10.4h-14c-1.8,0-4.1,0-8.1-6.3l-27.5-47.9l-4.5-7.7c-10.8,6.3-18.1,17.6-19,29.8
		c0.4,6.8,2.7,13.1,6.3,18.5l9.5,13.5h-35.7c-9.5,0-14-5-14-15.8c0.4-6.3,2.3-12.6,6.3-17.6l-7.2-4.5c-5.4,6.8-8.6,15.4-8.6,24.4
		c0,14,8.6,22.6,24.4,22.6h53.3l-16.2-23.5c-6.3-9.9-10.8-19-2.3-30.7c4.5,7.7,25.7,43.8,27.1,45.6c3.6,5.9,9.9,9,16.7,8.6h14.4
		c2.7,0,5.4,0,8.1-0.9c1.8-0.4,3.6-0.9,5.4-1.8v2.3h85.4c8.6,0.5,16.3-6.3,16.7-14.9v-24.8C747.5,520.8,743.9,512.2,737.5,506.3"/>
	<path class="st0" d="M775.5,498.2l23-8.6v-5.9l-11.3,4.1l-1.4-3.2c-0.5-1.4,0-2.7,1.8-3.6c0.5-0.4,1.4-0.4,2.3-0.4s1.4,0.4,1.8,0.9
		l1.3,0.9l1.4-5l-0.9-0.5c-2.7-1.8-6.3-2.3-9.5-0.9c-2.3,0.9-4.5,2.3-5.4,4.5s-0.9,4.5,0.5,6.8l1.4,3.2l-2.3,0.9L775.5,498.2z"/>
	<path class="st0" d="M814.3,550.1c-0.4,5.9-5.4,10.4-11.3,9.9h-7.7v-63.2l-12.2,4.5v58.7h-15.8l-4.1,9h41.5c9,0,21.2-7.7,21.2-19.9
		v-70.9l-12.2,4.5v67.3H814.3z"/>
	<path class="st0" d="M846.8,483.3v85.4h11.7v-89.4L846.8,483.3z"/>
</g>
<g>
	<g>
		<defs>
			<path id="SVGID_1_" d="M199.7,443.1c6.3,9,11.3,18.5,14.4,28.9c6.8-15.3,19-28,33.9-35.2c15.4,7.2,27.1,19.9,33.9,35.2
				c3.2-10.4,8.1-20.3,14.4-28.9c-11.7-16.3-28.9-28.5-48.8-35.2C228.6,414.6,211.8,426.8,199.7,443.1"/>
		</defs>
		
			<linearGradient id="SVGID_00000163068402495840693660000014755747695552649123_" gradientUnits="userSpaceOnUse" x1="247.9778" y1="407.3685" x2="247.9778" y2="468.3848">
			<stop  offset="0" style="stop-color:#007054"/>
			<stop  offset="3.906021e-03" style="stop-color:#007054"/>
			<stop  offset="7.812958e-03" style="stop-color:#017154"/>
			<stop  offset="1.171898e-02" style="stop-color:#027154"/>
			<stop  offset="1.562500e-02" style="stop-color:#027154"/>
			<stop  offset="1.953102e-02" style="stop-color:#037254"/>
			<stop  offset="2.343704e-02" style="stop-color:#037254"/>
			<stop  offset="2.734398e-02" style="stop-color:#047253"/>
			<stop  offset="3.125000e-02" style="stop-color:#047353"/>
			<stop  offset="3.515602e-02" style="stop-color:#057353"/>
			<stop  offset="3.906204e-02" style="stop-color:#057353"/>
			<stop  offset="4.296898e-02" style="stop-color:#067453"/>
			<stop  offset="4.687500e-02" style="stop-color:#067453"/>
			<stop  offset="5.078102e-02" style="stop-color:#077453"/>
			<stop  offset="5.468704e-02" style="stop-color:#077553"/>
			<stop  offset="5.859398e-02" style="stop-color:#087553"/>
			<stop  offset="6.250000e-02" style="stop-color:#087553"/>
			<stop  offset="6.640602e-02" style="stop-color:#097653"/>
			<stop  offset="7.031205e-02" style="stop-color:#097653"/>
			<stop  offset="7.421898e-02" style="stop-color:#0A7653"/>
			<stop  offset="7.812500e-02" style="stop-color:#0A7653"/>
			<stop  offset="8.203102e-02" style="stop-color:#0B7752"/>
			<stop  offset="8.593705e-02" style="stop-color:#0B7752"/>
			<stop  offset="8.984398e-02" style="stop-color:#0C7752"/>
			<stop  offset="9.375000e-02" style="stop-color:#0C7852"/>
			<stop  offset="9.765602e-02" style="stop-color:#0D7852"/>
			<stop  offset="0.1016" style="stop-color:#0D7852"/>
			<stop  offset="0.1055" style="stop-color:#0E7952"/>
			<stop  offset="0.1094" style="stop-color:#0E7952"/>
			<stop  offset="0.1133" style="stop-color:#0F7952"/>
			<stop  offset="0.1172" style="stop-color:#0F7A52"/>
			<stop  offset="0.1211" style="stop-color:#107A52"/>
			<stop  offset="0.125" style="stop-color:#107A52"/>
			<stop  offset="0.1289" style="stop-color:#117B52"/>
			<stop  offset="0.1328" style="stop-color:#117B51"/>
			<stop  offset="0.1367" style="stop-color:#127B51"/>
			<stop  offset="0.1406" style="stop-color:#127C51"/>
			<stop  offset="0.1445" style="stop-color:#137C51"/>
			<stop  offset="0.1484" style="stop-color:#137C51"/>
			<stop  offset="0.1523" style="stop-color:#147D51"/>
			<stop  offset="0.1562" style="stop-color:#147D51"/>
			<stop  offset="0.1602" style="stop-color:#157D51"/>
			<stop  offset="0.1641" style="stop-color:#157E51"/>
			<stop  offset="0.168" style="stop-color:#167E51"/>
			<stop  offset="0.1719" style="stop-color:#167E51"/>
			<stop  offset="0.1758" style="stop-color:#177F51"/>
			<stop  offset="0.1797" style="stop-color:#177F51"/>
			<stop  offset="0.1836" style="stop-color:#187F51"/>
			<stop  offset="0.1875" style="stop-color:#188050"/>
			<stop  offset="0.1914" style="stop-color:#198050"/>
			<stop  offset="0.1953" style="stop-color:#198050"/>
			<stop  offset="0.1992" style="stop-color:#1A8150"/>
			<stop  offset="0.2031" style="stop-color:#1A8150"/>
			<stop  offset="0.207" style="stop-color:#1B8150"/>
			<stop  offset="0.2109" style="stop-color:#1B8250"/>
			<stop  offset="0.2148" style="stop-color:#1C8250"/>
			<stop  offset="0.2188" style="stop-color:#1C8250"/>
			<stop  offset="0.2227" style="stop-color:#1D8250"/>
			<stop  offset="0.2266" style="stop-color:#1D8350"/>
			<stop  offset="0.2305" style="stop-color:#1E8350"/>
			<stop  offset="0.2344" style="stop-color:#1F8350"/>
			<stop  offset="0.2383" style="stop-color:#1F844F"/>
			<stop  offset="0.2422" style="stop-color:#20844F"/>
			<stop  offset="0.2461" style="stop-color:#20844F"/>
			<stop  offset="0.25" style="stop-color:#21854F"/>
			<stop  offset="0.2539" style="stop-color:#21854F"/>
			<stop  offset="0.2578" style="stop-color:#22854F"/>
			<stop  offset="0.2617" style="stop-color:#22864F"/>
			<stop  offset="0.2656" style="stop-color:#23864F"/>
			<stop  offset="0.2695" style="stop-color:#23864F"/>
			<stop  offset="0.2734" style="stop-color:#24874F"/>
			<stop  offset="0.2773" style="stop-color:#24874F"/>
			<stop  offset="0.2812" style="stop-color:#25874F"/>
			<stop  offset="0.2852" style="stop-color:#25884F"/>
			<stop  offset="0.2891" style="stop-color:#26884E"/>
			<stop  offset="0.293" style="stop-color:#26884E"/>
			<stop  offset="0.2969" style="stop-color:#27894E"/>
			<stop  offset="0.3008" style="stop-color:#27894E"/>
			<stop  offset="0.3047" style="stop-color:#28894E"/>
			<stop  offset="0.3086" style="stop-color:#288A4E"/>
			<stop  offset="0.3125" style="stop-color:#298A4E"/>
			<stop  offset="0.3164" style="stop-color:#298A4E"/>
			<stop  offset="0.3203" style="stop-color:#2A8B4E"/>
			<stop  offset="0.3242" style="stop-color:#2A8B4E"/>
			<stop  offset="0.3281" style="stop-color:#2B8B4E"/>
			<stop  offset="0.332" style="stop-color:#2B8C4E"/>
			<stop  offset="0.3359" style="stop-color:#2C8C4E"/>
			<stop  offset="0.3398" style="stop-color:#2C8C4E"/>
			<stop  offset="0.3438" style="stop-color:#2D8D4D"/>
			<stop  offset="0.3477" style="stop-color:#2D8D4D"/>
			<stop  offset="0.3516" style="stop-color:#2E8D4D"/>
			<stop  offset="0.3555" style="stop-color:#2E8E4D"/>
			<stop  offset="0.3594" style="stop-color:#2F8E4D"/>
			<stop  offset="0.3633" style="stop-color:#2F8E4D"/>
			<stop  offset="0.3672" style="stop-color:#308F4D"/>
			<stop  offset="0.3711" style="stop-color:#308F4D"/>
			<stop  offset="0.375" style="stop-color:#318F4D"/>
			<stop  offset="0.3789" style="stop-color:#318F4D"/>
			<stop  offset="0.3828" style="stop-color:#32904D"/>
			<stop  offset="0.3867" style="stop-color:#32904D"/>
			<stop  offset="0.3906" style="stop-color:#33904D"/>
			<stop  offset="0.3945" style="stop-color:#33914C"/>
			<stop  offset="0.3984" style="stop-color:#34914C"/>
			<stop  offset="0.4023" style="stop-color:#34914C"/>
			<stop  offset="0.4062" style="stop-color:#35924C"/>
			<stop  offset="0.4102" style="stop-color:#35924C"/>
			<stop  offset="0.4141" style="stop-color:#36924C"/>
			<stop  offset="0.418" style="stop-color:#36934C"/>
			<stop  offset="0.4219" style="stop-color:#37934C"/>
			<stop  offset="0.4258" style="stop-color:#37934C"/>
			<stop  offset="0.4297" style="stop-color:#38944C"/>
			<stop  offset="0.4336" style="stop-color:#38944C"/>
			<stop  offset="0.4375" style="stop-color:#39944C"/>
			<stop  offset="0.4414" style="stop-color:#39954C"/>
			<stop  offset="0.4453" style="stop-color:#3A954C"/>
			<stop  offset="0.4492" style="stop-color:#3A954B"/>
			<stop  offset="0.4531" style="stop-color:#3B964B"/>
			<stop  offset="0.457" style="stop-color:#3C964B"/>
			<stop  offset="0.4609" style="stop-color:#3C964B"/>
			<stop  offset="0.4648" style="stop-color:#3D974B"/>
			<stop  offset="0.4688" style="stop-color:#3D974B"/>
			<stop  offset="0.4727" style="stop-color:#3E974B"/>
			<stop  offset="0.4766" style="stop-color:#3E984B"/>
			<stop  offset="0.4805" style="stop-color:#3F984B"/>
			<stop  offset="0.4844" style="stop-color:#3F984B"/>
			<stop  offset="0.4883" style="stop-color:#40994B"/>
			<stop  offset="0.4922" style="stop-color:#40994B"/>
			<stop  offset="0.4961" style="stop-color:#41994B"/>
			<stop  offset="0.5" style="stop-color:#419A4A"/>
			<stop  offset="0.5039" style="stop-color:#429A4A"/>
			<stop  offset="0.5078" style="stop-color:#429A4A"/>
			<stop  offset="0.5117" style="stop-color:#439B4A"/>
			<stop  offset="0.5156" style="stop-color:#439B4A"/>
			<stop  offset="0.5195" style="stop-color:#449B4A"/>
			<stop  offset="0.5234" style="stop-color:#449C4A"/>
			<stop  offset="0.5273" style="stop-color:#459C4A"/>
			<stop  offset="0.5312" style="stop-color:#459C4A"/>
			<stop  offset="0.5352" style="stop-color:#469C4A"/>
			<stop  offset="0.5391" style="stop-color:#469D4A"/>
			<stop  offset="0.543" style="stop-color:#479D4A"/>
			<stop  offset="0.5469" style="stop-color:#479D4A"/>
			<stop  offset="0.5508" style="stop-color:#489E4A"/>
			<stop  offset="0.5547" style="stop-color:#489E49"/>
			<stop  offset="0.5586" style="stop-color:#499E49"/>
			<stop  offset="0.5625" style="stop-color:#499F49"/>
			<stop  offset="0.5664" style="stop-color:#4A9F49"/>
			<stop  offset="0.5703" style="stop-color:#4A9F49"/>
			<stop  offset="0.5742" style="stop-color:#4BA049"/>
			<stop  offset="0.5781" style="stop-color:#4BA049"/>
			<stop  offset="0.582" style="stop-color:#4CA049"/>
			<stop  offset="0.5859" style="stop-color:#4CA149"/>
			<stop  offset="0.5898" style="stop-color:#4DA149"/>
			<stop  offset="0.5938" style="stop-color:#4DA149"/>
			<stop  offset="0.5977" style="stop-color:#4EA249"/>
			<stop  offset="0.6016" style="stop-color:#4EA249"/>
			<stop  offset="0.6055" style="stop-color:#4FA248"/>
			<stop  offset="0.6094" style="stop-color:#4FA348"/>
			<stop  offset="0.6133" style="stop-color:#50A348"/>
			<stop  offset="0.6172" style="stop-color:#50A348"/>
			<stop  offset="0.6211" style="stop-color:#51A448"/>
			<stop  offset="0.625" style="stop-color:#51A448"/>
			<stop  offset="0.6289" style="stop-color:#52A448"/>
			<stop  offset="0.6328" style="stop-color:#52A548"/>
			<stop  offset="0.6367" style="stop-color:#53A548"/>
			<stop  offset="0.6406" style="stop-color:#53A548"/>
			<stop  offset="0.6445" style="stop-color:#54A648"/>
			<stop  offset="0.6484" style="stop-color:#54A648"/>
			<stop  offset="0.6523" style="stop-color:#55A648"/>
			<stop  offset="0.6562" style="stop-color:#55A748"/>
			<stop  offset="0.6602" style="stop-color:#56A747"/>
			<stop  offset="0.6641" style="stop-color:#56A747"/>
			<stop  offset="0.668" style="stop-color:#57A847"/>
			<stop  offset="0.6719" style="stop-color:#57A847"/>
			<stop  offset="0.6758" style="stop-color:#58A847"/>
			<stop  offset="0.6797" style="stop-color:#58A947"/>
			<stop  offset="0.6836" style="stop-color:#59A947"/>
			<stop  offset="0.6875" style="stop-color:#5AA947"/>
			<stop  offset="0.6914" style="stop-color:#5AA947"/>
			<stop  offset="0.6953" style="stop-color:#5BAA47"/>
			<stop  offset="0.6992" style="stop-color:#5BAA47"/>
			<stop  offset="0.7031" style="stop-color:#5CAA47"/>
			<stop  offset="0.707" style="stop-color:#5CAB47"/>
			<stop  offset="0.7109" style="stop-color:#5DAB46"/>
			<stop  offset="0.7148" style="stop-color:#5DAB46"/>
			<stop  offset="0.7188" style="stop-color:#5EAC46"/>
			<stop  offset="0.7227" style="stop-color:#5EAC46"/>
			<stop  offset="0.7266" style="stop-color:#5FAC46"/>
			<stop  offset="0.7305" style="stop-color:#5FAD46"/>
			<stop  offset="0.7344" style="stop-color:#60AD46"/>
			<stop  offset="0.7383" style="stop-color:#60AD46"/>
			<stop  offset="0.7422" style="stop-color:#61AE46"/>
			<stop  offset="0.7461" style="stop-color:#61AE46"/>
			<stop  offset="0.75" style="stop-color:#62AE46"/>
			<stop  offset="0.7539" style="stop-color:#62AF46"/>
			<stop  offset="0.7578" style="stop-color:#63AF46"/>
			<stop  offset="0.7617" style="stop-color:#63AF46"/>
			<stop  offset="0.7656" style="stop-color:#64B045"/>
			<stop  offset="0.7695" style="stop-color:#64B045"/>
			<stop  offset="0.7734" style="stop-color:#65B045"/>
			<stop  offset="0.7773" style="stop-color:#65B145"/>
			<stop  offset="0.7812" style="stop-color:#66B145"/>
			<stop  offset="0.7852" style="stop-color:#66B145"/>
			<stop  offset="0.7891" style="stop-color:#67B245"/>
			<stop  offset="0.793" style="stop-color:#67B245"/>
			<stop  offset="0.7969" style="stop-color:#68B245"/>
			<stop  offset="0.8008" style="stop-color:#68B345"/>
			<stop  offset="0.8047" style="stop-color:#69B345"/>
			<stop  offset="0.8086" style="stop-color:#69B345"/>
			<stop  offset="0.8125" style="stop-color:#6AB445"/>
			<stop  offset="0.8164" style="stop-color:#6AB444"/>
			<stop  offset="0.8203" style="stop-color:#6BB444"/>
			<stop  offset="0.8242" style="stop-color:#6BB544"/>
			<stop  offset="0.8281" style="stop-color:#6CB544"/>
			<stop  offset="0.832" style="stop-color:#6CB544"/>
			<stop  offset="0.8359" style="stop-color:#6DB544"/>
			<stop  offset="0.8398" style="stop-color:#6DB644"/>
			<stop  offset="0.8438" style="stop-color:#6EB644"/>
			<stop  offset="0.8477" style="stop-color:#6EB644"/>
			<stop  offset="0.8516" style="stop-color:#6FB744"/>
			<stop  offset="0.8555" style="stop-color:#6FB744"/>
			<stop  offset="0.8594" style="stop-color:#70B744"/>
			<stop  offset="0.8633" style="stop-color:#70B844"/>
			<stop  offset="0.8672" style="stop-color:#71B843"/>
			<stop  offset="0.8711" style="stop-color:#71B843"/>
			<stop  offset="0.875" style="stop-color:#72B943"/>
			<stop  offset="0.8789" style="stop-color:#72B943"/>
			<stop  offset="0.8828" style="stop-color:#73B943"/>
			<stop  offset="0.8867" style="stop-color:#73BA43"/>
			<stop  offset="0.8906" style="stop-color:#74BA43"/>
			<stop  offset="0.8945" style="stop-color:#74BA43"/>
			<stop  offset="0.8984" style="stop-color:#75BB43"/>
			<stop  offset="0.9023" style="stop-color:#75BB43"/>
			<stop  offset="0.9062" style="stop-color:#76BB43"/>
			<stop  offset="0.9102" style="stop-color:#77BC43"/>
			<stop  offset="0.9141" style="stop-color:#77BC43"/>
			<stop  offset="0.918" style="stop-color:#78BC43"/>
			<stop  offset="0.9219" style="stop-color:#78BD42"/>
			<stop  offset="0.9258" style="stop-color:#79BD42"/>
			<stop  offset="0.9297" style="stop-color:#79BD42"/>
			<stop  offset="0.9336" style="stop-color:#7ABE42"/>
			<stop  offset="0.9375" style="stop-color:#7ABE42"/>
			<stop  offset="0.9414" style="stop-color:#7BBE42"/>
			<stop  offset="0.9453" style="stop-color:#7BBF42"/>
			<stop  offset="0.9492" style="stop-color:#7CBF42"/>
			<stop  offset="0.9531" style="stop-color:#7CBF42"/>
			<stop  offset="0.957" style="stop-color:#7DC042"/>
			<stop  offset="0.9609" style="stop-color:#7DC042"/>
			<stop  offset="0.9648" style="stop-color:#7EC042"/>
			<stop  offset="0.9688" style="stop-color:#7EC142"/>
			<stop  offset="0.9727" style="stop-color:#7FC141"/>
			<stop  offset="0.9766" style="stop-color:#7FC141"/>
			<stop  offset="0.9805" style="stop-color:#80C241"/>
			<stop  offset="0.9844" style="stop-color:#80C241"/>
			<stop  offset="0.9883" style="stop-color:#81C241"/>
			<stop  offset="0.9922" style="stop-color:#82C341"/>
			<stop  offset="1" style="stop-color:#82C341"/>
		</linearGradient>
		<use xlink:href="#SVGID_1_"  style="overflow:visible;fill:url(#SVGID_00000163068402495840693660000014755747695552649123_);"/>
		<clipPath id="SVGID_00000127020668540877556450000009009391768491237532_">
			<use xlink:href="#SVGID_1_"  style="overflow:visible;"/>
		</clipPath>
	</g>
</g>
</svg>
