<svg width="3813" height="5218" viewBox="0 0 3813 5218" fill="none" xmlns="http://www.w3.org/2000/svg">
<g clip-path="url(#clip0_1604_1027)">
<path fill-rule="evenodd" clip-rule="evenodd" d="M1906.7 552.288C2274.56 -113.877 3010.32 -113.877 3378.21 219.204C3746.11 552.288 3746.11 1218.44 3378.21 1884.61C3164.3 2299.61 2671.25 2714.61 2194.11 3034.15C2020.21 3150.64 1793.19 3150.64 1619.28 3034.15C1142.15 2714.61 649.065 2299.61 435.183 1884.61C67.3206 1218.44 67.3206 552.288 435.183 219.204C803.078 -113.877 1538.84 -113.877 1906.7 552.288Z" fill="#D65E8A"/>
<mask id="mask0_1604_1027" style="mask-type:luminance" maskUnits="userSpaceOnUse" x="159" y="0" width="3496" height="3122">
<path d="M1906.7 552.288C2274.56 -113.877 3010.32 -113.877 3378.21 219.204C3746.11 552.288 3746.11 1218.44 3378.21 1884.61C3164.3 2299.61 2671.25 2714.61 2194.11 3034.15C2020.21 3150.64 1793.19 3150.64 1619.28 3034.15C1142.15 2714.61 649.065 2299.61 435.183 1884.61C67.3206 1218.44 67.3206 552.288 435.183 219.204C803.078 -113.877 1538.84 -113.877 1906.7 552.288Z" fill="white"/>
</mask>
<g mask="url(#mask0_1604_1027)">
<path fill-rule="evenodd" clip-rule="evenodd" d="M3288.23 1435.58C3288.23 1435.58 2749.61 1831.37 2481.02 2047.42C2481.02 2047.42 2006.61 2413.54 1973.47 2879.11L2746.08 2915.57L3282.86 1599.85L3288.23 1435.58ZM526.56 1435.58C526.56 1435.58 1065.18 1831.37 1333.77 2047.42C1333.77 2047.42 1808.17 2413.54 1841.31 2879.11L1068.71 2915.57L531.896 1599.85L526.56 1435.58Z" fill="#AF3360"/>
<path fill-rule="evenodd" clip-rule="evenodd" d="M3564.19 892.055C3591.85 893.074 3612.11 954.407 3609.36 1028.93C3606.6 1103.46 3581.9 1163.14 3554.24 1162.12C3526.55 1161.09 3506.32 1099.76 3509.05 1025.24C3511.8 950.711 3536.5 891.034 3564.19 892.055ZM2699.88 111.638C2793.22 27.9366 3333.07 107.303 3503.02 503.346C3635.49 811.992 3560.43 851.363 3511.69 800.047C3457.54 743.038 3440.59 681.725 3207.43 417.897C2944.32 120.177 2619.57 183.64 2699.88 111.638Z" fill="#F693B7"/>
</g>
<path fill-rule="evenodd" clip-rule="evenodd" d="M3255.69 5069.39C3255.69 5069.39 2833.3 5332.5 2148.32 5158.16L2018.97 3265.99C2018.97 3265.99 1992.8 2886.56 2185.02 2527.9C2185.02 2527.9 2437.74 2168.78 2763.84 1951.87C2763.84 1951.87 2885.75 1856.38 3007.47 1718.34L3242.89 1464.75C3242.89 1464.75 3389.45 1296.41 3541.52 1410.69C3541.52 1410.69 3616.64 1256.99 3624.39 1224.28C3624.39 1224.28 3843.17 1145.17 3808.68 1438.9C3808.68 1438.9 3792.27 1560.79 3676.7 1878.53L3594.95 2126.03C3594.95 2126.03 3632.6 2325.42 3468.13 2670.25C3468.13 2670.25 3229.2 3157.36 3143.96 3459.52C3143.96 3459.52 3107.06 3637.76 3119.83 3885.52C3119.83 3885.52 3180.71 4671.53 3255.69 5069.39Z" fill="#FFC1A9"/>
<mask id="mask1_1604_1027" style="mask-type:luminance" maskUnits="userSpaceOnUse" x="2017" y="1214" width="1796" height="4004">
<path d="M3255.69 5069.39C3255.69 5069.39 2833.3 5332.5 2148.32 5158.16L2018.97 3265.99C2018.97 3265.99 1992.8 2886.56 2185.02 2527.9C2185.02 2527.9 2437.74 2168.78 2763.84 1951.87C2763.84 1951.87 2885.75 1856.38 3007.47 1718.34L3242.89 1464.75C3242.89 1464.75 3389.45 1296.41 3541.52 1410.69C3541.52 1410.69 3616.64 1256.99 3624.39 1224.28C3624.39 1224.28 3843.17 1145.17 3808.68 1438.9C3808.68 1438.9 3792.27 1560.79 3676.7 1878.53L3594.95 2126.03C3594.95 2126.03 3632.6 2325.42 3468.13 2670.25C3468.13 2670.25 3229.2 3157.36 3143.96 3459.52C3143.96 3459.52 3107.06 3637.76 3119.83 3885.52C3119.83 3885.52 3180.71 4671.53 3255.69 5069.39Z" fill="white"/>
</mask>
<g mask="url(#mask1_1604_1027)">
<path fill-rule="evenodd" clip-rule="evenodd" d="M3152.45 3441.28C3152.45 3441.28 2848.16 3906.7 3096.9 5232.33L3642.58 5187.46L3381.76 3556.42L3152.45 3441.28ZM3744.1 1215.87C3744.1 1215.87 3688.78 1355.17 3596.76 1457.38L3541.47 1410.64L3514.07 1265.88L3596.96 1187.61C3596.96 1187.61 3708.14 1190.65 3712.08 1190.48C3715.98 1190.33 3744.1 1215.87 3744.1 1215.87Z" fill="#E2A289"/>
<path fill-rule="evenodd" clip-rule="evenodd" d="M3616.33 1410.44C3616.33 1410.44 3815.86 1556.74 3498.08 1974.3C3497.83 1974.65 3497.54 1974.99 3497.25 1975.34L3039 2513.64C3030.45 2523.68 3015.36 2524.92 3005.31 2516.34C2995.27 2507.79 2994.04 2492.7 3002.59 2482.65C3002.59 2482.65 3444.74 1963.26 3460.44 1944.84C3742.8 1573.44 3587.26 1448.4 3587.26 1448.4C3576.79 1440.39 3574.78 1425.36 3582.78 1414.88C3590.82 1404.41 3605.82 1402.4 3616.33 1410.44Z" fill="#E2A289"/>
</g>
<path fill-rule="evenodd" clip-rule="evenodd" d="M557.077 5069.39C557.077 5069.39 979.463 5332.5 1664.45 5158.16L1793.79 3265.99C1793.79 3265.99 1819.96 2886.56 1627.75 2527.9C1627.75 2527.9 1375.02 2168.78 1048.93 1951.87C1048.93 1951.87 927.014 1856.38 805.299 1718.34L569.874 1464.75C569.874 1464.75 423.313 1296.41 271.241 1410.69C271.241 1410.69 196.123 1256.99 188.376 1224.28C188.376 1224.28 -30.4065 1145.17 4.08215 1438.9C4.08215 1438.9 20.4944 1560.79 136.069 1878.53L217.815 2126.03C217.815 2126.03 180.169 2325.42 344.636 2670.25C344.636 2670.25 583.561 3157.36 668.807 3459.52C668.807 3459.52 705.706 3637.76 692.938 3885.52C692.938 3885.52 632.052 4671.53 557.077 5069.39Z" fill="#FFC1A9"/>
<mask id="mask2_1604_1027" style="mask-type:luminance" maskUnits="userSpaceOnUse" x="0" y="1214" width="1795" height="4004">
<path d="M557.077 5069.39C557.077 5069.39 979.463 5332.5 1664.45 5158.16L1793.79 3265.99C1793.79 3265.99 1819.96 2886.56 1627.75 2527.9C1627.75 2527.9 1375.02 2168.78 1048.93 1951.87C1048.93 1951.87 927.014 1856.38 805.299 1718.34L569.874 1464.75C569.874 1464.75 423.313 1296.41 271.241 1410.69C271.241 1410.69 196.123 1256.99 188.376 1224.28C188.376 1224.28 -30.4065 1145.17 4.08215 1438.9C4.08215 1438.9 20.4944 1560.79 136.069 1878.53L217.815 2126.03C217.815 2126.03 180.169 2325.42 344.636 2670.25C344.636 2670.25 583.561 3157.36 668.807 3459.52C668.807 3459.52 705.706 3637.76 692.938 3885.52C692.938 3885.52 632.052 4671.53 557.077 5069.39Z" fill="white"/>
</mask>
<g mask="url(#mask2_1604_1027)">
<path fill-rule="evenodd" clip-rule="evenodd" d="M660.313 3441.28C660.313 3441.28 964.6 3906.7 715.863 5232.33L170.184 5187.46L431 3556.42L660.313 3441.28ZM68.6689 1215.87C68.6689 1215.87 123.989 1355.17 216.006 1457.38L271.297 1410.64L298.698 1265.88L215.805 1187.61C215.805 1187.61 104.62 1190.65 100.689 1190.48C96.7869 1190.33 68.6689 1215.87 68.6689 1215.87Z" fill="#E2A289"/>
<path fill-rule="evenodd" clip-rule="evenodd" d="M196.437 1410.44C196.437 1410.44 -3.09201 1556.74 314.68 1974.3C314.938 1974.65 315.225 1974.99 315.512 1975.34L773.764 2513.64C782.314 2523.68 797.408 2524.92 807.45 2516.34C817.492 2507.79 818.725 2492.7 810.175 2482.65C810.175 2482.65 368.02 1963.26 352.325 1944.84C69.96 1573.44 225.503 1448.4 225.503 1448.4C235.976 1440.39 237.984 1425.36 229.979 1414.88C221.945 1404.41 206.939 1402.4 196.437 1410.44Z" fill="#E2A289"/>
</g>
</g>
<defs>
<clipPath id="clip0_1604_1027">
<rect width="3813" height="5218" fill="white"/>
</clipPath>
</defs>
</svg>
