<?xml version="1.0" encoding="UTF-8"?>
<svg id="Layer_2" data-name="Layer 2" xmlns="http://www.w3.org/2000/svg" viewBox="0 0 108.31 192.66">
  <defs>
    <style>
      .cls-1 {
        fill: #158192;
      }

      .cls-2 {
        fill: #d2c350;
      }
    </style>
  </defs>
  <g id="Layer_1-2" data-name="Layer 1">
    <path class="cls-1" d="M69.46,91.94l-15.3-8.85-15.3,8.85c-12.59,7.29-22.67,17.86-29.4,30.26v-34.94l5.52-7.74,5.52,7.74v13.2c3.06-3.4,6.46-6.38,9.45-8.74v-7.48l-9.16-12.84,9.16-12.85v-18.03l-12.96-12.19c1.04-.66,1.72-1.81,1.72-3.13,0-1.02-.4-1.93-1.06-2.61,.13-.02,.26-.03,.39-.05,5.58-.95,9.63-5.54,10.12-10.93-1.61,2.32-4.12,4.02-7.13,4.53-5.95,1.01-11.57-2.99-12.58-8.93-.44-2.58,.07-5.11,1.27-7.22C5.5,2.51,3.05,7.42,3.92,12.54c.81,4.82,4.35,8.51,8.76,9.74-.88,.67-1.43,1.74-1.43,2.93,0,1.32,.68,2.47,1.71,3.13L0,40.54v18.03l9.16,12.85L0,84.25v108.42H9.45v-33.4c0-24.3,13.08-46.96,34.13-59.15l10.58-6.12,10.57,6.12c21.06,12.19,34.14,34.85,34.14,59.15v33.4h9.45v-33.4c0-27.65-14.89-53.45-38.85-67.32M9.45,44.62l5.52-5.19,5.52,5.19v10.92l-5.52,7.74-5.52-7.74v-10.92Z"/>
    <path class="cls-2" d="M54.16,133.1l-26.94,14.85v37.3l26.94,7.06,.14,.04,26.8-7.1v-37.3l-26.94-14.85Zm21.18,47.72l-21.18,5.08-21.18-5.09v-14.37l21.18-7.18,21.18,7.13v14.42Zm0-19.44l-21.18-9.33-21.18,10.22v-10.94l21.18-11.16,21.18,11.16v10.05Z"/>
  </g>
</svg>