<?xml version="1.0" encoding="UTF-8"?>
<svg id="Layer_2" data-name="Layer 2" xmlns="http://www.w3.org/2000/svg" viewBox="0 0 267.74 87.73">
  <defs>
    <style>
      .cls-1 {
        fill: #158192;
      }

      .cls-2 {
        fill: #d2c350;
      }
    </style>
  </defs>
  <g id="Layer_1-2" data-name="Layer 1">
    <g>
      <g>
        <path class="cls-1" d="M10.22,58.64c-.23,0-.44-.02-.64-.05-.2-.03-.39-.09-.57-.18-.18-.09-.35-.21-.52-.36-.17-.15-.32-.35-.47-.58-.25,.27-.52,.49-.8,.65-.28,.16-.57,.27-.88,.35-.3,.08-.62,.12-.94,.14-.32,.02-.65,.03-.97,.03H0v-2.93H5.06c.39,0,.69-.04,.89-.13s.3-.25,.3-.48c0-.1-.02-.2-.06-.31-.04-.11-.1-.24-.19-.39-.09-.15-.21-.34-.35-.56-.14-.22-.33-.49-.54-.82l-2.33-3.45,3.02-1.92,3.17,5.18c.34,.55,.63,1.01,.86,1.38,.24,.37,.45,.67,.63,.89,.18,.22,.35,.38,.5,.48,.15,.1,.31,.15,.48,.15,.14,0,.27,.01,.39,.04,.12,.02,.23,.08,.31,.18,.09,.09,.16,.23,.21,.42,.05,.19,.08,.44,.08,.76,0,.58-.08,.98-.24,1.2-.16,.22-.41,.33-.76,.33h-1.22Z"/>
        <path class="cls-1" d="M20.53,55.71c-.05-.69-.15-1.32-.32-1.89-.17-.57-.42-1.06-.76-1.48-.34-.41-.79-.73-1.34-.96-.55-.22-1.22-.34-2.03-.34-.13,0-.3,0-.53,.03-.22,.02-.47,.05-.74,.09-.27,.04-.56,.09-.87,.15-.31,.06-.61,.13-.91,.22v-2.96c.2-.07,.44-.15,.71-.23,.27-.08,.57-.15,.89-.22,.32-.06,.65-.12,1-.16,.35-.04,.7-.07,1.06-.07,1.33,0,2.45,.23,3.36,.69,.91,.46,1.65,1.08,2.21,1.85,.57,.77,.97,1.66,1.22,2.67,.25,1,.37,2.05,.37,3.14v2.38H11.44c-.14,0-.27-.01-.39-.04-.12-.02-.23-.08-.32-.18-.09-.09-.16-.24-.21-.42-.05-.19-.08-.45-.08-.78,0-.58,.08-.98,.24-1.19,.16-.21,.41-.32,.76-.32h9.08Zm-4.89,6.54c0-.23,.04-.44,.13-.64,.08-.2,.2-.38,.35-.53,.15-.15,.32-.27,.52-.36s.41-.13,.65-.13,.44,.04,.64,.13c.2,.08,.38,.2,.53,.36,.15,.15,.27,.33,.36,.53,.09,.2,.13,.41,.13,.64s-.04,.44-.13,.64c-.09,.2-.21,.38-.36,.53-.15,.15-.33,.27-.53,.36-.2,.09-.42,.13-.64,.13s-.45-.04-.65-.13c-.2-.09-.37-.21-.52-.36-.15-.15-.27-.32-.35-.53-.08-.2-.13-.42-.13-.64"/>
        <path class="cls-1" d="M32.6,57.1c0,.58-.08,.98-.24,1.2-.16,.22-.41,.33-.75,.33h-1.09c-.58,0-1.11-.06-1.59-.19-.48-.13-.89-.33-1.25-.63-.35-.29-.62-.69-.82-1.19-.19-.49-.29-1.11-.29-1.86v-13.44h3.34v12.99c0,.3,.03,.54,.08,.72,.05,.18,.13,.32,.23,.42,.1,.1,.23,.16,.38,.19,.15,.03,.33,.05,.53,.05h.47c.13,0,.25,.01,.37,.04,.12,.02,.23,.08,.31,.18,.09,.09,.16,.23,.22,.42,.06,.19,.08,.44,.08,.76"/>
        <path class="cls-1" d="M37.3,57.3c-.23,.3-.49,.54-.79,.71-.3,.18-.64,.31-1.01,.41-.38,.09-.8,.15-1.28,.18-.47,.03-.99,.04-1.55,.04h-1.09c-.14,0-.27-.01-.39-.04-.12-.02-.23-.08-.31-.18-.09-.09-.16-.24-.21-.42-.05-.19-.08-.45-.08-.78,0-.58,.08-.98,.24-1.19,.16-.21,.41-.32,.76-.32h1.14c.37,0,.68-.01,.93-.03,.25-.02,.45-.07,.6-.16,.15-.08,.26-.21,.33-.37,.06-.16,.1-.39,.1-.67v-4.89h3.34v4.34c0,.56,.14,.99,.43,1.31,.29,.32,.76,.47,1.41,.47,.24,0,.46-.02,.67-.05,.2-.03,.37-.09,.51-.19s.25-.22,.33-.38c.08-.16,.12-.37,.12-.62v-4.89h3.34v4.34c0,.31,.02,.57,.07,.79,.05,.22,.14,.41,.27,.55,.13,.14,.31,.25,.53,.33,.22,.07,.52,.11,.87,.11,.21,0,.4-.02,.58-.05s.33-.1,.45-.19c.12-.1,.22-.23,.29-.4,.07-.17,.11-.39,.11-.66v-5.93h3.34v5.45c0,.32,.03,.6,.1,.82,.07,.23,.18,.41,.33,.55,.16,.14,.37,.24,.65,.31,.27,.06,.62,.1,1.03,.1,.13,0,.25,.01,.38,.04,.12,.02,.22,.08,.31,.18,.09,.09,.16,.23,.22,.42,.06,.19,.08,.44,.08,.76,0,.58-.08,.98-.24,1.2-.16,.22-.41,.33-.75,.33-.25,0-.5-.02-.76-.06-.26-.04-.51-.11-.75-.21-.24-.1-.47-.24-.68-.42-.21-.18-.4-.4-.55-.68-.23,.31-.48,.55-.74,.73-.26,.18-.53,.31-.81,.41-.27,.1-.54,.16-.81,.19-.27,.03-.52,.04-.76,.04-.46,0-.86-.03-1.2-.09-.34-.06-.64-.15-.91-.27-.26-.12-.49-.26-.68-.42-.19-.16-.37-.35-.53-.56-.22,.28-.45,.51-.71,.69-.25,.18-.52,.31-.8,.41-.28,.1-.57,.16-.86,.19-.3,.03-.6,.05-.89,.05-1.76,0-2.99-.45-3.69-1.34"/>
        <path class="cls-1" d="M65.9,56.94c-.46,.64-1.04,1.13-1.74,1.48-.7,.35-1.51,.53-2.43,.53-.64,0-1.3-.09-2-.28-.7-.19-1.44-.54-2.23-1.06-.23,.25-.45,.44-.67,.58-.22,.14-.45,.24-.68,.31-.23,.07-.47,.11-.71,.13-.25,.02-.51,.02-.78,.02h-1.2c-.14,0-.27-.01-.39-.04-.12-.02-.23-.08-.32-.18-.09-.09-.16-.24-.21-.42-.05-.19-.08-.45-.08-.78,0-.58,.08-.98,.24-1.19,.16-.21,.41-.32,.76-.32h.44c.22,0,.43-.03,.62-.08,.19-.05,.36-.15,.53-.3,.16-.14,.31-.35,.45-.61,.14-.26,.27-.6,.4-1.02,.27-1.1,.59-2.01,.99-2.75,.39-.74,.83-1.33,1.32-1.78,.49-.45,1.03-.77,1.61-.97,.58-.19,1.2-.29,1.85-.29,.78,0,1.49,.14,2.13,.42,.64,.28,1.19,.67,1.65,1.17,.46,.5,.81,1.09,1.06,1.78,.25,.69,.37,1.45,.37,2.27,0,.37-.02,.72-.07,1.04,.08,.2,.19,.37,.33,.51,.14,.14,.28,.26,.43,.34,.15,.09,.3,.15,.45,.19,.15,.04,.28,.06,.38,.06,.14,0,.27,.01,.39,.04,.12,.02,.23,.08,.31,.18s.16,.23,.21,.42c.05,.19,.08,.44,.08,.76,0,.58-.08,.98-.24,1.2-.16,.22-.41,.33-.76,.33-.2,0-.41-.03-.63-.08-.22-.05-.44-.14-.65-.27-.22-.13-.43-.3-.64-.52-.2-.22-.4-.5-.57-.83m-2.36-3.45c0-.27-.03-.56-.1-.86-.07-.3-.18-.58-.33-.84-.15-.25-.35-.46-.6-.63-.25-.17-.54-.25-.89-.25s-.65,.09-.96,.28c-.31,.19-.59,.46-.85,.82-.25,.36-.47,.8-.64,1.32-.17,.52-.28,1.12-.33,1.78,.36,.23,.76,.42,1.18,.57,.42,.15,.85,.22,1.29,.22,.27,0,.54-.03,.81-.09,.27-.06,.5-.18,.71-.35,.21-.17,.38-.42,.51-.73,.13-.31,.19-.73,.19-1.23"/>
        <path class="cls-1" d="M71.26,55.71v-14.37h3.34v17.3h-6.21c-.14,0-.27-.01-.39-.04-.12-.02-.23-.08-.32-.18-.09-.09-.16-.23-.21-.42-.05-.19-.08-.45-.08-.78,0-.58,.08-.98,.24-1.19,.16-.21,.41-.32,.76-.32h2.87Z"/>
        <rect class="cls-1" x="77.62" y="41.34" width="3.34" height="17.3"/>
        <path class="cls-1" d="M99.95,58.64c-.41,0-.81-.03-1.19-.09-.38-.06-.74-.17-1.06-.32-.32-.15-.61-.36-.85-.63-.25-.27-.43-.6-.56-1.02-.3,.06-.6,.12-.9,.16-.3,.04-.61,.06-.91,.06-.28,0-.6-.02-.95-.08-.35-.05-.71-.15-1.07-.28-.36-.13-.72-.31-1.06-.54-.34-.23-.65-.51-.91-.86-.27-.35-.48-.76-.64-1.23-.16-.48-.24-1.03-.24-1.67,0-.93,.16-1.71,.49-2.36,.33-.64,.76-1.17,1.28-1.58,.52-.41,1.1-.7,1.73-.88,.63-.18,1.26-.27,1.87-.27h4.38v7.62c0,.4,.05,.68,.16,.82,.11,.15,.34,.22,.7,.22h1.25c.14,0,.27,.01,.39,.04,.12,.02,.23,.08,.32,.18,.09,.09,.16,.23,.21,.42,.05,.19,.08,.44,.08,.76,0,.58-.08,.98-.24,1.2-.16,.22-.41,.33-.76,.33h-1.5Zm-8.49-15.72c0-.23,.04-.44,.13-.64,.08-.2,.2-.38,.36-.53s.33-.27,.53-.36c.2-.08,.41-.13,.65-.13s.44,.04,.64,.13c.2,.08,.37,.2,.52,.36,.15,.15,.27,.33,.36,.53,.09,.2,.13,.42,.13,.64s-.04,.44-.13,.64c-.09,.2-.21,.38-.36,.53-.15,.15-.32,.27-.52,.36-.2,.09-.41,.13-.64,.13s-.45-.04-.65-.13c-.2-.09-.37-.21-.53-.36-.15-.15-.27-.32-.36-.53-.08-.2-.13-.41-.13-.64m1.38,9.08c0,.22,.02,.44,.07,.67,.05,.23,.14,.43,.27,.61,.13,.18,.32,.33,.55,.44,.23,.11,.53,.17,.89,.17,.21,0,.43,0,.66-.02,.23-.02,.47-.07,.72-.16v-3.73h-1.28c-.31,0-.59,.06-.83,.16-.24,.11-.44,.26-.59,.44-.16,.19-.27,.4-.35,.64-.08,.24-.12,.5-.12,.77m2.73-9.08c0-.23,.04-.44,.13-.64,.08-.2,.2-.38,.35-.53,.15-.15,.32-.27,.52-.36,.2-.08,.41-.13,.65-.13s.44,.04,.64,.13c.2,.08,.38,.2,.53,.36,.15,.15,.27,.33,.36,.53,.09,.2,.13,.42,.13,.64s-.04,.44-.13,.64c-.09,.2-.21,.38-.36,.53-.15,.15-.33,.27-.53,.36-.2,.09-.42,.13-.64,.13s-.45-.04-.65-.13c-.2-.09-.37-.21-.52-.36-.15-.15-.27-.32-.35-.53-.08-.2-.13-.41-.13-.64"/>
        <path class="cls-1" d="M101.45,58.64c-.14,0-.27-.01-.39-.04-.12-.02-.23-.08-.32-.18-.09-.09-.16-.24-.21-.42-.05-.19-.08-.45-.08-.78,0-.58,.08-.98,.24-1.19,.16-.21,.41-.32,.76-.32h4.04v-7.23h3.34v10.16h-7.38Zm.48,3.66c0-.23,.04-.44,.13-.64,.08-.2,.2-.38,.36-.53,.15-.15,.33-.27,.53-.36,.2-.08,.41-.13,.65-.13s.44,.04,.64,.13,.37,.2,.52,.36c.15,.15,.27,.33,.36,.53,.09,.2,.13,.42,.13,.64s-.04,.44-.13,.64c-.09,.2-.21,.38-.36,.53-.15,.15-.32,.27-.52,.36-.2,.09-.41,.13-.64,.13s-.45-.04-.65-.13c-.2-.09-.37-.21-.53-.36-.15-.15-.27-.32-.36-.53-.08-.2-.13-.41-.13-.64m4.11,0c0-.23,.04-.44,.13-.64,.08-.2,.2-.38,.35-.53,.15-.15,.32-.27,.52-.36,.2-.08,.41-.13,.65-.13s.44,.04,.64,.13c.2,.08,.38,.2,.53,.36,.15,.15,.27,.33,.36,.53,.09,.2,.13,.42,.13,.64s-.04,.44-.13,.64c-.09,.2-.21,.38-.36,.53-.15,.15-.32,.27-.53,.36-.2,.09-.41,.13-.64,.13s-.45-.04-.65-.13c-.2-.09-.37-.21-.52-.36-.15-.15-.27-.32-.35-.53-.08-.2-.13-.41-.13-.64"/>
        <path class="cls-1" d="M117.85,57.1c0,.58-.08,.98-.24,1.2-.16,.22-.41,.33-.75,.33h-1.09c-.58,0-1.11-.06-1.59-.19-.48-.13-.89-.33-1.25-.63-.35-.29-.62-.69-.82-1.19-.19-.49-.29-1.11-.29-1.86v-13.44h3.34v12.99c0,.3,.03,.54,.08,.72,.05,.18,.13,.32,.23,.42,.1,.1,.23,.16,.38,.19,.15,.03,.33,.05,.53,.05h.47c.13,0,.25,.01,.37,.04,.12,.02,.23,.08,.31,.18,.09,.09,.16,.23,.22,.42s.08,.44,.08,.76"/>
        <path class="cls-1" d="M118.37,55.71c.29,0,.53-.02,.73-.06,.2-.04,.36-.11,.48-.21,.13-.11,.21-.26,.27-.45,.05-.2,.08-.45,.08-.77v-5.75h3.34v5.46c0,.32,.03,.6,.1,.82,.07,.23,.18,.41,.33,.55,.16,.14,.37,.24,.65,.31,.27,.06,.62,.1,1.03,.1,.13,0,.25,.01,.38,.04,.12,.02,.22,.08,.31,.18,.09,.09,.16,.23,.22,.42,.06,.19,.08,.44,.08,.76,0,.58-.08,.98-.24,1.2-.16,.22-.41,.33-.75,.33-.25,0-.5-.02-.75-.05-.25-.03-.49-.09-.73-.19-.24-.09-.46-.23-.68-.4-.22-.17-.42-.4-.59-.68-.22,.31-.47,.55-.75,.72-.28,.17-.59,.3-.91,.39-.32,.09-.66,.14-1.01,.17-.35,.02-.7,.04-1.05,.04h-2.08c-.14,0-.27-.01-.39-.04-.12-.02-.23-.08-.31-.18-.09-.09-.16-.24-.21-.42-.05-.19-.08-.45-.08-.78,0-.58,.08-.98,.24-1.19,.16-.21,.41-.32,.76-.32h1.54Zm1.57-11.54c0-.23,.04-.44,.13-.64,.08-.2,.2-.38,.36-.53,.15-.15,.33-.27,.53-.36s.41-.13,.65-.13,.44,.04,.64,.13c.2,.08,.37,.2,.52,.36,.15,.15,.27,.33,.36,.53,.09,.2,.13,.41,.13,.64s-.04,.44-.13,.64c-.09,.2-.21,.38-.36,.53s-.32,.27-.52,.36c-.2,.09-.41,.13-.64,.13s-.45-.04-.65-.13c-.2-.09-.37-.21-.53-.36-.15-.15-.27-.32-.36-.53-.08-.2-.13-.41-.13-.64"/>
        <path class="cls-1" d="M127.81,55.71c-.08-.17-.15-.37-.21-.59-.06-.23-.11-.46-.16-.69-.05-.23-.08-.46-.1-.68-.02-.22-.03-.41-.03-.57,0-.9,.17-1.69,.51-2.35,.34-.67,.78-1.21,1.32-1.65,.54-.43,1.15-.75,1.83-.96,.68-.21,1.35-.31,2.02-.31,.27,0,.55,.02,.83,.05s.55,.07,.81,.13c.26,.05,.5,.11,.72,.17,.22,.06,.4,.12,.55,.18v3.01c-.27-.04-.54-.08-.82-.13s-.55-.09-.81-.13c-.26-.04-.49-.07-.7-.1-.21-.02-.37-.04-.49-.04-.5,0-.93,.06-1.28,.18s-.64,.27-.86,.47c-.22,.2-.39,.43-.49,.7-.11,.27-.16,.55-.16,.85,0,.34,.05,.66,.15,.96,.1,.3,.26,.56,.48,.78,.22,.22,.51,.4,.86,.53,.35,.13,.78,.19,1.28,.19h4.04v2.93h-11.76c-.14,0-.27-.01-.39-.04-.12-.02-.23-.08-.32-.18-.09-.09-.16-.23-.21-.42-.05-.19-.08-.45-.08-.78,0-.58,.08-.98,.24-1.19,.16-.21,.41-.32,.76-.32h2.44Z"/>
        <path class="cls-1" d="M155.33,58.64c-.41,0-.81-.03-1.19-.09-.38-.06-.74-.17-1.06-.32-.32-.15-.61-.36-.85-.63-.25-.27-.43-.6-.56-1.02-.3,.06-.6,.12-.9,.16-.3,.04-.61,.06-.91,.06-.28,0-.6-.02-.95-.08-.35-.05-.71-.15-1.07-.28-.36-.13-.72-.31-1.06-.54-.34-.23-.65-.51-.91-.86-.27-.35-.48-.76-.64-1.23-.16-.48-.24-1.03-.24-1.67,0-.93,.16-1.71,.49-2.36,.33-.64,.76-1.17,1.28-1.58,.52-.41,1.1-.7,1.73-.88,.63-.18,1.26-.27,1.87-.27h4.38v7.62c0,.4,.05,.68,.16,.82,.11,.15,.34,.22,.7,.22h1.25c.14,0,.27,.01,.39,.04,.12,.02,.23,.08,.32,.18,.09,.09,.16,.23,.21,.42,.05,.19,.08,.44,.08,.76,0,.58-.08,.98-.24,1.2-.16,.22-.41,.33-.76,.33h-1.5Zm-8.49-15.72c0-.23,.04-.44,.13-.64,.08-.2,.2-.38,.36-.53s.33-.27,.53-.36c.2-.08,.41-.13,.65-.13s.44,.04,.64,.13c.2,.08,.37,.2,.52,.36,.15,.15,.27,.33,.36,.53,.09,.2,.13,.42,.13,.64s-.04,.44-.13,.64c-.09,.2-.21,.38-.36,.53-.15,.15-.32,.27-.52,.36-.2,.09-.41,.13-.64,.13s-.45-.04-.65-.13c-.2-.09-.37-.21-.53-.36-.15-.15-.27-.32-.36-.53-.08-.2-.13-.41-.13-.64m1.38,9.08c0,.22,.02,.44,.07,.67,.05,.23,.14,.43,.27,.61,.13,.18,.32,.33,.55,.44,.23,.11,.53,.17,.89,.17,.21,0,.43,0,.66-.02,.23-.02,.47-.07,.72-.16v-3.73h-1.28c-.31,0-.59,.06-.83,.16-.24,.11-.44,.26-.59,.44-.16,.19-.27,.4-.35,.64-.08,.24-.12,.5-.12,.77m2.73-9.08c0-.23,.04-.44,.13-.64,.08-.2,.2-.38,.35-.53,.15-.15,.32-.27,.52-.36,.2-.08,.41-.13,.65-.13s.44,.04,.64,.13c.2,.08,.38,.2,.53,.36,.15,.15,.27,.33,.36,.53,.09,.2,.13,.42,.13,.64s-.04,.44-.13,.64c-.09,.2-.21,.38-.36,.53-.15,.15-.33,.27-.53,.36-.2,.09-.42,.13-.64,.13s-.45-.04-.65-.13c-.2-.09-.37-.21-.52-.36-.15-.15-.27-.32-.35-.53-.08-.2-.13-.41-.13-.64"/>
        <path class="cls-1" d="M165.98,58.64c-.26,0-.52-.02-.79-.05-.27-.03-.53-.09-.78-.19-.25-.09-.49-.22-.72-.4s-.42-.4-.59-.68c-.2,.31-.44,.55-.73,.72-.28,.17-.59,.3-.91,.39-.33,.09-.67,.14-1.02,.17-.35,.02-.7,.04-1.03,.04h-2.58c-.14,0-.27-.01-.39-.04-.12-.02-.23-.08-.32-.18-.09-.09-.16-.24-.21-.42-.05-.19-.08-.45-.08-.78,0-.58,.08-.98,.24-1.19,.16-.21,.41-.32,.76-.32h2.03c.29,0,.53-.02,.73-.06,.2-.04,.36-.11,.48-.21,.13-.11,.21-.26,.27-.45,.05-.2,.08-.45,.08-.77v-5.75h3.31v5.45c0,.32,.04,.6,.12,.82,.08,.23,.2,.41,.37,.55,.17,.14,.4,.24,.69,.31,.29,.06,.64,.1,1.06,.1,.13,0,.25,.01,.38,.04,.12,.02,.22,.08,.31,.18,.09,.09,.16,.23,.22,.42,.06,.19,.08,.44,.08,.76,0,.58-.08,.98-.24,1.2-.16,.22-.41,.33-.75,.33m-7.76,3.66c0-.23,.04-.44,.13-.64,.08-.2,.2-.38,.36-.53,.15-.15,.33-.27,.53-.36,.2-.08,.41-.13,.65-.13s.44,.04,.64,.13c.2,.08,.37,.2,.52,.36,.15,.15,.27,.33,.36,.53,.09,.2,.13,.42,.13,.64s-.04,.44-.13,.64c-.09,.2-.21,.38-.36,.53-.15,.15-.32,.27-.52,.36-.2,.09-.41,.13-.64,.13s-.45-.04-.65-.13c-.2-.09-.37-.21-.53-.36-.15-.15-.27-.32-.36-.53-.08-.2-.13-.41-.13-.64m4.11,0c0-.23,.04-.44,.13-.64,.08-.2,.2-.38,.35-.53,.15-.15,.32-.27,.52-.36,.2-.08,.41-.13,.65-.13s.44,.04,.64,.13c.2,.08,.38,.2,.53,.36,.15,.15,.27,.33,.36,.53,.09,.2,.13,.42,.13,.64s-.05,.44-.13,.64-.21,.38-.36,.53c-.15,.15-.33,.27-.53,.36-.2,.09-.42,.13-.64,.13s-.45-.04-.65-.13c-.2-.09-.37-.21-.52-.36-.15-.15-.27-.32-.35-.53-.08-.2-.13-.41-.13-.64"/>
        <path class="cls-1" d="M168.19,55.71c.36,0,.74-.01,1.13-.04,.39-.02,.77-.07,1.13-.13l-2.55-3.3c.05-.22,.12-.46,.2-.71,.08-.25,.18-.48,.28-.71,.11-.23,.22-.44,.33-.63,.12-.19,.23-.34,.34-.45,.53-.58,1.19-1.03,1.97-1.35,.78-.32,1.62-.48,2.52-.48,.78,0,1.46,.1,2.05,.3,.58,.2,1.07,.47,1.45,.8,.38,.33,.66,.71,.85,1.14,.19,.43,.28,.86,.28,1.31,0,.29-.05,.62-.16,.99-.11,.37-.26,.74-.45,1.13-.2,.39-.44,.77-.74,1.14-.29,.37-.63,.71-1.01,1h3.66c.14,0,.27,.01,.39,.04,.12,.02,.23,.08,.32,.18,.09,.09,.16,.23,.21,.42,.05,.19,.08,.44,.08,.76,0,.58-.08,.98-.24,1.2-.16,.22-.41,.33-.75,.33h-3.66c-.22,0-.46-.02-.71-.06-.26-.04-.52-.09-.79-.16-.27-.07-.53-.17-.79-.29-.26-.12-.51-.27-.73-.44-.76,.28-1.5,.51-2.23,.68-.73,.17-1.48,.26-2.27,.26h-2.32c-.14,0-.27-.01-.39-.04-.12-.02-.23-.08-.31-.18-.09-.09-.16-.24-.21-.42-.05-.19-.08-.45-.08-.78,0-.58,.08-.98,.24-1.19,.16-.21,.41-.32,.76-.32h2.21Zm5.26-4.94c-.6,0-1.11,.08-1.51,.23-.4,.15-.72,.31-.97,.47,.16,.21,.34,.46,.54,.74,.2,.28,.41,.57,.63,.86,.22,.29,.43,.57,.65,.83,.21,.26,.41,.48,.6,.65,.22-.14,.43-.33,.62-.55,.18-.22,.34-.46,.48-.7,.13-.25,.24-.49,.31-.73,.07-.24,.11-.45,.11-.62,0-.12-.02-.25-.05-.39-.03-.14-.1-.27-.21-.38-.11-.11-.25-.21-.44-.28-.19-.08-.44-.12-.76-.12"/>
        <path class="cls-1" d="M191.93,56.94c-.46,.64-1.04,1.13-1.74,1.48-.7,.35-1.51,.53-2.43,.53-.64,0-1.3-.09-2-.28s-1.44-.54-2.23-1.06c-.23,.25-.45,.44-.67,.58-.22,.14-.45,.24-.68,.31-.23,.07-.47,.11-.71,.13-.25,.02-.51,.02-.78,.02h-1.2c-.14,0-.27-.01-.39-.04-.12-.02-.23-.08-.32-.18-.09-.09-.16-.24-.21-.42-.05-.19-.08-.45-.08-.78,0-.58,.08-.98,.24-1.19,.16-.21,.41-.32,.76-.32h.44c.22,0,.43-.03,.62-.08,.19-.05,.36-.15,.53-.3,.16-.14,.31-.35,.45-.61,.14-.26,.27-.6,.4-1.02,.27-1.1,.59-2.01,.99-2.75s.83-1.33,1.32-1.78c.49-.45,1.03-.77,1.61-.97,.58-.19,1.2-.29,1.85-.29,.78,0,1.49,.14,2.13,.42,.64,.28,1.19,.67,1.65,1.17,.46,.5,.81,1.09,1.06,1.78,.25,.69,.37,1.45,.37,2.27,0,.37-.02,.72-.07,1.04,.08,.2,.19,.37,.33,.51s.28,.26,.43,.34c.15,.09,.3,.15,.45,.19,.15,.04,.28,.06,.38,.06,.14,0,.27,.01,.39,.04,.12,.02,.23,.08,.31,.18s.16,.23,.21,.42c.05,.19,.08,.44,.08,.76,0,.58-.08,.98-.24,1.2-.16,.22-.41,.33-.76,.33-.2,0-.41-.03-.63-.08-.22-.05-.44-.14-.65-.27-.22-.13-.43-.3-.64-.52-.2-.22-.4-.5-.57-.83m-2.36-3.45c0-.27-.03-.56-.1-.86-.07-.3-.18-.58-.33-.84-.15-.25-.35-.46-.6-.63-.25-.17-.54-.25-.89-.25s-.65,.09-.96,.28c-.31,.19-.59,.46-.85,.82-.25,.36-.47,.8-.64,1.32-.17,.52-.28,1.12-.33,1.78,.36,.23,.76,.42,1.18,.57,.42,.15,.85,.22,1.29,.22,.27,0,.54-.03,.81-.09,.27-.06,.5-.18,.71-.35,.21-.17,.38-.42,.51-.73,.13-.31,.19-.73,.19-1.23"/>
        <path class="cls-1" d="M203.51,55.71c-.05-.69-.15-1.32-.32-1.89-.17-.57-.42-1.06-.76-1.48-.34-.41-.79-.73-1.34-.96-.55-.22-1.22-.34-2.03-.34-.13,0-.3,0-.53,.03-.22,.02-.47,.05-.74,.09-.27,.04-.56,.09-.87,.15-.31,.06-.61,.13-.91,.22v-2.96c.2-.07,.44-.15,.71-.23,.27-.08,.57-.15,.89-.22,.32-.06,.65-.12,1-.16,.35-.04,.7-.07,1.06-.07,1.33,0,2.45,.23,3.36,.69,.91,.46,1.65,1.08,2.21,1.85,.57,.77,.97,1.66,1.22,2.67,.25,1,.37,2.05,.37,3.14v2.38h-12.41c-.14,0-.27-.01-.39-.04-.12-.02-.23-.08-.32-.18-.09-.09-.16-.24-.21-.42-.05-.19-.08-.45-.08-.78,0-.58,.08-.98,.24-1.19,.16-.21,.41-.32,.76-.32h9.08Zm-4.89,6.54c0-.23,.04-.44,.13-.64,.08-.2,.2-.38,.35-.53,.15-.15,.32-.27,.52-.36,.2-.08,.41-.13,.65-.13s.44,.04,.64,.13c.2,.08,.38,.2,.53,.36,.15,.15,.27,.33,.36,.53,.09,.2,.13,.41,.13,.64s-.04,.44-.13,.64c-.09,.2-.21,.38-.36,.53-.15,.15-.33,.27-.53,.36-.2,.09-.42,.13-.64,.13s-.45-.04-.65-.13c-.2-.09-.37-.21-.52-.36-.15-.15-.27-.32-.35-.53-.08-.2-.13-.42-.13-.64"/>
      </g>
      <g>
        <path class="cls-1" d="M74.18,82.65c-.21,0-.42-.02-.66-.05-.23-.03-.47-.09-.7-.17-.23-.08-.46-.19-.67-.33-.21-.14-.4-.32-.57-.54-.17-.22-.3-.48-.4-.78s-.15-.66-.15-1.06c0-.61,.1-1.13,.3-1.55,.2-.42,.47-.76,.81-1.02,.33-.26,.71-.44,1.13-.56,.42-.11,.85-.17,1.29-.17h2.77v4.89c0,.24,.01,.44,.05,.61,.03,.17,.09,.3,.18,.41,.09,.11,.21,.18,.37,.23,.16,.05,.37,.07,.62,.07h.32c.23,0,.41,.05,.52,.16,.11,.11,.17,.28,.17,.52,0,.28-.05,.48-.16,.58-.11,.1-.28,.15-.53,.15h-.53c-.29,0-.58-.02-.84-.07-.27-.05-.51-.14-.72-.27-.21-.13-.39-.31-.54-.53-.15-.22-.24-.5-.29-.84-.25,.09-.53,.16-.84,.22-.31,.06-.62,.09-.92,.09m-1.69-3.06c0,.23,.03,.45,.1,.65,.07,.2,.17,.37,.32,.51,.14,.14,.33,.25,.56,.33,.23,.08,.51,.12,.83,.12,.12,0,.26,0,.4-.02,.14-.01,.29-.03,.43-.06,.14-.03,.28-.06,.41-.1s.26-.08,.37-.13v-3.04h-1.52c-.28,0-.53,.03-.76,.1-.23,.07-.43,.17-.6,.31-.17,.14-.3,.32-.4,.54-.09,.22-.14,.48-.14,.78m.29-6.29c0-.12,.02-.24,.07-.35,.05-.11,.11-.2,.2-.29,.08-.08,.18-.15,.29-.2,.11-.05,.23-.07,.35-.07,.12,0,.24,.02,.35,.07,.11,.05,.2,.11,.29,.2,.08,.08,.15,.18,.2,.29,.05,.11,.07,.22,.07,.35s-.02,.25-.07,.35c-.05,.11-.11,.2-.2,.29-.08,.08-.18,.15-.29,.2-.11,.05-.22,.07-.35,.07-.13,0-.25-.02-.35-.07-.11-.05-.2-.11-.29-.2-.08-.08-.15-.18-.2-.29-.05-.11-.07-.23-.07-.35m2.22,0c0-.12,.02-.24,.07-.35,.05-.11,.11-.2,.2-.29,.08-.08,.18-.15,.29-.2,.11-.05,.23-.07,.35-.07s.24,.02,.35,.07c.11,.05,.2,.11,.29,.2,.08,.08,.15,.18,.2,.29,.05,.11,.07,.22,.07,.35s-.02,.25-.07,.35c-.05,.11-.11,.2-.2,.29-.08,.08-.18,.15-.29,.2-.11,.05-.22,.07-.35,.07s-.25-.02-.35-.07c-.11-.05-.2-.11-.29-.2s-.15-.18-.2-.29c-.05-.11-.07-.23-.07-.35"/>
        <path class="cls-1" d="M81.66,83.07c-.15,.23-.3,.41-.46,.54-.16,.13-.32,.23-.48,.29-.17,.06-.34,.1-.53,.12-.18,.02-.38,.02-.58,.02h-.73c-.23,0-.4-.05-.52-.16-.11-.11-.17-.28-.17-.52,0-.28,.05-.48,.16-.58s.28-.15,.52-.15h.7c.13,0,.27-.02,.43-.05,.15-.03,.3-.11,.45-.21,.15-.11,.29-.26,.42-.47,.13-.2,.25-.48,.35-.82,.2-.69,.44-1.26,.73-1.71,.29-.44,.59-.79,.92-1.05,.33-.26,.66-.43,1-.53,.34-.09,.67-.14,.98-.14,.45,0,.85,.08,1.23,.23,.37,.15,.69,.37,.96,.66,.27,.28,.48,.62,.63,1.02,.15,.4,.23,.83,.23,1.32,0,.51-.06,.98-.18,1.4-.12,.42-.31,.78-.57,1.07-.26,.29-.58,.52-.96,.68-.39,.16-.84,.24-1.36,.24-.23,0-.46-.02-.7-.05-.24-.04-.49-.1-.75-.19-.26-.09-.53-.22-.81-.37-.28-.16-.58-.35-.9-.58m4.78-2.04c0-.29-.04-.56-.11-.8-.07-.24-.18-.45-.32-.62-.14-.17-.32-.31-.53-.4-.21-.09-.45-.14-.71-.14s-.52,.05-.76,.16c-.24,.11-.47,.28-.67,.51-.21,.23-.39,.52-.56,.88-.16,.35-.31,.78-.43,1.28,.38,.3,.78,.53,1.2,.69,.42,.16,.82,.24,1.2,.24,.53,0,.94-.14,1.24-.42,.3-.28,.45-.74,.45-1.38"/>
        <path class="cls-1" d="M94.41,84.05c-.17,0-.33-.02-.49-.06-.16-.04-.31-.09-.45-.16-.14-.07-.26-.14-.37-.23-.11-.09-.19-.19-.25-.29,0,.78-.05,1.45-.14,2.01-.09,.56-.26,1.02-.5,1.38-.24,.36-.57,.62-.98,.79-.41,.17-.94,.25-1.58,.25h-.51v-1.42h.57c.42,0,.75-.06,.98-.19,.23-.13,.4-.32,.51-.59,.11-.27,.17-.61,.19-1.02,.02-.41,.03-.91,.03-1.49v-5.54h1.45v3.28c0,.28,.03,.54,.08,.78,.06,.23,.14,.43,.26,.59,.12,.16,.28,.29,.47,.37,.19,.09,.43,.13,.72,.13,.23,0,.41,.05,.52,.16,.11,.11,.17,.28,.17,.52,0,.28-.05,.48-.16,.58-.11,.1-.28,.15-.52,.15"/>
        <path class="cls-1" d="M101.27,80.77c.11,.32,.22,.59,.33,.82,.11,.23,.23,.43,.35,.58,.13,.15,.27,.27,.43,.34,.16,.08,.35,.11,.57,.11,.23,0,.41,.05,.52,.16,.11,.11,.17,.28,.17,.52,0,.28-.05,.48-.16,.58-.11,.1-.28,.15-.53,.15-.46,0-.84-.1-1.14-.3s-.56-.53-.78-.98c-.12,.27-.26,.48-.44,.65-.18,.17-.38,.3-.59,.39-.22,.09-.45,.16-.69,.19-.24,.03-.48,.05-.72,.05h-4.19c-.23,0-.41-.05-.52-.16-.11-.11-.17-.28-.17-.52,0-.28,.05-.48,.16-.58,.11-.1,.28-.15,.52-.15h4.08c.52,0,.9-.1,1.13-.29,.23-.19,.35-.45,.35-.79s-.12-.69-.36-1.06c-.24-.37-.56-.74-.96-1.09-.4-.36-.87-.69-1.39-1.01-.52-.32-1.07-.59-1.65-.82v-1.5l5.55-3.6v1.67l-4.04,2.48c.61,.29,1.14,.61,1.61,.95,.47,.34,.88,.7,1.22,1.07,.34,.37,.62,.73,.84,1.1,.22,.36,.38,.71,.5,1.04"/>
        <path class="cls-1" d="M110.87,82.9c-.24,.43-.58,.77-1.01,1.01-.43,.24-.98,.36-1.63,.36-.23,0-.46-.02-.7-.05-.24-.04-.49-.1-.75-.19-.26-.09-.53-.22-.81-.37-.28-.16-.58-.35-.9-.58-.15,.23-.3,.41-.44,.54-.14,.13-.29,.23-.45,.29-.15,.06-.32,.1-.48,.12-.17,.02-.36,.02-.56,.02h-.18c-.23,0-.41-.05-.52-.16-.11-.11-.17-.28-.17-.52,0-.28,.05-.48,.16-.58,.11-.1,.28-.15,.52-.15h.15c.13,0,.27-.02,.41-.05,.14-.03,.27-.11,.4-.21,.13-.11,.26-.26,.38-.47,.12-.2,.23-.48,.33-.82,.2-.69,.44-1.26,.73-1.71,.29-.44,.59-.79,.92-1.05,.33-.26,.66-.43,1-.53,.34-.09,.67-.14,.98-.14,.44,0,.85,.08,1.22,.23,.37,.15,.69,.37,.96,.66,.27,.28,.48,.62,.63,1.02,.15,.4,.23,.83,.23,1.32,0,.11,0,.22,0,.32,0,.11-.01,.21-.02,.32,.11,.36,.27,.64,.48,.83,.21,.19,.45,.28,.71,.28,.23,0,.41,.05,.51,.16,.11,.11,.16,.28,.16,.52,0,.28-.05,.48-.16,.58-.11,.1-.28,.15-.52,.15-.31,0-.61-.09-.89-.27-.28-.18-.52-.47-.71-.88m-1.02-1.87c0-.29-.04-.56-.11-.8-.07-.24-.18-.45-.32-.62-.14-.17-.32-.31-.53-.4-.21-.09-.45-.14-.71-.14s-.52,.05-.76,.16c-.24,.11-.47,.28-.67,.51-.21,.23-.39,.52-.56,.88-.17,.35-.31,.78-.43,1.28,.38,.3,.78,.53,1.2,.69,.42,.16,.82,.24,1.2,.24,.53,0,.94-.14,1.24-.42,.3-.28,.45-.74,.45-1.38"/>
        <path class="cls-1" d="M112.47,84.05c-.23,0-.41-.05-.52-.16-.11-.11-.17-.28-.17-.52,0-.28,.05-.48,.16-.58,.11-.1,.28-.15,.52-.15h2.09v-10.5h1.45v11.92h-3.54Z"/>
        <rect class="cls-1" x="118.35" y="72.13" width="1.45" height="11.92"/>
        <path class="cls-1" d="M129.1,82.65c-.21,0-.42-.02-.66-.05-.23-.03-.47-.09-.7-.17-.23-.08-.46-.19-.67-.33-.21-.14-.4-.32-.57-.54-.17-.22-.3-.48-.4-.78s-.15-.66-.15-1.06c0-.61,.1-1.13,.3-1.55,.2-.42,.47-.76,.81-1.02,.33-.26,.71-.44,1.13-.56s.85-.17,1.29-.17h2.77v4.89c0,.24,.01,.44,.05,.61s.09,.3,.18,.41c.09,.11,.21,.18,.37,.23,.16,.05,.37,.07,.62,.07h.32c.23,0,.41,.05,.52,.16,.11,.11,.17,.28,.17,.52,0,.28-.05,.48-.16,.58-.11,.1-.28,.15-.53,.15h-.53c-.29,0-.58-.02-.84-.07-.27-.05-.51-.14-.72-.27-.21-.13-.39-.31-.54-.53-.15-.22-.24-.5-.29-.84-.25,.09-.53,.16-.84,.22-.31,.06-.62,.09-.92,.09m-1.69-3.06c0,.23,.03,.45,.1,.65,.07,.2,.17,.37,.32,.51,.14,.14,.33,.25,.56,.33,.23,.08,.51,.12,.83,.12,.12,0,.26,0,.4-.02,.14-.01,.29-.03,.43-.06,.14-.03,.28-.06,.41-.1,.13-.04,.26-.08,.37-.13v-3.04h-1.52c-.28,0-.53,.03-.76,.1-.23,.07-.43,.17-.6,.31-.17,.14-.3,.32-.4,.54-.09,.22-.14,.48-.14,.78m.29-6.29c0-.12,.02-.24,.07-.35,.05-.11,.11-.2,.2-.29s.18-.15,.29-.2c.11-.05,.23-.07,.35-.07,.12,0,.24,.02,.35,.07,.11,.05,.2,.11,.29,.2,.08,.08,.15,.18,.2,.29,.05,.11,.07,.22,.07,.35s-.02,.25-.07,.35c-.05,.11-.11,.2-.2,.29-.08,.08-.18,.15-.29,.2-.11,.05-.22,.07-.35,.07-.13,0-.25-.02-.35-.07-.11-.05-.2-.11-.29-.2-.08-.08-.15-.18-.2-.29-.05-.11-.07-.23-.07-.35m2.22,0c0-.12,.02-.24,.07-.35,.05-.11,.11-.2,.2-.29,.08-.08,.18-.15,.29-.2,.11-.05,.23-.07,.35-.07s.24,.02,.35,.07c.11,.05,.2,.11,.29,.2,.08,.08,.15,.18,.2,.29,.05,.11,.07,.22,.07,.35s-.02,.25-.07,.35c-.05,.11-.11,.2-.2,.29-.08,.08-.18,.15-.29,.2-.11,.05-.22,.07-.35,.07s-.25-.02-.35-.07c-.11-.05-.2-.11-.29-.2s-.15-.18-.2-.29c-.05-.11-.07-.23-.07-.35"/>
        <path class="cls-1" d="M140.65,80.77c.11,.32,.22,.59,.33,.82,.11,.23,.22,.43,.35,.58,.13,.15,.27,.27,.43,.34,.16,.08,.35,.11,.57,.11,.23,0,.41,.05,.52,.16,.11,.11,.17,.28,.17,.52,0,.28-.05,.48-.16,.58-.11,.1-.28,.15-.53,.15-.46,0-.84-.1-1.14-.3s-.56-.53-.78-.98c-.12,.27-.26,.48-.44,.65-.18,.17-.38,.3-.59,.39-.22,.09-.45,.16-.69,.19-.24,.03-.48,.05-.72,.05h-4.19c-.23,0-.41-.05-.52-.16-.11-.11-.17-.28-.17-.52,0-.28,.05-.48,.16-.58,.11-.1,.28-.15,.52-.15h4.08c.52,0,.9-.1,1.13-.29,.23-.19,.35-.45,.35-.79s-.12-.69-.36-1.06c-.24-.37-.56-.74-.96-1.09-.4-.36-.87-.69-1.39-1.01-.52-.32-1.07-.59-1.65-.82v-1.5l5.55-3.6v1.67l-4.04,2.48c.61,.29,1.14,.61,1.61,.95,.47,.34,.88,.7,1.22,1.07,.34,.37,.62,.73,.84,1.1,.22,.36,.38,.71,.5,1.04"/>
        <path class="cls-1" d="M145.12,83.07c-.15,.23-.3,.41-.46,.54-.16,.13-.32,.23-.48,.29s-.34,.1-.53,.12c-.18,.02-.38,.02-.58,.02h-.73c-.23,0-.4-.05-.52-.16-.11-.11-.17-.28-.17-.52,0-.28,.05-.48,.16-.58,.11-.1,.28-.15,.52-.15h.7c.13,0,.27-.02,.43-.05,.15-.03,.3-.11,.45-.21,.15-.11,.29-.26,.42-.47,.13-.2,.25-.48,.35-.82,.2-.69,.44-1.26,.73-1.71,.29-.44,.59-.79,.92-1.05,.33-.26,.66-.43,1-.53,.34-.09,.67-.14,.98-.14,.45,0,.85,.08,1.23,.23,.37,.15,.69,.37,.96,.66,.27,.28,.48,.62,.63,1.02,.15,.4,.23,.83,.23,1.32,0,.51-.06,.98-.18,1.4-.12,.42-.31,.78-.57,1.07-.26,.29-.58,.52-.96,.68-.39,.16-.84,.24-1.36,.24-.23,0-.46-.02-.7-.05-.24-.04-.49-.1-.75-.19-.26-.09-.53-.22-.81-.37-.28-.16-.58-.35-.9-.58m4.78-2.04c0-.29-.04-.56-.11-.8-.07-.24-.18-.45-.32-.62-.14-.17-.32-.31-.53-.4-.21-.09-.45-.14-.71-.14s-.52,.05-.76,.16c-.24,.11-.47,.28-.67,.51-.21,.23-.39,.52-.56,.88-.16,.35-.31,.78-.43,1.28,.38,.3,.78,.53,1.2,.69,.42,.16,.82,.24,1.2,.24,.53,0,.94-.14,1.24-.42,.3-.28,.45-.74,.45-1.38"/>
        <path class="cls-1" d="M160.41,82.65c-.21,0-.42-.02-.66-.05-.23-.03-.47-.09-.7-.17-.23-.08-.46-.19-.67-.33-.21-.14-.4-.32-.57-.54-.17-.22-.3-.48-.4-.78s-.15-.66-.15-1.06c0-.61,.1-1.13,.3-1.55,.2-.42,.47-.76,.81-1.02,.33-.26,.71-.44,1.13-.56s.85-.17,1.29-.17h2.77v4.89c0,.24,.01,.44,.05,.61s.09,.3,.18,.41c.09,.11,.21,.18,.37,.23,.16,.05,.37,.07,.62,.07h.32c.23,0,.41,.05,.52,.16,.11,.11,.17,.28,.17,.52,0,.28-.05,.48-.16,.58-.11,.1-.28,.15-.53,.15h-.53c-.29,0-.58-.02-.84-.07-.27-.05-.51-.14-.72-.27-.21-.13-.39-.31-.54-.53-.15-.22-.24-.5-.29-.84-.25,.09-.53,.16-.84,.22-.31,.06-.62,.09-.92,.09m-1.69-3.06c0,.23,.03,.45,.1,.65,.07,.2,.17,.37,.32,.51,.14,.14,.33,.25,.56,.33,.23,.08,.51,.12,.83,.12,.12,0,.26,0,.4-.02,.14-.01,.29-.03,.43-.06,.14-.03,.28-.06,.41-.1,.13-.04,.26-.08,.37-.13v-3.04h-1.52c-.28,0-.53,.03-.76,.1-.23,.07-.43,.17-.6,.31-.17,.14-.3,.32-.4,.54-.09,.22-.14,.48-.14,.78m.29-6.29c0-.12,.02-.24,.07-.35,.05-.11,.11-.2,.2-.29s.18-.15,.29-.2c.11-.05,.23-.07,.35-.07,.12,0,.24,.02,.35,.07,.11,.05,.2,.11,.29,.2,.08,.08,.15,.18,.2,.29,.05,.11,.07,.22,.07,.35s-.02,.25-.07,.35c-.05,.11-.11,.2-.2,.29-.08,.08-.18,.15-.29,.2-.11,.05-.22,.07-.35,.07-.13,0-.25-.02-.35-.07-.11-.05-.2-.11-.29-.2-.08-.08-.15-.18-.2-.29-.05-.11-.07-.23-.07-.35m2.22,0c0-.12,.02-.24,.07-.35,.05-.11,.11-.2,.2-.29,.08-.08,.18-.15,.29-.2,.11-.05,.23-.07,.35-.07s.24,.02,.35,.07c.11,.05,.2,.11,.29,.2,.08,.08,.15,.18,.2,.29,.05,.11,.07,.22,.07,.35s-.02,.25-.07,.35c-.05,.11-.11,.2-.2,.29-.08,.08-.18,.15-.29,.2-.11,.05-.22,.07-.35,.07s-.25-.02-.35-.07c-.11-.05-.2-.11-.29-.2s-.15-.18-.2-.29c-.05-.11-.07-.23-.07-.35"/>
        <path class="cls-1" d="M174.51,82.63c.23,0,.41,.05,.52,.16,.11,.11,.17,.28,.17,.52,0,.28-.05,.48-.16,.58-.11,.1-.28,.15-.52,.15h-9.41c-.23,0-.4-.05-.52-.16-.11-.11-.17-.28-.17-.52,0-.28,.05-.48,.16-.58,.11-.1,.28-.15,.52-.15h2.08c-.13-.24-.24-.51-.34-.8s-.15-.66-.15-1.07c0-.5,.08-.97,.24-1.39,.16-.43,.39-.8,.68-1.12,.29-.32,.65-.56,1.07-.74s.89-.27,1.41-.27c.65,0,1.18,.11,1.59,.34,.41,.23,.74,.52,.98,.87,.24,.35,.4,.74,.49,1.17,.09,.43,.14,.84,.14,1.25v1.76h1.22Zm-6.58-8.03c0-.12,.02-.24,.07-.35,.05-.11,.11-.2,.2-.29,.08-.08,.18-.15,.29-.2,.11-.05,.23-.07,.36-.07,.12,0,.24,.02,.35,.07,.11,.05,.2,.11,.29,.2,.08,.08,.15,.18,.2,.29,.05,.11,.07,.22,.07,.35,0,.13-.02,.25-.07,.35-.05,.11-.11,.2-.2,.29-.08,.08-.18,.15-.29,.2-.11,.05-.22,.07-.35,.07-.13,0-.25-.02-.36-.07-.11-.05-.2-.11-.29-.2-.08-.08-.15-.18-.2-.29-.05-.11-.07-.22-.07-.35m.22,6.01c0,.34,.05,.64,.16,.9,.11,.25,.25,.46,.44,.63,.19,.17,.41,.29,.67,.37,.26,.08,.54,.12,.85,.12h1.57v-1.71c0-.28-.02-.56-.07-.83-.05-.28-.14-.53-.27-.75-.14-.22-.33-.4-.57-.54-.25-.14-.57-.21-.97-.21-.27,0-.51,.05-.73,.16-.22,.11-.41,.25-.57,.44-.16,.18-.28,.4-.37,.64-.08,.24-.13,.51-.13,.78m1.99-6.01c0-.12,.02-.24,.07-.35,.05-.11,.11-.2,.2-.29,.08-.08,.18-.15,.29-.2,.11-.05,.23-.07,.35-.07s.24,.02,.35,.07c.11,.05,.2,.11,.29,.2,.08,.08,.15,.18,.2,.29,.05,.11,.07,.22,.07,.35,0,.13-.02,.25-.07,.35-.05,.11-.11,.2-.2,.29-.08,.08-.18,.15-.29,.2-.11,.05-.22,.07-.35,.07s-.25-.02-.35-.07c-.11-.05-.2-.11-.29-.2-.08-.08-.15-.18-.2-.29-.05-.11-.07-.22-.07-.35"/>
        <path class="cls-1" d="M187.59,82.63c.23,0,.4,.05,.52,.16,.11,.11,.17,.28,.17,.52,0,.28-.05,.48-.16,.58-.11,.1-.28,.15-.52,.15h-13.08c-.23,0-.4-.05-.52-.16-.11-.11-.17-.28-.17-.52,0-.28,.05-.48,.16-.58,.11-.1,.28-.15,.52-.15h2.14v-10.5h1.45v7.95c.62-.97,1.32-1.69,2.1-2.15,.78-.46,1.63-.69,2.56-.69,.57,0,1.08,.09,1.53,.27,.45,.18,.83,.44,1.13,.78,.31,.34,.54,.75,.71,1.23,.16,.49,.25,1.04,.25,1.65v1.47h1.21Zm-2.66,0v-1.42c0-.32-.03-.64-.1-.95-.07-.31-.19-.59-.37-.82-.18-.24-.43-.43-.73-.58-.31-.15-.71-.22-1.19-.22-.36,0-.71,.06-1.04,.16-.33,.11-.64,.26-.94,.45-.29,.19-.57,.42-.83,.67s-.49,.53-.7,.83-.39,.61-.55,.93c-.16,.32-.29,.64-.39,.95h6.83Z"/>
        <path class="cls-1" d="M187.59,84.05c-.23,0-.41-.05-.52-.16-.11-.11-.17-.28-.17-.52,0-.28,.05-.48,.16-.58,.11-.1,.28-.15,.52-.15h1.28c.21,0,.39-.01,.57-.03,.17-.02,.32-.07,.44-.16,.12-.08,.21-.21,.28-.38,.07-.17,.1-.39,.1-.67v-3.91h1.47v3.28c0,.28,.02,.54,.07,.78,.05,.23,.13,.43,.25,.59s.27,.29,.47,.38c.2,.09,.45,.13,.75,.13,.23,0,.41,.05,.52,.16,.11,.11,.17,.28,.17,.52,0,.28-.05,.48-.16,.58-.11,.1-.28,.15-.52,.15-.18,0-.37-.02-.55-.07-.18-.05-.35-.11-.51-.2-.15-.08-.29-.19-.41-.3-.12-.12-.21-.24-.28-.38-.11,.21-.25,.37-.43,.5-.18,.12-.36,.22-.56,.29-.2,.07-.41,.12-.62,.14s-.42,.03-.6,.03h-1.7Zm2.56-9.45c0-.12,.02-.24,.07-.35,.05-.11,.11-.2,.2-.29,.08-.08,.18-.15,.29-.2,.11-.05,.23-.07,.35-.07,.12,0,.24,.02,.35,.07,.11,.05,.2,.11,.29,.2,.08,.08,.15,.18,.2,.29,.05,.11,.07,.22,.07,.35,0,.13-.02,.25-.07,.35-.05,.11-.11,.2-.2,.29-.08,.08-.18,.15-.29,.2-.11,.05-.22,.07-.35,.07-.13,0-.25-.02-.35-.07-.11-.05-.2-.11-.29-.2-.08-.08-.15-.18-.2-.29-.05-.11-.07-.22-.07-.35"/>
        <path class="cls-1" d="M201.17,82.9c-.24,.43-.58,.77-1.01,1.01-.43,.24-.98,.36-1.63,.36-.23,0-.46-.02-.7-.05-.24-.04-.49-.1-.75-.19-.26-.09-.53-.22-.81-.37-.28-.16-.58-.35-.9-.58-.15,.23-.3,.41-.44,.54-.14,.13-.29,.23-.45,.29-.15,.06-.32,.1-.48,.12-.17,.02-.36,.02-.56,.02h-.18c-.23,0-.41-.05-.52-.16-.11-.11-.17-.28-.17-.52,0-.28,.05-.48,.16-.58s.28-.15,.52-.15h.15c.13,0,.27-.02,.4-.05,.14-.03,.27-.11,.41-.21,.13-.11,.26-.26,.38-.47,.12-.2,.23-.48,.33-.82,.2-.69,.44-1.26,.73-1.71,.29-.44,.59-.79,.92-1.05,.33-.26,.66-.43,1-.53,.34-.09,.67-.14,.98-.14,.44,0,.85,.08,1.22,.23,.37,.15,.69,.37,.96,.66,.27,.28,.48,.62,.63,1.02,.15,.4,.23,.83,.23,1.32,0,.11,0,.22,0,.32,0,.11-.01,.21-.02,.32,.11,.36,.27,.64,.48,.83,.21,.19,.45,.28,.71,.28,.23,0,.41,.05,.51,.16,.11,.11,.16,.28,.16,.52,0,.28-.05,.48-.16,.58-.11,.1-.28,.15-.52,.15-.31,0-.61-.09-.89-.27-.28-.18-.52-.47-.71-.88m-1.02-1.87c0-.29-.04-.56-.11-.8-.07-.24-.18-.45-.32-.62-.14-.17-.32-.31-.53-.4-.21-.09-.45-.14-.71-.14s-.52,.05-.76,.16c-.24,.11-.47,.28-.67,.51-.21,.23-.39,.52-.56,.88-.17,.35-.31,.78-.43,1.28,.38,.3,.78,.53,1.2,.69,.42,.16,.82,.24,1.2,.24,.53,0,.94-.14,1.24-.42,.3-.28,.45-.74,.45-1.38"/>
        <path class="cls-1" d="M202.78,84.05c-.23,0-.41-.05-.52-.16-.11-.11-.17-.28-.17-.52,0-.28,.05-.48,.16-.58,.11-.1,.28-.15,.52-.15h2.61v-5.15h1.45v6.57h-4.06Zm2.17,2.73c0-.12,.02-.24,.07-.35,.05-.11,.11-.2,.2-.29,.08-.08,.18-.15,.29-.2,.11-.05,.23-.07,.35-.07,.12,0,.24,.02,.35,.07,.11,.05,.2,.11,.29,.2,.08,.08,.15,.18,.2,.29,.05,.11,.07,.22,.07,.35,0,.13-.02,.25-.07,.35-.05,.11-.11,.2-.2,.29-.08,.08-.18,.15-.29,.2-.11,.05-.22,.07-.35,.07-.13,0-.25-.02-.35-.07-.11-.05-.2-.11-.29-.2-.08-.08-.15-.18-.2-.29-.05-.11-.07-.22-.07-.35"/>
      </g>
    </g>
    <g>
      <path class="cls-1" d="M250.05,41.87l-6.97-4.03-6.97,4.03c-5.73,3.32-10.32,8.13-13.39,13.78v-15.91l2.51-3.52,2.51,3.52v6.01c1.39-1.55,2.94-2.91,4.3-3.98v-3.4l-4.17-5.85,4.17-5.85v-8.21l-5.9-5.55c.47-.3,.78-.83,.78-1.43,0-.46-.18-.88-.48-1.19,.06,0,.12-.01,.18-.02,2.54-.43,4.38-2.52,4.61-4.98-.73,1.06-1.88,1.83-3.25,2.06-2.71,.46-5.27-1.36-5.73-4.07-.2-1.18,.03-2.33,.58-3.29-1.91,1.14-3.03,3.38-2.63,5.71,.37,2.2,1.98,3.87,3.99,4.44-.4,.3-.65,.79-.65,1.33,0,.6,.31,1.13,.78,1.43l-5.9,5.55v8.21l4.17,5.85-4.17,5.85v49.37h4.3v-15.21c0-11.06,5.96-21.38,15.54-26.93l4.82-2.79,4.81,2.79c9.59,5.55,15.54,15.87,15.54,26.93v15.21h4.3v-15.21c0-12.59-6.78-24.34-17.69-30.66m-27.33-21.55l2.51-2.37,2.51,2.37v4.97l-2.51,3.52-2.51-3.52v-4.97Z"/>
      <path class="cls-2" d="M243.09,60.61l-12.27,6.76v16.99l12.27,3.21,.06,.02,12.2-3.23v-16.98l-12.27-6.76Zm9.64,21.73l-9.64,2.31-9.64-2.32v-6.54l9.64-3.27,9.64,3.25v6.57Zm0-8.85l-9.64-4.25-9.64,4.65v-4.98l9.64-5.08,9.64,5.08v4.58Z"/>
    </g>
  </g>
</svg>