<?xml version="1.0" encoding="UTF-8"?>
<svg id="Layer_2" data-name="Layer 2" xmlns="http://www.w3.org/2000/svg" viewBox="0 0 183.03 251.21">
  <defs>
    <style>
      .cls-1 {
        fill: #fff;
      }
    </style>
  </defs>
  <g id="Layer_1-2" data-name="Layer 1">
    <path class="cls-1" d="M9.04,225.46c-.2,0-.39-.01-.57-.04-.18-.03-.35-.08-.51-.16-.16-.08-.31-.18-.46-.32-.15-.13-.28-.31-.41-.51-.22,.24-.46,.43-.71,.57-.25,.14-.51,.24-.78,.31-.27,.07-.54,.11-.83,.13-.29,.02-.57,.03-.86,.03H0v-2.59H4.47c.35,0,.61-.04,.79-.12,.18-.08,.26-.22,.26-.43,0-.09-.02-.18-.05-.27-.03-.1-.09-.21-.17-.35-.08-.14-.18-.3-.31-.5-.13-.2-.29-.44-.48-.72l-2.07-3.05,2.68-1.7,2.8,4.58c.3,.49,.55,.89,.76,1.22,.21,.33,.4,.59,.56,.79,.16,.2,.31,.34,.44,.42,.14,.09,.28,.13,.43,.13,.12,0,.24,.01,.34,.03,.11,.02,.2,.07,.28,.15,.08,.08,.14,.21,.19,.37,.05,.17,.07,.39,.07,.67,0,.51-.07,.87-.21,1.06-.14,.2-.36,.29-.67,.29h-1.08Z"/>
    <path class="cls-1" d="M18.16,222.87c-.04-.61-.14-1.16-.28-1.67-.15-.51-.37-.94-.67-1.31-.3-.36-.7-.65-1.18-.85-.48-.2-1.08-.3-1.8-.3-.11,0-.27,0-.46,.03-.2,.02-.42,.04-.66,.08-.24,.03-.5,.08-.77,.13-.27,.05-.54,.12-.8,.2v-2.62c.18-.06,.39-.13,.63-.2,.24-.07,.51-.14,.79-.19,.28-.06,.58-.1,.89-.14,.31-.04,.62-.06,.94-.06,1.18,0,2.17,.2,2.98,.61,.81,.41,1.46,.95,1.96,1.64,.5,.68,.86,1.47,1.08,2.36,.22,.89,.33,1.81,.33,2.78v2.11H10.13c-.12,0-.24-.01-.34-.03-.11-.02-.2-.07-.28-.15-.08-.08-.14-.21-.19-.38-.05-.17-.07-.4-.07-.69,0-.51,.07-.87,.21-1.05,.14-.19,.36-.28,.67-.28h8.04Zm-4.32,5.79c0-.2,.04-.39,.11-.57,.07-.18,.18-.34,.31-.47,.13-.13,.29-.24,.46-.32,.17-.07,.36-.11,.57-.11s.39,.04,.57,.11c.18,.07,.33,.18,.47,.32,.13,.14,.24,.29,.32,.47,.08,.18,.12,.37,.12,.57s-.04,.39-.12,.57c-.08,.18-.18,.33-.32,.46-.13,.13-.29,.24-.47,.32-.18,.08-.37,.12-.57,.12s-.4-.04-.57-.12c-.18-.08-.33-.18-.46-.32-.13-.13-.24-.29-.31-.46-.08-.18-.11-.37-.11-.57"/>
    <path class="cls-1" d="M28.85,224.1c0,.51-.07,.87-.21,1.07-.14,.2-.36,.29-.66,.29h-.96c-.51,0-.98-.06-1.41-.17-.42-.11-.79-.3-1.1-.56-.31-.26-.55-.61-.72-1.05-.17-.44-.26-.99-.26-1.64v-11.89h2.96v11.5c0,.26,.02,.48,.07,.64,.05,.16,.11,.28,.2,.37,.09,.09,.2,.14,.34,.17,.14,.03,.29,.04,.47,.04h.42c.11,0,.22,.01,.33,.03,.11,.02,.2,.07,.28,.15,.08,.08,.14,.21,.19,.37s.08,.39,.08,.67"/>
    <path class="cls-1" d="M33.01,224.28c-.2,.26-.43,.48-.7,.63-.26,.16-.56,.28-.9,.36-.34,.08-.71,.14-1.13,.16-.42,.03-.88,.04-1.38,.04h-.96c-.12,0-.23-.01-.34-.03-.11-.02-.2-.07-.28-.15-.08-.08-.14-.21-.19-.38-.05-.17-.07-.4-.07-.69,0-.51,.07-.87,.21-1.05,.14-.19,.36-.28,.67-.28h1.01c.33,0,.6,0,.82-.03,.22-.02,.4-.07,.53-.14,.14-.07,.23-.19,.29-.33s.08-.34,.08-.59v-4.32h2.95v3.84c0,.49,.13,.88,.38,1.16,.25,.28,.67,.42,1.25,.42,.21,0,.41-.01,.59-.04,.18-.03,.33-.08,.45-.17s.22-.19,.3-.33c.07-.14,.11-.32,.11-.55v-4.32h2.95v3.84c0,.27,.02,.51,.06,.7,.04,.2,.12,.36,.24,.49,.11,.13,.27,.22,.47,.29,.2,.06,.46,.1,.77,.1,.19,0,.36-.01,.51-.04,.16-.03,.29-.09,.4-.17,.11-.09,.2-.2,.26-.35,.07-.15,.1-.35,.1-.59v-5.24h2.95v4.83c0,.29,.03,.53,.09,.73,.06,.2,.16,.36,.29,.49,.14,.12,.33,.22,.57,.27,.24,.06,.55,.09,.91,.09,.12,0,.23,0,.33,.03,.11,.02,.2,.07,.28,.15,.08,.08,.14,.21,.19,.37,.05,.16,.08,.39,.08,.67,0,.51-.07,.87-.21,1.07-.14,.2-.36,.29-.66,.29-.22,0-.45-.02-.67-.05-.23-.03-.45-.1-.66-.19-.21-.09-.42-.21-.61-.37-.19-.16-.35-.36-.49-.6-.21,.27-.43,.49-.66,.64-.23,.16-.47,.28-.71,.36-.24,.09-.48,.14-.72,.17-.23,.03-.46,.04-.67,.04-.41,0-.76-.03-1.07-.08-.3-.05-.57-.13-.8-.24-.23-.1-.43-.23-.6-.38-.17-.15-.33-.31-.47-.5-.19,.25-.4,.45-.63,.61-.22,.16-.46,.28-.71,.36-.25,.08-.5,.14-.77,.17-.26,.03-.53,.04-.79,.04-1.56,0-2.64-.4-3.26-1.19"/>
    <path class="cls-1" d="M58.31,223.95c-.41,.56-.92,1-1.54,1.31-.62,.31-1.34,.46-2.15,.46-.56,0-1.15-.08-1.77-.25s-1.28-.48-1.98-.94c-.2,.22-.4,.39-.59,.51-.2,.12-.4,.21-.6,.27-.2,.06-.41,.1-.63,.11-.22,.01-.45,.02-.69,.02h-1.06c-.12,0-.24-.01-.34-.03-.11-.02-.2-.07-.28-.15-.08-.08-.14-.21-.19-.38-.05-.17-.07-.4-.07-.69,0-.51,.07-.87,.21-1.06,.14-.19,.36-.28,.67-.28h.39c.2,0,.38-.02,.55-.07,.17-.05,.32-.13,.47-.26,.14-.13,.28-.31,.4-.54,.12-.23,.24-.53,.35-.9,.23-.97,.53-1.78,.87-2.43s.74-1.18,1.17-1.58c.43-.4,.91-.68,1.43-.86,.52-.17,1.06-.26,1.63-.26,.69,0,1.32,.12,1.89,.37,.57,.25,1.05,.6,1.46,1.04,.41,.44,.72,.97,.94,1.58,.22,.61,.33,1.28,.33,2.01,0,.33-.02,.64-.06,.92,.07,.18,.17,.33,.29,.46,.12,.12,.25,.23,.38,.31,.13,.08,.26,.14,.4,.17,.13,.04,.24,.05,.34,.05,.12,0,.23,.01,.34,.03,.11,.02,.2,.07,.28,.15s.14,.21,.19,.37c.05,.17,.07,.39,.07,.67,0,.51-.07,.87-.21,1.07-.14,.2-.36,.29-.67,.29-.18,0-.36-.02-.56-.07-.19-.05-.39-.13-.58-.24-.19-.11-.38-.27-.56-.46-.18-.19-.35-.44-.51-.74m-2.09-3.05c0-.24-.03-.5-.09-.76-.06-.27-.16-.51-.29-.74-.14-.22-.31-.41-.53-.56-.22-.15-.48-.23-.79-.23s-.58,.08-.85,.25c-.27,.17-.52,.41-.75,.72-.22,.31-.41,.7-.56,1.17-.15,.46-.25,.99-.29,1.57,.32,.21,.67,.38,1.04,.51,.37,.13,.76,.2,1.14,.2,.24,0,.48-.03,.72-.08,.23-.05,.45-.16,.63-.31,.19-.15,.34-.37,.45-.65,.11-.28,.17-.64,.17-1.09"/>
    <path class="cls-1" d="M63.06,222.87v-12.72h2.95v15.31h-5.49c-.12,0-.23-.01-.34-.03-.11-.02-.2-.07-.28-.15-.08-.08-.14-.21-.19-.38-.05-.17-.07-.4-.07-.69,0-.51,.07-.87,.21-1.06,.14-.19,.36-.28,.67-.28h2.54Z"/>
    <rect class="cls-1" x="68.68" y="210.16" width="2.95" height="15.31"/>
    <path class="cls-1" d="M88.44,225.46c-.36,0-.72-.03-1.06-.08-.34-.05-.65-.15-.94-.28-.29-.13-.54-.32-.76-.56-.22-.24-.38-.54-.5-.9-.26,.06-.53,.1-.8,.14-.27,.04-.54,.05-.81,.05-.25,0-.53-.02-.84-.07-.31-.05-.63-.13-.95-.25-.32-.12-.63-.28-.94-.48-.3-.2-.57-.45-.81-.76-.24-.31-.42-.67-.57-1.09-.14-.42-.21-.91-.21-1.48,0-.82,.15-1.52,.44-2.09,.29-.57,.67-1.04,1.13-1.4,.46-.36,.97-.62,1.53-.78,.56-.16,1.11-.24,1.65-.24h3.88v6.74c0,.36,.05,.6,.14,.73,.1,.13,.3,.19,.62,.19h1.1c.12,0,.23,.01,.34,.03,.11,.02,.2,.07,.28,.15,.08,.08,.14,.21,.19,.37,.05,.16,.07,.39,.07,.67,0,.51-.07,.87-.21,1.07-.14,.2-.36,.29-.67,.29h-1.33Zm-7.51-13.91c0-.2,.04-.39,.11-.57,.08-.18,.18-.34,.32-.47s.29-.24,.47-.32c.17-.07,.37-.11,.57-.11s.39,.04,.56,.11,.33,.18,.46,.32c.13,.14,.24,.29,.32,.47,.08,.18,.12,.37,.12,.57s-.04,.39-.12,.57c-.08,.18-.18,.33-.32,.47-.13,.13-.29,.24-.46,.32-.17,.08-.36,.12-.56,.12s-.4-.04-.57-.12c-.18-.08-.33-.18-.47-.32-.14-.13-.24-.29-.32-.47-.08-.18-.11-.37-.11-.57m1.22,8.04c0,.19,.02,.39,.07,.59,.04,.2,.12,.38,.24,.54,.12,.16,.28,.29,.49,.39,.21,.1,.47,.15,.79,.15,.18,0,.38,0,.58-.02,.2-.01,.41-.06,.64-.14v-3.3h-1.13c-.28,0-.52,.05-.73,.15-.21,.1-.39,.23-.52,.39-.14,.16-.24,.35-.31,.57-.07,.21-.1,.44-.1,.68m2.42-8.04c0-.2,.04-.39,.11-.57,.07-.18,.18-.34,.31-.47,.13-.14,.29-.24,.46-.32,.17-.07,.36-.11,.57-.11s.39,.04,.57,.11c.18,.07,.33,.18,.47,.32,.13,.14,.24,.29,.32,.47,.08,.18,.12,.37,.12,.57s-.04,.39-.12,.57c-.08,.18-.18,.33-.32,.47-.13,.13-.29,.24-.47,.32-.18,.08-.37,.12-.57,.12s-.4-.04-.57-.12c-.18-.08-.33-.18-.46-.32-.13-.13-.24-.29-.31-.47-.08-.18-.11-.37-.11-.57"/>
    <path class="cls-1" d="M89.77,225.46c-.12,0-.23-.01-.34-.03-.11-.02-.2-.07-.28-.15-.08-.08-.14-.21-.19-.38-.05-.17-.07-.4-.07-.69,0-.51,.07-.87,.21-1.05,.14-.19,.36-.28,.67-.28h3.58v-6.4h2.95v8.99h-6.53Zm.43,3.24c0-.2,.04-.39,.11-.57,.07-.18,.18-.34,.31-.47,.14-.14,.29-.24,.47-.32,.18-.07,.37-.11,.57-.11s.39,.04,.56,.11,.33,.18,.46,.32c.13,.14,.24,.29,.32,.47,.08,.18,.12,.37,.12,.57s-.04,.39-.12,.57c-.08,.18-.18,.33-.32,.47-.13,.13-.29,.24-.46,.32-.17,.08-.36,.12-.56,.12s-.4-.04-.57-.12c-.17-.08-.33-.18-.47-.32-.13-.13-.24-.29-.31-.47-.08-.18-.11-.37-.11-.57m3.64,0c0-.2,.04-.39,.11-.57,.08-.18,.18-.34,.31-.47,.13-.14,.29-.24,.46-.32,.17-.07,.36-.11,.57-.11s.39,.04,.57,.11c.18,.07,.33,.18,.47,.32,.13,.14,.24,.29,.32,.47,.08,.18,.12,.37,.12,.57s-.04,.39-.12,.57c-.08,.18-.18,.33-.32,.47-.13,.13-.29,.24-.47,.32-.18,.08-.37,.12-.57,.12s-.4-.04-.57-.12c-.17-.08-.33-.18-.46-.32-.13-.13-.23-.29-.31-.47s-.11-.37-.11-.57"/>
    <path class="cls-1" d="M104.29,224.1c0,.51-.07,.87-.21,1.07-.14,.2-.36,.29-.66,.29h-.96c-.51,0-.98-.06-1.41-.17-.42-.11-.79-.3-1.1-.56-.31-.26-.55-.61-.72-1.05-.17-.44-.26-.99-.26-1.64v-11.89h2.96v11.5c0,.26,.02,.48,.07,.64,.05,.16,.11,.28,.2,.37,.09,.09,.2,.14,.34,.17,.14,.03,.29,.04,.47,.04h.42c.11,0,.22,.01,.33,.03,.11,.02,.2,.07,.28,.15,.08,.08,.14,.21,.19,.37s.08,.39,.08,.67"/>
    <path class="cls-1" d="M104.75,222.87c.26,0,.47-.02,.65-.05,.17-.03,.32-.1,.43-.19,.11-.09,.19-.23,.24-.4,.05-.17,.07-.4,.07-.68v-5.08h2.96v4.83c0,.29,.03,.53,.09,.73,.06,.2,.15,.36,.29,.49,.14,.12,.33,.21,.57,.27,.24,.06,.55,.09,.91,.09,.11,0,.22,0,.33,.03,.11,.02,.2,.07,.28,.16,.08,.08,.14,.21,.19,.37,.05,.16,.08,.39,.08,.67,0,.51-.07,.87-.21,1.07-.14,.2-.36,.29-.66,.29-.22,0-.44-.01-.66-.04-.22-.03-.44-.08-.64-.17-.21-.08-.41-.2-.6-.35-.19-.15-.37-.35-.52-.6-.19,.27-.41,.48-.66,.64-.25,.15-.52,.27-.8,.35-.28,.08-.58,.13-.89,.15-.31,.02-.62,.03-.93,.03h-1.84c-.12,0-.24-.01-.34-.03-.11-.02-.2-.07-.28-.15-.08-.08-.14-.21-.19-.38-.05-.17-.07-.4-.07-.69,0-.51,.07-.87,.21-1.05,.14-.19,.36-.28,.67-.28h1.36Zm1.39-10.21c0-.2,.04-.39,.11-.57,.08-.18,.18-.34,.32-.47,.14-.13,.29-.24,.47-.32s.37-.11,.57-.11,.39,.04,.56,.11c.17,.07,.33,.18,.46,.32,.13,.14,.24,.29,.32,.47,.08,.18,.12,.37,.12,.57s-.04,.39-.12,.57c-.08,.18-.18,.33-.32,.47-.13,.13-.29,.24-.46,.32-.18,.08-.36,.12-.56,.12s-.4-.04-.57-.12c-.17-.08-.33-.18-.47-.32-.14-.13-.24-.29-.32-.47-.08-.18-.11-.37-.11-.57"/>
    <path class="cls-1" d="M113.11,222.87c-.07-.15-.13-.32-.19-.52-.05-.2-.1-.4-.14-.61-.04-.21-.07-.41-.09-.6-.02-.19-.03-.36-.03-.5,0-.8,.15-1.49,.45-2.08,.3-.59,.69-1.07,1.17-1.46,.48-.38,1.02-.67,1.62-.85,.6-.18,1.19-.28,1.79-.28,.24,0,.49,.01,.74,.04s.49,.07,.72,.11c.23,.05,.44,.1,.64,.15,.2,.05,.36,.11,.49,.16v2.66c-.24-.04-.48-.07-.73-.11s-.49-.08-.72-.11c-.23-.04-.43-.07-.62-.09s-.33-.03-.43-.03c-.44,0-.82,.05-1.13,.15-.31,.1-.56,.24-.76,.42-.2,.17-.34,.38-.43,.62-.09,.24-.14,.49-.14,.76,0,.3,.04,.58,.13,.85,.09,.26,.23,.49,.43,.69,.2,.2,.45,.35,.77,.46,.31,.11,.69,.17,1.14,.17h3.57v2.59h-10.4c-.12,0-.24-.01-.34-.03-.11-.02-.2-.07-.28-.15-.08-.08-.14-.21-.19-.38-.05-.17-.07-.4-.07-.69,0-.51,.07-.87,.21-1.06,.14-.19,.36-.28,.67-.28h2.16Z"/>
    <path class="cls-1" d="M137.46,225.46c-.36,0-.72-.03-1.06-.08-.34-.05-.65-.15-.94-.28-.29-.13-.54-.32-.76-.56-.22-.24-.38-.54-.5-.9-.26,.06-.53,.1-.8,.14-.27,.04-.54,.05-.81,.05-.25,0-.53-.02-.84-.07-.31-.05-.63-.13-.95-.25-.32-.12-.63-.28-.94-.48-.3-.2-.57-.45-.81-.76-.24-.31-.42-.67-.57-1.09-.14-.42-.21-.91-.21-1.48,0-.82,.15-1.52,.44-2.09,.29-.57,.67-1.04,1.13-1.4,.46-.36,.97-.62,1.53-.78,.56-.16,1.11-.24,1.65-.24h3.87v6.74c0,.36,.05,.6,.14,.73,.1,.13,.3,.19,.62,.19h1.1c.12,0,.23,.01,.34,.03,.11,.02,.2,.07,.28,.15,.08,.08,.14,.21,.19,.37,.05,.16,.07,.39,.07,.67,0,.51-.07,.87-.21,1.07-.14,.2-.36,.29-.67,.29h-1.33Zm-7.51-13.91c0-.2,.04-.39,.11-.57,.08-.18,.18-.34,.32-.47s.29-.24,.47-.32c.17-.07,.37-.11,.57-.11s.39,.04,.56,.11,.33,.18,.46,.32c.13,.14,.24,.29,.32,.47,.08,.18,.12,.37,.12,.57s-.04,.39-.12,.57c-.08,.18-.18,.33-.32,.47-.13,.13-.29,.24-.46,.32-.17,.08-.36,.12-.56,.12s-.4-.04-.57-.12c-.18-.08-.33-.18-.47-.32-.14-.13-.24-.29-.32-.47-.08-.18-.11-.37-.11-.57m1.22,8.04c0,.19,.02,.39,.06,.59,.04,.2,.12,.38,.24,.54,.12,.16,.28,.29,.49,.39,.21,.1,.47,.15,.79,.15,.18,0,.38,0,.58-.02,.2-.01,.41-.06,.64-.14v-3.3h-1.13c-.28,0-.52,.05-.73,.15-.21,.1-.39,.23-.52,.39-.14,.16-.24,.35-.31,.57-.07,.21-.1,.44-.1,.68m2.42-8.04c0-.2,.04-.39,.11-.57,.07-.18,.18-.34,.31-.47,.13-.14,.29-.24,.46-.32,.17-.07,.36-.11,.57-.11s.39,.04,.57,.11c.18,.07,.33,.18,.47,.32,.13,.14,.24,.29,.32,.47,.08,.18,.12,.37,.12,.57s-.04,.39-.12,.57c-.08,.18-.18,.33-.32,.47-.13,.13-.29,.24-.47,.32-.18,.08-.37,.12-.57,.12s-.4-.04-.57-.12c-.18-.08-.33-.18-.46-.32-.13-.13-.24-.29-.31-.47-.08-.18-.11-.37-.11-.57"/>
    <path class="cls-1" d="M146.88,225.46c-.23,0-.46-.01-.7-.04-.23-.03-.46-.08-.69-.17-.22-.08-.44-.2-.64-.35s-.38-.35-.53-.6c-.18,.27-.39,.48-.64,.64-.25,.15-.52,.27-.81,.35-.29,.08-.59,.13-.9,.15-.31,.02-.61,.03-.91,.03h-2.28c-.12,0-.23-.01-.34-.03-.11-.02-.2-.07-.28-.15-.08-.08-.14-.21-.19-.38-.05-.17-.07-.4-.07-.69,0-.51,.07-.87,.21-1.05,.14-.19,.36-.28,.67-.28h1.8c.26,0,.47-.02,.65-.05,.17-.03,.32-.09,.43-.19,.11-.09,.19-.23,.24-.4,.05-.17,.07-.4,.07-.68v-5.08h2.93v4.83c0,.29,.03,.53,.1,.73,.07,.2,.18,.36,.33,.49,.15,.12,.36,.22,.61,.27,.25,.06,.57,.09,.94,.09,.11,0,.22,0,.33,.03,.11,.02,.2,.07,.28,.16,.08,.08,.14,.21,.19,.37,.05,.16,.08,.39,.08,.67,0,.51-.07,.87-.21,1.07-.14,.2-.36,.29-.66,.29m-6.87,3.24c0-.2,.04-.39,.11-.57,.08-.18,.18-.34,.32-.47,.14-.14,.29-.24,.47-.32s.37-.11,.57-.11,.39,.04,.56,.11,.33,.18,.46,.32c.13,.14,.24,.29,.32,.47,.08,.18,.12,.37,.12,.57s-.04,.39-.12,.57c-.08,.18-.18,.33-.32,.47-.13,.13-.29,.24-.46,.32-.17,.08-.36,.12-.56,.12s-.4-.04-.57-.12c-.17-.08-.33-.18-.47-.32-.14-.13-.24-.29-.32-.47s-.11-.37-.11-.57m3.64,0c0-.2,.04-.39,.11-.57,.07-.18,.18-.34,.31-.47,.13-.14,.29-.24,.46-.32,.17-.07,.36-.11,.57-.11s.39,.04,.57,.11c.18,.07,.33,.18,.47,.32,.13,.14,.24,.29,.32,.47,.08,.18,.12,.37,.12,.57s-.04,.39-.12,.57c-.08,.18-.18,.33-.32,.47-.13,.13-.29,.24-.47,.32-.18,.08-.37,.12-.57,.12s-.4-.04-.57-.12c-.18-.08-.33-.18-.46-.32-.13-.13-.24-.29-.31-.47-.08-.18-.11-.37-.11-.57"/>
    <path class="cls-1" d="M148.83,222.87c.32,0,.65-.01,1-.03s.68-.06,1-.12l-2.26-2.92c.04-.2,.1-.41,.18-.63,.08-.22,.16-.43,.25-.63,.09-.2,.19-.39,.3-.56,.1-.17,.2-.3,.3-.4,.47-.51,1.05-.91,1.74-1.19,.69-.28,1.43-.42,2.23-.42,.69,0,1.3,.09,1.81,.27,.52,.18,.94,.41,1.28,.71,.34,.29,.59,.63,.76,1.01,.17,.38,.25,.76,.25,1.16,0,.26-.05,.55-.14,.87-.09,.33-.23,.66-.4,1-.17,.34-.39,.68-.65,1.01-.26,.33-.56,.62-.89,.89h3.24c.12,0,.24,0,.34,.03,.11,.02,.2,.07,.28,.16,.08,.08,.14,.21,.19,.37,.05,.16,.07,.39,.07,.67,0,.51-.07,.87-.21,1.07-.14,.2-.36,.29-.66,.29h-3.24c-.19,0-.4-.02-.63-.05-.23-.03-.46-.08-.69-.14-.24-.06-.47-.15-.7-.26-.23-.11-.45-.24-.65-.39-.67,.25-1.33,.45-1.98,.6-.65,.15-1.31,.23-2.01,.23h-2.05c-.12,0-.23-.01-.34-.03-.11-.02-.2-.07-.28-.15-.08-.08-.14-.21-.19-.38-.05-.17-.07-.4-.07-.69,0-.51,.07-.86,.21-1.05,.14-.19,.36-.28,.67-.28h1.96Zm4.66-4.37c-.54,0-.98,.07-1.33,.2-.35,.13-.64,.27-.86,.42,.14,.19,.3,.4,.48,.65,.18,.25,.36,.5,.56,.76,.19,.26,.38,.5,.57,.73,.19,.23,.37,.42,.53,.57,.2-.13,.38-.29,.55-.49,.16-.2,.3-.4,.42-.62,.12-.22,.21-.43,.27-.64,.06-.21,.1-.4,.1-.55,0-.11-.02-.22-.04-.35-.03-.12-.09-.24-.18-.34-.09-.1-.22-.18-.39-.25-.17-.07-.39-.1-.67-.1"/>
    <path class="cls-1" d="M169.84,223.95c-.41,.56-.92,1-1.54,1.31-.62,.31-1.34,.46-2.15,.46-.56,0-1.15-.08-1.77-.25s-1.28-.48-1.98-.94c-.2,.22-.4,.39-.59,.51-.2,.12-.4,.21-.6,.27-.2,.06-.41,.1-.63,.11-.22,.01-.45,.02-.69,.02h-1.06c-.12,0-.24-.01-.34-.03-.11-.02-.2-.07-.28-.15-.08-.08-.14-.21-.19-.38-.05-.17-.07-.4-.07-.69,0-.51,.07-.87,.21-1.06,.14-.19,.36-.28,.67-.28h.39c.2,0,.38-.02,.55-.07,.17-.05,.32-.13,.47-.26,.14-.13,.28-.31,.4-.54,.12-.23,.24-.53,.35-.9,.23-.97,.53-1.78,.87-2.43s.74-1.18,1.17-1.58c.43-.4,.91-.68,1.43-.86,.52-.17,1.06-.26,1.63-.26,.69,0,1.32,.12,1.89,.37,.57,.25,1.05,.6,1.46,1.04,.41,.44,.72,.97,.94,1.58,.22,.61,.33,1.28,.33,2.01,0,.33-.02,.64-.06,.92,.07,.18,.17,.33,.29,.46,.12,.12,.25,.23,.38,.31,.13,.08,.26,.14,.4,.17,.13,.04,.24,.05,.34,.05,.12,0,.23,.01,.34,.03,.11,.02,.2,.07,.28,.15s.14,.21,.19,.37c.05,.17,.07,.39,.07,.67,0,.51-.07,.87-.21,1.07-.14,.2-.36,.29-.67,.29-.18,0-.36-.02-.56-.07-.19-.05-.39-.13-.58-.24-.19-.11-.38-.27-.56-.46-.18-.19-.35-.44-.51-.74m-2.09-3.05c0-.24-.03-.5-.09-.76-.06-.27-.16-.51-.29-.74-.14-.22-.31-.41-.53-.56-.22-.15-.48-.23-.79-.23s-.58,.08-.85,.25c-.27,.17-.52,.41-.75,.72-.22,.31-.41,.7-.56,1.17-.15,.46-.25,.99-.29,1.57,.32,.21,.67,.38,1.04,.51,.37,.13,.75,.2,1.14,.2,.24,0,.48-.03,.72-.08,.23-.05,.45-.16,.63-.31,.19-.15,.34-.37,.45-.65,.11-.28,.17-.64,.17-1.09"/>
    <path class="cls-1" d="M180.09,222.87c-.04-.61-.14-1.16-.28-1.67-.15-.51-.37-.94-.67-1.31-.3-.36-.7-.65-1.18-.85-.48-.2-1.08-.3-1.8-.3-.11,0-.27,0-.46,.03-.2,.02-.42,.04-.66,.08-.24,.03-.5,.08-.77,.13-.27,.05-.54,.12-.8,.2v-2.62c.18-.06,.39-.13,.63-.2,.24-.07,.51-.14,.79-.19,.28-.06,.58-.1,.89-.14,.31-.04,.62-.06,.94-.06,1.18,0,2.17,.2,2.98,.61,.81,.41,1.46,.95,1.96,1.64,.5,.68,.86,1.47,1.08,2.36,.22,.89,.33,1.81,.33,2.78v2.11h-10.98c-.12,0-.24-.01-.34-.03-.11-.02-.2-.07-.28-.15-.08-.08-.14-.21-.19-.38-.05-.17-.07-.4-.07-.69,0-.51,.07-.87,.21-1.05,.14-.19,.36-.28,.67-.28h8.04Zm-4.32,5.79c0-.2,.04-.39,.11-.57,.07-.18,.18-.34,.31-.47,.13-.13,.29-.24,.46-.32,.17-.07,.36-.11,.57-.11s.39,.04,.57,.11c.18,.07,.33,.18,.47,.32,.13,.14,.24,.29,.32,.47,.08,.18,.12,.37,.12,.57s-.04,.39-.12,.57c-.08,.18-.18,.33-.32,.46-.13,.13-.29,.24-.47,.32-.18,.08-.37,.12-.57,.12s-.4-.04-.57-.12c-.18-.08-.33-.18-.46-.32-.13-.13-.24-.29-.31-.46-.08-.18-.11-.37-.11-.57"/>
    <path class="cls-1" d="M34.08,246.71c-.18,0-.38-.01-.58-.04-.21-.03-.41-.08-.62-.15-.21-.07-.4-.17-.59-.3-.19-.12-.36-.28-.51-.48-.15-.19-.26-.43-.35-.69-.09-.27-.13-.58-.13-.94,0-.54,.09-1,.27-1.37,.18-.37,.42-.67,.71-.9,.29-.23,.63-.39,1-.49,.37-.1,.76-.15,1.14-.15h2.45v4.33c0,.21,.01,.39,.04,.54,.03,.15,.08,.27,.16,.36,.08,.09,.18,.16,.33,.2,.14,.04,.32,.06,.55,.06h.28c.21,0,.36,.05,.46,.14,.1,.1,.15,.25,.15,.46,0,.25-.05,.42-.14,.51-.09,.09-.25,.14-.47,.14h-.47c-.26,0-.51-.02-.75-.07-.24-.04-.45-.12-.64-.24-.19-.11-.35-.27-.48-.46-.13-.19-.22-.44-.26-.74-.22,.08-.47,.14-.74,.19-.28,.05-.55,.08-.81,.08m-1.5-2.71c0,.21,.03,.4,.09,.57,.06,.18,.15,.32,.28,.45,.13,.13,.29,.22,.49,.29,.2,.07,.45,.11,.74,.11,.11,0,.23,0,.35-.02,.13-.01,.26-.03,.38-.06,.13-.02,.25-.05,.37-.08s.23-.07,.32-.11v-2.69h-1.34c-.25,0-.47,.03-.68,.09-.2,.06-.38,.15-.53,.28-.15,.12-.27,.29-.35,.48-.08,.2-.12,.43-.12,.69m.26-5.56c0-.11,.02-.21,.06-.31,.04-.1,.1-.18,.17-.25,.07-.07,.16-.13,.26-.17,.1-.04,.2-.06,.31-.06,.11,0,.21,.02,.31,.06,.1,.04,.18,.1,.26,.17,.07,.07,.13,.16,.17,.25,.04,.1,.06,.2,.06,.31s-.02,.22-.06,.31c-.04,.1-.1,.18-.17,.26-.08,.07-.16,.13-.26,.17-.1,.04-.2,.06-.31,.06-.11,0-.22-.02-.31-.06-.1-.04-.18-.1-.26-.17-.07-.07-.13-.16-.17-.26-.04-.1-.06-.2-.06-.31m1.96,0c0-.11,.02-.21,.06-.31,.04-.1,.1-.18,.17-.25,.07-.07,.16-.13,.26-.17,.1-.04,.2-.06,.31-.06s.21,.02,.31,.06c.1,.04,.18,.1,.25,.17,.07,.07,.13,.16,.17,.25,.04,.1,.06,.2,.06,.31s-.02,.22-.06,.31c-.04,.1-.1,.18-.17,.26-.07,.07-.16,.13-.25,.17-.1,.04-.2,.06-.31,.06s-.22-.02-.31-.06c-.1-.04-.18-.1-.26-.17-.07-.07-.13-.16-.17-.26-.04-.1-.06-.2-.06-.31"/>
    <path class="cls-1" d="M40.69,247.08c-.13,.2-.27,.36-.41,.47-.14,.12-.28,.2-.43,.26-.15,.06-.3,.09-.47,.11-.16,.01-.33,.02-.52,.02h-.65c-.21,0-.36-.05-.46-.14-.1-.1-.15-.25-.15-.46,0-.25,.05-.42,.14-.51,.1-.09,.25-.14,.46-.14h.62c.12,0,.24-.01,.38-.04,.13-.03,.26-.09,.39-.19,.13-.1,.25-.23,.37-.41,.12-.18,.22-.42,.31-.73,.18-.62,.39-1.12,.65-1.51,.25-.39,.52-.7,.82-.93,.29-.23,.59-.38,.89-.46,.3-.08,.59-.12,.87-.12,.39,0,.76,.07,1.09,.2,.33,.14,.61,.33,.85,.58,.24,.25,.42,.55,.56,.9,.13,.35,.2,.74,.2,1.17,0,.45-.05,.86-.16,1.24-.11,.37-.28,.69-.5,.95-.23,.26-.51,.46-.85,.61-.34,.14-.74,.21-1.21,.21-.2,0-.41-.02-.62-.05-.21-.03-.43-.09-.66-.17-.23-.08-.47-.19-.72-.33s-.52-.31-.8-.52m4.23-1.81c0-.26-.03-.5-.1-.71-.07-.21-.16-.4-.28-.55-.12-.15-.28-.27-.47-.35-.18-.08-.39-.13-.63-.13s-.46,.05-.67,.15c-.21,.09-.41,.25-.59,.45-.18,.21-.35,.46-.49,.78-.15,.31-.27,.69-.38,1.14,.34,.27,.69,.47,1.06,.61,.37,.14,.72,.21,1.06,.21,.47,0,.83-.12,1.1-.37s.4-.65,.4-1.22"/>
    <path class="cls-1" d="M51.97,247.95c-.15,0-.29-.02-.43-.05-.14-.04-.27-.08-.4-.14-.12-.06-.23-.13-.33-.21-.1-.08-.17-.16-.22-.26,0,.69-.04,1.29-.12,1.78-.08,.49-.23,.9-.44,1.22-.21,.32-.5,.55-.87,.7-.37,.15-.83,.22-1.4,.22h-.45v-1.26h.5c.37,0,.66-.06,.87-.17,.21-.11,.36-.29,.45-.52,.09-.24,.15-.54,.17-.9,.02-.37,.03-.81,.03-1.32v-4.91h1.28v2.9c0,.25,.02,.48,.07,.69,.05,.21,.13,.38,.23,.52,.11,.14,.24,.25,.42,.33,.17,.08,.38,.12,.63,.12,.21,0,.36,.05,.46,.14,.1,.1,.15,.25,.15,.46,0,.25-.05,.42-.14,.51-.1,.09-.25,.14-.46,.14"/>
    <path class="cls-1" d="M58.04,245.05c.1,.28,.19,.52,.29,.73,.09,.21,.2,.38,.31,.51,.11,.14,.24,.24,.38,.3,.14,.07,.31,.1,.5,.1,.21,0,.36,.05,.46,.14,.1,.1,.15,.25,.15,.46,0,.25-.05,.42-.14,.51-.09,.09-.25,.14-.46,.14-.41,0-.74-.09-1.01-.27s-.49-.47-.69-.87c-.1,.24-.23,.43-.39,.58-.16,.15-.33,.26-.52,.35-.19,.08-.39,.14-.61,.17-.21,.03-.43,.04-.64,.04h-3.7c-.21,0-.36-.05-.46-.14-.1-.1-.15-.25-.15-.46,0-.25,.05-.42,.14-.51,.1-.09,.25-.14,.46-.14h3.61c.46,0,.8-.08,1-.25,.2-.17,.31-.4,.31-.7s-.11-.61-.32-.94c-.21-.33-.5-.65-.85-.97-.36-.31-.77-.61-1.23-.9-.46-.28-.95-.52-1.46-.73v-1.33l4.91-3.19v1.48l-3.58,2.2c.54,.26,1.01,.54,1.43,.84,.41,.31,.77,.62,1.08,.94,.3,.33,.55,.65,.75,.97,.19,.32,.34,.63,.44,.92"/>
    <path class="cls-1" d="M66.54,246.93c-.21,.38-.51,.68-.89,.9-.38,.21-.86,.32-1.44,.32-.2,0-.41-.02-.62-.05-.21-.03-.43-.09-.66-.17-.23-.08-.47-.19-.72-.33s-.52-.31-.8-.52c-.13,.2-.26,.36-.39,.47-.13,.12-.26,.2-.39,.26-.14,.06-.28,.09-.43,.11-.15,.01-.32,.02-.5,.02h-.16c-.21,0-.36-.05-.46-.14-.1-.1-.15-.25-.15-.46,0-.25,.05-.42,.14-.51s.25-.14,.46-.14h.13c.12,0,.24-.01,.36-.04,.12-.03,.24-.09,.36-.19,.12-.1,.23-.23,.34-.41,.11-.18,.21-.42,.29-.73,.18-.62,.39-1.12,.65-1.51,.25-.39,.52-.7,.82-.93,.29-.23,.59-.38,.89-.46,.3-.08,.59-.12,.87-.12,.39,0,.75,.07,1.08,.2,.33,.14,.61,.33,.85,.58,.24,.25,.42,.55,.56,.9,.13,.35,.2,.74,.2,1.17,0,.1,0,.19,0,.29,0,.09-.01,.19-.02,.28,.1,.32,.24,.56,.42,.73,.18,.17,.39,.25,.63,.25,.21,0,.36,.05,.45,.14,.1,.1,.14,.25,.14,.46,0,.25-.05,.42-.14,.51-.09,.09-.25,.14-.46,.14-.27,0-.54-.08-.78-.24-.25-.16-.46-.42-.63-.78m-.9-1.65c0-.26-.03-.5-.1-.71-.07-.21-.16-.4-.28-.55-.13-.15-.28-.27-.47-.35-.18-.08-.39-.13-.63-.13s-.46,.05-.67,.15c-.21,.09-.41,.25-.59,.45-.18,.21-.35,.46-.49,.78-.15,.31-.28,.69-.38,1.14,.34,.27,.69,.47,1.06,.61,.37,.14,.72,.21,1.06,.21,.47,0,.83-.12,1.1-.37s.4-.65,.4-1.22"/>
    <path class="cls-1" d="M67.95,247.95c-.21,0-.36-.05-.46-.14-.1-.1-.15-.25-.15-.46,0-.25,.05-.42,.14-.51,.1-.09,.25-.14,.46-.14h1.85v-9.29h1.28v10.54h-3.14Z"/>
    <rect class="cls-1" x="73.16" y="237.4" width="1.28" height="10.54"/>
    <path class="cls-1" d="M82.67,246.71c-.18,0-.38-.01-.58-.04-.21-.03-.41-.08-.62-.15-.21-.07-.4-.17-.59-.3-.19-.12-.36-.28-.51-.48-.15-.19-.27-.43-.35-.69s-.13-.58-.13-.94c0-.54,.09-1,.27-1.37,.18-.37,.42-.67,.71-.9,.29-.23,.63-.39,1-.49,.37-.1,.76-.15,1.14-.15h2.45v4.33c0,.21,.01,.39,.04,.54,.03,.15,.08,.27,.16,.36,.08,.09,.18,.16,.33,.2,.14,.04,.32,.06,.55,.06h.28c.21,0,.36,.05,.46,.14,.1,.1,.15,.25,.15,.46,0,.25-.05,.42-.14,.51-.09,.09-.25,.14-.47,.14h-.47c-.26,0-.51-.02-.75-.07-.24-.04-.45-.12-.64-.24-.19-.11-.35-.27-.48-.46-.13-.19-.22-.44-.26-.74-.22,.08-.47,.14-.74,.19-.28,.05-.55,.08-.81,.08m-1.5-2.71c0,.21,.03,.4,.09,.57,.06,.18,.15,.32,.28,.45,.13,.13,.29,.22,.49,.29,.2,.07,.45,.11,.74,.11,.11,0,.23,0,.35-.02,.13-.01,.26-.03,.38-.06,.13-.02,.25-.05,.37-.08s.23-.07,.32-.11v-2.69h-1.34c-.25,0-.47,.03-.68,.09-.2,.06-.38,.15-.53,.28-.15,.12-.27,.29-.35,.48-.08,.2-.12,.43-.12,.69m.26-5.56c0-.11,.02-.21,.06-.31,.04-.1,.1-.18,.17-.25,.07-.07,.16-.13,.26-.17,.1-.04,.2-.06,.31-.06,.11,0,.21,.02,.31,.06,.1,.04,.18,.1,.26,.17,.07,.07,.13,.16,.17,.25,.04,.1,.06,.2,.06,.31s-.02,.22-.06,.31c-.04,.1-.1,.18-.17,.26-.08,.07-.16,.13-.26,.17-.1,.04-.2,.06-.31,.06-.11,0-.22-.02-.31-.06-.1-.04-.18-.1-.26-.17-.07-.07-.13-.16-.17-.26-.04-.1-.06-.2-.06-.31m1.96,0c0-.11,.02-.21,.06-.31,.04-.1,.1-.18,.17-.25,.07-.07,.16-.13,.26-.17,.1-.04,.2-.06,.31-.06s.21,.02,.31,.06c.1,.04,.18,.1,.25,.17,.07,.07,.13,.16,.17,.25,.04,.1,.06,.2,.06,.31s-.02,.22-.06,.31c-.04,.1-.1,.18-.17,.26-.07,.07-.16,.13-.25,.17-.1,.04-.2,.06-.31,.06s-.22-.02-.31-.06c-.1-.04-.18-.1-.26-.17-.07-.07-.13-.16-.17-.26-.04-.1-.06-.2-.06-.31"/>
    <path class="cls-1" d="M92.89,245.05c.1,.28,.19,.52,.29,.73,.1,.21,.2,.38,.31,.51,.11,.14,.24,.24,.38,.3,.14,.07,.31,.1,.5,.1,.21,0,.36,.05,.46,.14,.1,.1,.15,.25,.15,.46,0,.25-.05,.42-.14,.51-.09,.09-.25,.14-.46,.14-.41,0-.74-.09-1.01-.27s-.49-.47-.69-.87c-.1,.24-.23,.43-.39,.58-.16,.15-.33,.26-.52,.35-.19,.08-.39,.14-.61,.17-.21,.03-.43,.04-.64,.04h-3.7c-.21,0-.36-.05-.46-.14-.1-.1-.15-.25-.15-.46,0-.25,.05-.42,.14-.51,.1-.09,.25-.14,.46-.14h3.61c.46,0,.8-.08,1-.25,.2-.17,.31-.4,.31-.7s-.11-.61-.32-.94c-.21-.33-.5-.65-.85-.97-.36-.31-.77-.61-1.23-.9-.46-.28-.95-.52-1.46-.73v-1.33l4.91-3.19v1.48l-3.58,2.2c.54,.26,1.01,.54,1.43,.84,.41,.31,.77,.62,1.08,.94,.3,.33,.55,.65,.75,.97,.19,.32,.34,.63,.44,.92"/>
    <path class="cls-1" d="M96.85,247.08c-.13,.2-.27,.36-.41,.47-.14,.12-.28,.2-.43,.26s-.3,.09-.47,.11c-.16,.01-.33,.02-.52,.02h-.65c-.21,0-.36-.05-.46-.14s-.15-.25-.15-.46c0-.25,.05-.42,.14-.51,.1-.09,.25-.14,.46-.14h.62c.12,0,.24-.01,.38-.04,.13-.03,.26-.09,.39-.19,.13-.1,.25-.23,.37-.41,.12-.18,.22-.42,.31-.73,.18-.62,.39-1.12,.65-1.51,.25-.39,.52-.7,.82-.93,.29-.23,.59-.38,.89-.46,.3-.08,.59-.12,.87-.12,.39,0,.76,.07,1.09,.2,.33,.14,.61,.33,.85,.58,.24,.25,.42,.55,.56,.9,.13,.35,.2,.74,.2,1.17,0,.45-.05,.86-.16,1.24-.11,.37-.28,.69-.5,.95-.23,.26-.51,.46-.85,.61-.34,.14-.74,.21-1.21,.21-.2,0-.41-.02-.62-.05-.21-.03-.43-.09-.66-.17-.23-.08-.47-.19-.72-.33-.25-.14-.52-.31-.8-.52m4.23-1.81c0-.26-.03-.5-.1-.71-.07-.21-.16-.4-.28-.55-.12-.15-.28-.27-.47-.35-.18-.08-.39-.13-.63-.13s-.46,.05-.67,.15c-.21,.09-.41,.25-.59,.45-.18,.21-.35,.46-.49,.78-.15,.31-.27,.69-.38,1.14,.34,.27,.69,.47,1.06,.61,.37,.14,.72,.21,1.06,.21,.47,0,.83-.12,1.1-.37,.26-.25,.4-.65,.4-1.22"/>
    <path class="cls-1" d="M110.38,246.71c-.18,0-.38-.01-.58-.04-.21-.03-.41-.08-.62-.15-.21-.07-.4-.17-.59-.3-.19-.12-.36-.28-.51-.48-.15-.19-.27-.43-.35-.69s-.13-.58-.13-.94c0-.54,.09-1,.27-1.37,.18-.37,.42-.67,.71-.9,.29-.23,.63-.39,1-.49,.37-.1,.76-.15,1.14-.15h2.45v4.33c0,.21,.01,.39,.04,.54,.03,.15,.08,.27,.16,.36,.08,.09,.18,.16,.33,.2,.14,.04,.32,.06,.55,.06h.28c.21,0,.36,.05,.46,.14,.1,.1,.15,.25,.15,.46,0,.25-.05,.42-.14,.51-.09,.09-.25,.14-.47,.14h-.47c-.26,0-.51-.02-.75-.07-.24-.04-.45-.12-.64-.24-.19-.11-.35-.27-.48-.46-.13-.19-.22-.44-.26-.74-.22,.08-.47,.14-.74,.19-.28,.05-.55,.08-.81,.08m-1.5-2.71c0,.21,.03,.4,.09,.57,.06,.18,.15,.32,.28,.45,.13,.13,.29,.22,.49,.29,.2,.07,.45,.11,.74,.11,.11,0,.23,0,.35-.02,.13-.01,.26-.03,.38-.06,.13-.02,.25-.05,.37-.08s.23-.07,.32-.11v-2.69h-1.34c-.25,0-.47,.03-.68,.09-.2,.06-.38,.15-.53,.28-.15,.12-.27,.29-.35,.48-.08,.2-.12,.43-.12,.69m.26-5.56c0-.11,.02-.21,.06-.31,.04-.1,.1-.18,.17-.25,.07-.07,.16-.13,.26-.17,.1-.04,.2-.06,.31-.06,.11,0,.21,.02,.31,.06,.1,.04,.18,.1,.26,.17,.07,.07,.13,.16,.17,.25,.04,.1,.06,.2,.06,.31s-.02,.22-.06,.31c-.04,.1-.1,.18-.17,.26-.08,.07-.16,.13-.26,.17-.1,.04-.2,.06-.31,.06-.11,0-.22-.02-.31-.06-.1-.04-.18-.1-.26-.17-.07-.07-.13-.16-.17-.26-.04-.1-.06-.2-.06-.31m1.96,0c0-.11,.02-.21,.06-.31,.04-.1,.1-.18,.17-.25,.07-.07,.16-.13,.26-.17,.1-.04,.2-.06,.31-.06s.21,.02,.31,.06c.1,.04,.18,.1,.25,.17,.07,.07,.13,.16,.17,.25,.04,.1,.06,.2,.06,.31s-.02,.22-.06,.31c-.04,.1-.1,.18-.17,.26-.07,.07-.16,.13-.25,.17-.1,.04-.2,.06-.31,.06s-.22-.02-.31-.06c-.1-.04-.18-.1-.26-.17-.07-.07-.13-.16-.17-.26-.04-.1-.06-.2-.06-.31"/>
    <path class="cls-1" d="M122.85,246.69c.21,0,.36,.05,.46,.14,.1,.1,.15,.25,.15,.46,0,.25-.05,.42-.14,.51-.09,.09-.25,.14-.46,.14h-8.32c-.21,0-.36-.05-.46-.14-.1-.1-.15-.25-.15-.46,0-.25,.05-.42,.14-.51,.1-.09,.25-.14,.46-.14h1.84c-.11-.21-.21-.45-.3-.71s-.13-.58-.13-.95c0-.44,.07-.85,.21-1.23,.14-.38,.34-.71,.6-.99,.26-.28,.58-.5,.95-.66,.37-.16,.79-.24,1.25-.24,.57,0,1.04,.1,1.41,.3,.37,.2,.65,.46,.86,.77,.21,.31,.35,.66,.44,1.04,.08,.38,.12,.75,.12,1.11v1.56h1.08Zm-5.82-7.11c0-.11,.02-.21,.06-.31,.04-.1,.1-.18,.17-.25,.07-.07,.16-.13,.26-.17,.1-.04,.2-.06,.31-.06,.11,0,.21,.02,.31,.06,.1,.04,.18,.1,.25,.17,.07,.07,.13,.16,.17,.25,.04,.1,.06,.2,.06,.31,0,.11-.02,.22-.06,.31-.04,.1-.1,.18-.17,.26-.07,.07-.16,.13-.25,.17-.1,.04-.2,.06-.31,.06-.11,0-.22-.02-.31-.06-.1-.04-.18-.1-.26-.17-.07-.07-.13-.16-.17-.26-.04-.1-.06-.2-.06-.31m.2,5.32c0,.3,.05,.57,.14,.79,.09,.23,.22,.41,.39,.56,.17,.15,.37,.26,.59,.33,.23,.07,.48,.11,.75,.11h1.39v-1.51c0-.25-.02-.49-.06-.74-.04-.25-.12-.47-.24-.66-.12-.2-.29-.36-.51-.48-.22-.12-.5-.18-.86-.18-.24,0-.45,.05-.65,.14-.2,.1-.37,.23-.51,.39-.14,.16-.25,.35-.33,.57-.08,.22-.11,.45-.11,.69m1.76-5.32c0-.11,.02-.21,.06-.31,.04-.1,.1-.18,.17-.25,.07-.07,.16-.13,.26-.17,.1-.04,.2-.06,.31-.06s.21,.02,.31,.06c.1,.04,.18,.1,.25,.17,.07,.07,.13,.16,.17,.25,.04,.1,.06,.2,.06,.31,0,.11-.02,.22-.06,.31-.04,.1-.1,.18-.17,.26-.07,.07-.16,.13-.25,.17-.1,.04-.2,.06-.31,.06s-.22-.02-.31-.06c-.1-.04-.18-.1-.26-.17-.07-.07-.13-.16-.17-.26-.04-.1-.06-.2-.06-.31"/>
    <path class="cls-1" d="M134.43,246.69c.21,0,.36,.05,.46,.14,.1,.1,.15,.25,.15,.46,0,.25-.05,.42-.14,.51-.09,.09-.25,.14-.47,.14h-11.58c-.21,0-.36-.05-.46-.14-.1-.1-.15-.25-.15-.46,0-.25,.05-.42,.14-.51,.1-.09,.25-.14,.46-.14h1.9v-9.29h1.28v7.03c.55-.86,1.17-1.5,1.86-1.9,.69-.41,1.44-.61,2.27-.61,.51,0,.96,.08,1.35,.24,.4,.16,.73,.39,1,.69,.27,.3,.48,.66,.63,1.09,.14,.43,.22,.92,.22,1.46v1.3h1.07Zm-2.35,0v-1.25c0-.29-.03-.57-.09-.84-.06-.27-.17-.52-.33-.73-.16-.21-.38-.38-.65-.51-.27-.13-.62-.2-1.05-.2-.32,0-.63,.05-.92,.14-.29,.1-.57,.23-.83,.4-.26,.17-.51,.37-.73,.59s-.43,.47-.62,.73c-.18,.26-.35,.54-.49,.82-.14,.28-.25,.56-.34,.84h6.04Z"/>
    <path class="cls-1" d="M134.43,247.94c-.21,0-.36-.05-.46-.14-.1-.1-.15-.25-.15-.46,0-.25,.05-.42,.14-.51,.1-.09,.25-.14,.46-.14h1.14c.18,0,.35,0,.5-.03,.15-.02,.28-.07,.39-.14,.11-.07,.19-.18,.25-.33,.06-.15,.09-.35,.09-.6v-3.46h1.3v2.9c0,.25,.02,.48,.06,.69,.04,.21,.11,.38,.22,.52,.1,.14,.24,.25,.42,.33,.17,.08,.4,.12,.66,.12,.21,0,.36,.05,.46,.14,.1,.1,.15,.25,.15,.46,0,.25-.05,.42-.14,.51-.1,.09-.25,.14-.46,.14-.16,0-.33-.02-.49-.06-.16-.04-.31-.1-.45-.18-.14-.07-.26-.17-.36-.27-.1-.1-.19-.22-.25-.34-.1,.18-.22,.33-.38,.44-.16,.11-.32,.2-.5,.26-.18,.06-.36,.1-.55,.12-.19,.02-.37,.03-.53,.03h-1.51Zm2.27-8.36c0-.11,.02-.21,.06-.31,.04-.1,.1-.18,.17-.25,.07-.07,.16-.13,.26-.17,.1-.04,.2-.06,.31-.06,.11,0,.21,.02,.31,.06,.1,.04,.18,.1,.25,.17,.07,.07,.13,.16,.17,.25,.04,.1,.06,.2,.06,.31,0,.11-.02,.22-.06,.31-.04,.1-.1,.18-.17,.26-.07,.07-.16,.13-.25,.17-.1,.04-.2,.06-.31,.06-.11,0-.22-.02-.31-.06-.1-.04-.18-.1-.26-.17-.07-.07-.13-.16-.17-.26-.04-.1-.06-.2-.06-.31"/>
    <path class="cls-1" d="M146.45,246.93c-.21,.38-.51,.68-.89,.9-.38,.21-.86,.32-1.44,.32-.2,0-.41-.02-.62-.05-.21-.03-.43-.09-.66-.17-.23-.08-.47-.19-.72-.33s-.52-.31-.8-.52c-.13,.2-.26,.36-.39,.47-.13,.12-.26,.2-.39,.26-.14,.06-.28,.09-.43,.11-.15,.01-.32,.02-.5,.02h-.16c-.21,0-.36-.05-.46-.14-.1-.1-.15-.25-.15-.46,0-.25,.05-.42,.14-.51s.25-.14,.46-.14h.13c.12,0,.24-.01,.36-.04,.12-.03,.24-.09,.36-.19,.12-.1,.23-.23,.34-.41,.11-.18,.21-.42,.29-.73,.18-.62,.39-1.12,.65-1.51,.25-.39,.52-.7,.82-.93,.29-.23,.59-.38,.89-.46,.3-.08,.59-.12,.87-.12,.39,0,.75,.07,1.08,.2,.33,.14,.61,.33,.85,.58,.24,.25,.42,.55,.56,.9,.13,.35,.2,.74,.2,1.17,0,.1,0,.19,0,.29,0,.09-.01,.19-.02,.28,.1,.32,.24,.56,.42,.73,.18,.17,.39,.25,.63,.25,.21,0,.36,.05,.45,.14,.1,.1,.14,.25,.14,.46,0,.25-.05,.42-.14,.51-.09,.09-.25,.14-.46,.14-.27,0-.54-.08-.78-.24-.25-.16-.46-.42-.63-.78m-.9-1.65c0-.26-.03-.5-.1-.71-.07-.21-.16-.4-.28-.55-.13-.15-.28-.27-.47-.35-.18-.08-.39-.13-.63-.13s-.46,.05-.67,.15c-.21,.09-.41,.25-.59,.45-.18,.21-.35,.46-.49,.78-.15,.31-.28,.69-.38,1.14,.34,.27,.69,.47,1.06,.61,.37,.14,.72,.21,1.06,.21,.47,0,.83-.12,1.1-.37,.26-.25,.4-.65,.4-1.22"/>
    <path class="cls-1" d="M147.87,247.95c-.21,0-.36-.05-.46-.14-.1-.1-.15-.25-.15-.46,0-.25,.05-.42,.14-.51,.1-.09,.25-.14,.46-.14h2.31v-4.56h1.28v5.81h-3.59Zm1.92,2.41c0-.11,.02-.21,.06-.31,.04-.1,.1-.18,.17-.25,.07-.07,.16-.13,.26-.17,.1-.04,.2-.06,.31-.06,.11,0,.21,.02,.31,.06,.1,.04,.18,.1,.25,.17,.07,.07,.13,.16,.17,.25,.04,.1,.06,.2,.06,.31,0,.11-.02,.22-.06,.31-.04,.1-.1,.18-.17,.26-.07,.07-.16,.13-.25,.17-.1,.04-.2,.06-.31,.06-.11,0-.22-.02-.31-.06-.1-.04-.18-.1-.26-.17-.07-.07-.13-.16-.17-.26-.04-.1-.06-.2-.06-.31"/>
    <path class="cls-1" d="M104.54,91.94l-15.3-8.85-15.3,8.85c-12.59,7.29-22.67,17.86-29.4,30.26v-34.94l5.52-7.74,5.52,7.74v13.2c3.06-3.4,6.46-6.38,9.45-8.74v-7.48l-9.16-12.84,9.16-12.85v-18.03l-12.96-12.19c1.04-.66,1.72-1.81,1.72-3.13,0-1.02-.4-1.93-1.06-2.61,.13-.02,.26-.03,.39-.05,5.58-.95,9.63-5.54,10.12-10.93-1.61,2.32-4.12,4.02-7.13,4.53-5.95,1.01-11.58-2.99-12.58-8.93-.44-2.58,.07-5.11,1.27-7.22-4.2,2.51-6.65,7.42-5.78,12.54,.81,4.82,4.35,8.51,8.76,9.74-.88,.67-1.43,1.74-1.43,2.93,0,1.32,.68,2.47,1.71,3.13l-12.96,12.19v18.03l9.16,12.85-9.16,12.84v108.42h9.45v-33.4c0-24.3,13.08-46.96,34.13-59.15l10.58-6.12,10.57,6.12c21.06,12.19,34.14,34.85,34.14,59.15v33.4h9.45v-33.4c0-27.65-14.89-53.45-38.85-67.32M44.53,44.62l5.52-5.19,5.52,5.19v10.92l-5.52,7.74-5.52-7.74v-10.92Z"/>
    <path class="cls-1" d="M89.24,133.1l-26.94,14.85v37.3l26.94,7.06,.14,.04,26.8-7.1v-37.3l-26.94-14.85Zm21.18,47.72l-21.18,5.08-21.18-5.09v-14.37l21.18-7.18,21.18,7.13v14.42Zm0-19.44l-21.18-9.33-21.18,10.22v-10.94l21.18-11.16,21.18,11.16v10.05Z"/>
  </g>
</svg>