<svg xmlns="http://www.w3.org/2000/svg" enable-background="new 0 0 2500 2000" viewBox="0 0 2500 2000"><rect width="2500" height="2000" fill="none"/><rect width="71.4" height="733.47" x="1206.21" y="830.8" fill="#9e9e9e" class="color3e7eff svgShape"/><rect width="67.34" height="733.47" x="1143.61" y="830.8" fill="#b0b0b0" class="color6290ff svgShape"/><polygon fill="#9e9e9e" points="1210.96 912.29 1210.96 935.87 1143.61 943.44 1143.61 912.29" class="color3e7eff svgShape"/><path fill="#b0b0b0" d="M1524.68,912.29H816.37V680.44c0-87.69,71.09-158.78,158.78-158.78h604.33L1524.68,912.29z" class="color6290ff svgShape"/><path fill="none" stroke="#9e9e9e" stroke-linecap="round" stroke-linejoin="round" stroke-miterlimit="10" stroke-width="12.009" d="M1012.57,906.63V680.44c0-76.75,54.45-140.78,126.83-155.56" class="colorStroke3e7eff svgStroke"/><path fill="none" stroke="#9e9e9e" stroke-linecap="round" stroke-linejoin="round" stroke-miterlimit="10" stroke-width="12.009" d="M1235.84,907.67V680.44c0-76.73,54.43-140.75,126.78-155.55" class="colorStroke3e7eff svgStroke"/><path fill="#5f5f5f" d="M1579.48,521.67L1579.48,521.67c-87.69,0-158.78,71.09-158.78,158.78v231.85h317.56V680.44    C1738.26,592.75,1667.17,521.67,1579.48,521.67z" class="color3f517f svgShape"/><path fill="#9e9e9e" d="M1579.48,1302.91L1579.48,1302.91c-87.69,0-158.78-71.09-158.78-158.78V912.29h317.56v231.85    C1738.26,1231.83,1667.17,1302.91,1579.48,1302.91z" class="color3e7eff svgShape"/><path fill="#b0b0b0" d="M1585.1,1302.91L1585.1,1302.91c-84.59,0-153.16-68.57-153.16-153.16V912.29h306.32v237.47    C1738.26,1234.34,1669.69,1302.91,1585.1,1302.91z" class="color6290ff svgShape"/><polygon fill="#9e9e9e" points="1738.26 926.34 1431.94 948.82 1431.94 912.29 1738.26 912.29" class="color3e7eff svgShape"/><path fill="#fff" d="M965.87,816.43c3.05-3.05,3.05-7.99,0-11.04c3.05,3.05,7.99,3.05,11.04,0s3.05-7.99,0-11.04    s-7.99-3.05-11.04,0c3.05-3.05,3.05-7.99,0-11.04s-7.99-3.05-11.04,0c3.05-3.05,3.05-7.99,0-11.04s-7.99-3.05-11.04,0    c3.05-3.05,3.05-7.99,0-11.04s-7.99-3.05-11.04,0c3.05-3.05,3.05-7.99,0-11.04c-3.05-3.05-7.99-3.05-11.04,0    c3.05-3.05,3.05-7.99,0-11.04s-7.99-3.05-11.04,0s-3.05,7.99,0,11.04c-3.05-3.05-7.99-3.05-11.04,0s-3.05,7.99,0,11.04    c-3.05-3.05-7.99-3.05-11.04,0s-3.05,7.99,0,11.04c-3.05-3.05-7.99-3.05-11.04,0s-3.05,7.99,0,11.04c-3.05-3.05-7.99-3.05-11.04,0    c-3.05,3.05-3.05,7.99,0,11.04s7.99,3.05,11.04,0c-3.05,3.05-3.05,7.99,0,11.04s7.99,3.05,11.04,0c-3.05,3.05-3.05,7.99,0,11.04    s7.99,3.05,11.04,0c-3.05,3.05-3.05,7.99,0,11.04s7.99,3.05,11.04,0c-3.05,3.05-3.05,7.99,0,11.04s7.99,3.05,11.04,0    c-3.05,3.05-3.05,7.99,0,11.04c3.05,3.05,7.99,3.05,11.04,0c3.05-3.05,3.05-7.99,0-11.04c3.05,3.05,7.99,3.05,11.04,0    s3.05-7.99,0-11.04c3.05,3.05,7.99,3.05,11.04,0s3.05-7.99,0-11.04C957.88,819.48,962.82,819.48,965.87,816.43z" class="colorffffff svgShape"/><rect width="36.43" height="47.36" x="903.49" y="770.67" fill="#d6d6d6" class="coloraec9ff svgShape" transform="rotate(-45.001 921.703 794.366)"/><rect width="63.02" height="48.48" x="890.2" y="770.11" fill="none" stroke="#5f5f5f" stroke-linecap="round" stroke-linejoin="round" stroke-miterlimit="10" stroke-width="1.847" class="colorStroke3f517f svgStroke" transform="rotate(45.001 921.723 794.347)"/><path fill="#b0b0b0" d="M932.98,816.56l-7.41,7.41l-33.49-33.49l8.58-8.58c0.94-0.15,1.87-0.27,2.83-0.39    c2.43-0.29,4.87-1.1,7.31-1.18c1.91-0.06,3.09,1.06,4.37,2.34c1.37,1.37,1.97,2.19,2.1,4.15c0.08,1.26-0.05,2.56-0.04,3.83    c0.02,2.03-0.01,4.01,0,6c0.01,2.29-0.43,3.94,0.96,5.99c1.19,1.75,3.19,4.04,5.24,4.7c1.84,0.59,3.65,0.77,5.13,2.11    C930.51,811.23,932.43,813.82,932.98,816.56z" class="color6290ff svgShape"/><circle cx="929.83" cy="793.8" r="5.23" fill="#9c9c9c" class="colorff9c39 svgShape"/><g class="color000000 svgShape"><circle cx="1316.52" cy="678.69" r="42.71" fill="#9e9e9e" class="color3e7eff svgShape"/><path fill="#535353" d="M1334.89,646.66c-3.05-1.9-4.86-5.28-4.86-8.88V398.34v-16.9c0-9.33-7.57-16.9-16.9-16.9h-81.18    c-9.33,0-16.9,7.57-16.9,16.9v0c0,9.33,7.57,16.9,16.9,16.9h64.54c3.3,0,5.98,2.68,5.98,5.98v233.47c0,3.63-1.87,7.01-4.95,8.93    c-10.65,6.66-17.49,18.83-16.55,32.51c1.15,16.63,16.37,31.75,33.01,32.79c20.57,1.29,37.65-15.01,37.65-35.3    C1351.62,664.03,1344.93,652.9,1334.89,646.66z" class="color2d457a svgShape"/><path fill="#5f5f5f" d="M1328.6,646.66c-3.05-1.9-4.86-5.28-4.86-8.88V398.34v-16.9c0-9.33-7.57-16.9-16.9-16.9h-81.18    c-9.33,0-16.9,7.57-16.9,16.9v0c0,9.33,7.57,16.9,16.9,16.9h64.54c3.3,0,5.98,2.68,5.98,5.98v233.47c0,3.63-1.87,7.01-4.95,8.93    c-10.65,6.66-17.49,18.83-16.55,32.51c1.15,16.63,16.37,31.75,33.01,32.79c20.57,1.29,37.65-15.01,37.65-35.3    C1345.33,664.03,1338.64,652.9,1328.6,646.66z" class="color3f517f svgShape"/><circle cx="1312.12" cy="676.72" r="13.78" fill="#535353" class="color2d457a svgShape"/><circle cx="1309.96" cy="676.72" r="13.78" fill="#fff" class="colorffffff svgShape"/></g><g class="color000000 svgShape"><path fill="#d6d6d6" d="M721.46,591.4c-10.68,10.91-28.18,11.09-39.1,0.41c-10.91-10.68-11.09-28.18-0.41-39.09   c0.37-0.38,0.75-0.74,1.13-1.09c10.76-9.83,27.44-9.64,37.97,0.67c9.08,8.89,10.73,22.49,4.88,33.11   C724.75,587.54,723.26,589.57,721.46,591.4z" class="coloraec9ff svgShape"/><path fill="#c4c4c4" d="M725.93,585.4l-42.85-33.78c10.76-9.83,27.44-9.64,37.97,0.67C730.13,561.19,731.78,574.79,725.93,585.4z" class="color8ab7ff svgShape"/><circle cx="845.25" cy="426.46" r="14.01" fill="#d6d6d6" class="coloraec9ff svgShape"/><path fill="#d6d6d6" d="M782.62,632.38L640.69,493.4c-3.3-3.23-1.7-8.83,2.8-9.84l12.15-2.71c19.36-4.32,37.06-14.17,50.94-28.34   l20.71-21.14c31.24-31.9,82.43-32.44,114.34-1.2l0,0c31.9,31.24,32.44,82.43,1.2,114.34l-20.7,21.14   c-13.88,14.18-23.36,32.08-27.27,51.54l-2.45,12.2C791.49,633.9,785.92,635.61,782.62,632.38z" class="coloraec9ff svgShape"/><path fill="none" stroke="#c4c4c4" stroke-linecap="round" stroke-linejoin="round" stroke-miterlimit="10" stroke-width="5.031" d="M830.77,421.22c3.81,2.62,7.44,5.6,10.86,8.94l0,0c3.42,3.34,6.47,6.92,9.17,10.67" class="colorStroke8ab7ff svgStroke"/><path fill="none" stroke="#c4c4c4" stroke-linecap="round" stroke-linejoin="round" stroke-miterlimit="10" stroke-width="5.031" d="M776.97,375.55c15.83-1.28,31.69,2.85,41.07,13.93" class="colorStroke8ab7ff svgStroke"/><path fill="none" stroke="#c4c4c4" stroke-linecap="round" stroke-linejoin="round" stroke-miterlimit="10" stroke-width="5.031" d="M725.13,410.29c4.57-4.53,16.57-15.21,35.63-19.26c20.14-4.28,36.23,1.39,42.12,3.8" class="colorStroke8ab7ff svgStroke"/></g><g class="color000000 svgShape"><path fill="gray" d="M1858.21,862.99h-364.32c-12.35,0-22.36-10.01-22.36-22.36V642.74c0-12.35,10.01-22.36,22.36-22.36h364.32   c12.35,0,22.36,10.01,22.36,22.36v197.89C1880.58,852.98,1870.57,862.99,1858.21,862.99z" class="colorff7300 svgShape"/><path fill="#888" d="M1845.79,862.99h-364.32c-12.35,0-22.36-10.01-22.36-22.36V642.74c0-12.35,10.01-22.36,22.36-22.36h364.32   c12.35,0,22.36,10.01,22.36,22.36v197.89C1868.16,852.98,1858.15,862.99,1845.79,862.99z" class="colorff8212 svgShape"/><path fill="#9c9c9c" d="M1868.16,840.63L1868.16,840.63l-204.53-174.71l-204.53,174.71l0,0c0,12.35,10.01,22.36,22.36,22.36h364.32   C1858.15,863,1868.16,852.98,1868.16,840.63z" class="colorff9c39 svgShape"/><polygon fill="#888" points="1459.11 642.74 1663.63 749 1868.16 642.74" class="colorff8212 svgShape"/><path fill="#9c9c9c" d="M1868.16,642.74L1868.16,642.74l-204.53,98.95l-204.53-98.95v0c0-12.35,10.01-22.36,22.36-22.36h364.32   C1858.15,620.37,1868.16,630.38,1868.16,642.74z" class="colorff9c39 svgShape"/><circle cx="1878.28" cy="604.24" r="52.2" fill="#a3a3a3" class="colorf0566e svgShape"/><path fill="#fff" d="M1873.49,634.43v-49.15c-1.66,0.24-4.71,0.29-6.07,0.26v-7.2c3.86-0.37,6.92-2.24,8.63-4.29h6.96v60.39     H1873.49z" class="colorffffff svgShape"/></g></svg>