<svg width="127" height="128" viewBox="0 0 127 128" fill="none" xmlns="http://www.w3.org/2000/svg">
    <rect x="0.767857" y="1.26786" width="125.464" height="125.464" rx="62.7321" fill="white" />
    <rect x="0.767857" y="1.26786" width="125.464" height="125.464" rx="62.7321" stroke="#EEEEEE"
        stroke-width="1.46429" />
    <g clip-path="url(#clip0_28_915)">
        <path
            d="M110.286 97.7142C103.826 97.7142 98.5713 102.969 98.5713 109.429C98.5713 115.888 103.826 121.143 110.286 121.143C116.745 121.143 122 115.888 122 109.429C122 102.969 116.745 97.7142 110.286 97.7142Z"
            fill="#11AE63" />
        <path
            d="M115.41 110.405H111.262V114.554C111.262 115.092 110.824 115.53 110.285 115.53C109.747 115.53 109.309 115.092 109.309 114.554V110.405H105.16C104.622 110.405 104.184 109.967 104.184 109.429C104.184 108.89 104.622 108.452 105.16 108.452H109.309V104.304C109.309 103.765 109.747 103.327 110.285 103.327C110.824 103.327 111.262 103.765 111.262 104.304V108.452H115.41C115.949 108.452 116.387 108.89 116.387 109.429C116.387 109.967 115.949 110.405 115.41 110.405Z"
            fill="#EEEEEE" />
    </g>
    <g clip-path="url(#clip1_28_915)">
        <path
            d="M64.3948 79.2787C73.3589 79.2787 80.6258 72.0119 80.6258 63.0478C80.6258 54.0836 73.3589 46.8168 64.3948 46.8168C55.4307 46.8168 48.1638 54.0836 48.1638 63.0478C48.1638 72.0119 55.4307 79.2787 64.3948 79.2787Z"
            fill="#FFB6B6" />
        <path
            d="M55.0771 81.679L54.3438 74.2667L68.9869 71.5286L77.6335 92.5812L62.5959 109.874L51.8816 88.8219L55.0771 81.679Z"
            fill="#FFB6B6" />
        <path
            d="M54.1086 77.977L57.31 78.7003C57.31 78.7003 54.7934 70.7201 55.6476 69.9582C56.5017 69.1964 58.5949 70.3968 58.5949 70.3968L60.7946 72.863L63.4739 70.1351C63.4739 70.1351 66.3827 66.5181 67.5216 65.5023C68.6605 64.4865 66.8312 60.7159 66.8312 60.7159C66.8312 60.7159 83.7281 56.1597 77.4407 47.9641C77.4407 47.9641 73.7545 41.5384 72.554 43.6316C71.3536 45.7248 69.9221 42.4004 69.9221 42.4004L65.5511 43.2316C65.5511 43.2316 56.9244 38.145 48.7366 49.0266C40.5488 59.9082 54.1086 77.977 54.1086 77.977Z"
            fill="#2F2E41" />
        <path
            d="M94.921 102.9C86.0507 110.092 75.077 114 63.5 114C52.9285 114 42.859 110.741 34.436 104.699C34.4511 104.541 34.4661 104.385 34.4793 104.229C34.703 101.786 34.9022 99.4098 35.0338 97.4399C35.5432 89.7914 53.3872 84.6937 53.3872 84.6937C53.3872 84.6937 53.468 84.7745 53.6297 84.9155C54.6146 85.7801 58.6127 88.9155 65.624 89.7914C71.8759 90.5734 73.9342 86.8647 74.5564 85.0884C74.7443 84.547 74.8007 84.1842 74.8007 84.1842L93.1541 92.8515C94.3515 94.5621 94.8195 98.2463 94.9116 102.387C94.9154 102.558 94.9192 102.728 94.921 102.9Z"
            fill="#EEEEEE" />
    </g>
    <defs>
        <clipPath id="clip0_28_915">
            <rect width="23.4286" height="23.4286" fill="white"
                transform="translate(98.5713 97.7142)" />
        </clipPath>
        <clipPath id="clip1_28_915">
            <rect width="100" height="100" fill="white" transform="translate(13.5 14)" />
        </clipPath>
    </defs>
</svg>